<svg xmlns="http://www.w3.org/2000/svg" width="1080" height="1080" viewBox="0 0 1080 1080" version="1.1">
	<path d="M 590.500 301.656 C 559.489 305.344, 533.281 313.645, 509.110 327.437 C 497.723 333.935, 483.045 343.955, 483.016 345.250 C 483.007 345.663, 488.097 346, 494.326 346 C 530.256 346, 572.747 355.332, 603.702 370.021 C 624.503 379.892, 640.025 391.045, 656.058 407.641 C 670.256 422.337, 679.008 435.013, 689.505 456.088 C 695.885 468.896, 701.609 475.669, 709.500 479.751 C 718.434 484.372, 723.370 484.985, 743.394 483.961 C 768.955 482.654, 770.758 482.393, 777.596 479.027 C 785.312 475.229, 792.214 467.927, 796.334 459.203 C 799.365 452.785, 799.500 451.966, 799.500 439.925 L 799.500 427.349 795.320 418.925 C 793.021 414.291, 787.995 405.775, 784.153 400 C 747.115 344.340, 690.801 308.841, 628.789 302.062 C 619.765 301.075, 597.382 300.838, 590.500 301.656 M 472 363.086 C 443.976 365.767, 411.038 374.946, 388.023 386.488 C 340.578 410.283, 304.756 455.209, 288.656 511.109 C 283.721 528.244, 283.123 528.060, 297.735 513.906 C 341.671 471.346, 384.059 448.651, 431.305 442.391 C 458.710 438.759, 493.490 443.233, 521.752 454.025 L 529.838 457.113 539.169 450.729 C 555.476 439.572, 567.385 433.806, 582.346 429.823 C 594.126 426.687, 613.269 426.680, 624.837 429.806 C 641.153 434.215, 655.568 442.534, 671.809 456.913 L 681.117 465.154 675.980 456.827 C 653.601 420.551, 622.706 394.151, 584.969 379.057 C 551.455 365.652, 508.563 359.588, 472 363.086 M 431.500 467.100 C 383.551 472.098, 335.102 499.877, 307.736 538.062 C 294.971 555.874, 283.629 582.068, 278.968 604.500 C 277.460 611.760, 275 630.776, 275 635.178 C 275 635.709, 278.938 632.535, 283.750 628.125 C 318.456 596.317, 351.903 579.321, 391.128 573.561 C 404.306 571.626, 427.977 571.570, 442.030 573.441 C 461.426 576.024, 487.464 582.839, 504.869 589.890 C 509.543 591.783, 510.156 591.849, 509.600 590.400 C 509.249 589.485, 507.811 583.283, 506.405 576.618 C 502.929 560.138, 502.013 533.874, 504.430 520 C 506.315 509.183, 511.919 491.632, 515.582 485.077 C 516.941 482.644, 517.704 480.338, 517.277 479.952 C 515.766 478.589, 500.386 473.140, 492.022 471.005 C 474.161 466.446, 451.686 464.996, 431.500 467.100 M 718.500 591.027 C 709.530 593.984, 703.941 598.677, 696.875 609.186 C 674.087 643.076, 638.964 661.879, 602.574 659.670 C 583.361 658.503, 566.394 652.466, 548.955 640.590 C 538.020 633.143, 500.310 614.583, 482 607.635 C 440.769 591.992, 420.619 589.359, 390.006 595.618 C 361.071 601.533, 333.331 618.255, 313.316 641.848 L 307.686 648.484 319.593 649.720 C 346.935 652.558, 374.171 660.388, 398.781 672.484 C 423.046 684.412, 441.914 697.885, 466 720.484 C 517.529 768.831, 582.324 788.172, 648.325 774.906 C 709.254 762.660, 765.755 718.064, 796.441 658 C 802.938 645.283, 804.127 641.117, 804.105 631.147 C 804.067 613.692, 795.629 599.619, 781 592.613 L 774.500 589.500 749.500 589.275 C 726.912 589.071, 723.921 589.240, 718.500 591.027" stroke="none" fill="black" fill-rule="evenodd"/>
</svg>