<svg width="130" height="194" xmlns="http://www.w3.org/2000/svg" viewBox="0 0 130 194.065" xmlns:xlink="http://www.w3.org/1999/xlink">
    <defs/>
    <g transform="translate(1,1)">
        <path fill="#48a0ac" id="shape1" d="M38.5,102.2C38.5,102.2,13.4,89.5,5,66.8C-3.3,44.1,.8,30.5,2.6,21.1C4.4,11.8,9,0,15.2,0C21.4,0,26.6,10,29.8,34.7C33,59.4,36.8,74.2,40.7,82.1C44.6,90.1,48,95.6,48,95.6C48,95.6,53.7,92.1,61.9,92.1C70.1,92.1,79.5,96,79.5,96C79.5,96,76.3,70.7,82,50.4C87.6,30.1,98.7,10.6,106.1,5.5C113.5,0,122.2,4.3,125,10.2C127.7,16.1,130.3,27.7,124.6,45.6C118.9,63.5,108.4,81.2,103,89C97.7,96.9,90.6,103,90.6,103C90.6,103,103.6,119.1,108.1,138C112.5,157,110.3,166.4,107.5,172.2C104.7,177.9,100,181.5,95.1,184.5C90.1,187.6,88.7,188.4,79.5,190.6C70.3,192.9,50.8,192.4,40.3,189.9C29.7,187.4,21.4,181.5,17,175C12.6,168.4,10.5,159,12.4,149.6C14.3,140.3,24.7,124.9,29,118.3C33.3,111.7,38.5,102.2,38.5,102.2z"/>
        <path fill="#60d7e6" transform="translate(85.95,47.92)" id="shape2" d="M0,50.1C0,50.1,5.9,25.1,10.6,15.2C15.3,5.4,22.8,-3.7,24,1.5C25.3,6.8,0,50.8,0,50.1z"/>
        <path fill="#60d7e6" transform="translate(9.85,45.42)" id="shape3" d="M32.1,51.9C32.1,51.9,23.6,35.7,16.8,22.1C10,8.6,2.5,-10.8,.9,6.3C-0.7,23.4,32.2,52.5,32.1,51.9z"/>
        <path fill="#ffffff" transform="translate(33.53,125.54)" id="shape4" d="M0,9.5C0,4.2,3.6,0,8.1,0C12.6,0,16.3,4.2,16.3,9.5C16.3,14.7,12.6,18.9,8.1,18.9C3.6,18.9,0,14.7,0,9.5z"/>
        <path fill="#000000" transform="translate(39.79,131.39)" id="shape5" d="M0,6.2C0,2.8,1.9,0,4.3,0C6.6,0,8.5,2.8,8.5,6.2C8.5,9.6,6.6,12.4,4.3,12.4C1.9,12.4,0,9.6,0,6.2z"/>
        <path fill="#ffffff" transform="translate(42.96,134.79)" id="shape6" d="M0,2.1C0,.9,.9,0,2.1,0C3.3,0,4.2,.9,4.2,2.1C4.2,3.2,3.3,4.2,2.1,4.2C.9,4.2,0,3.2,0,2.1z"/>
        <path fill="#ffffff" transform="translate(76.3,125.54)" id="shape7" d="M16.3,9.5C16.3,4.2,12.6,0,8.1,0C3.6,0,0,4.2,0,9.5C0,14.7,3.6,18.9,8.1,18.9C12.6,18.9,16.3,14.7,16.3,9.5z"/>
        <path fill="#000000" transform="translate(82.35,131.39)" id="shape8" d="M8.5,6.2C8.5,2.8,6.6,0,4.3,0C1.9,0,0,2.8,0,6.2C0,9.6,1.9,12.4,4.3,12.4C6.6,12.4,8.5,9.6,8.5,6.2z"/>
        <path fill="#ffffff" transform="translate(85.66,134.33)" id="shape9" d="M4.2,2.1C4.2,.9,3.3,0,2.1,0C.9,0,0,.9,0,2.1C0,3.2,.9,4.2,2.1,4.2C3.3,4.2,4.2,3.2,4.2,2.1z"/>
        <g transform="translate(38.42,158.93)">
            <path fill="#e85464" transform="translate(17.71,6.16)" id="shape10" d="M0,12.4C0,12.4,2.9,21,8.6,20.9C14.4,20.7,17.3,13.8,19,8.8C20.7,3.7,21.3,0,21.3,0L17.7,3.7L13.4,5.2L5.2,5.8L0,12.4z"/>
            <path fill="#ffffff" transform="translate(11.87,6.28)" id="shape11" d="M0,4C0,4,-0.1,8.4,.8,10.4C1.7,12.5,2.9,13,2.9,13L8,13C8,13,7.1,9.9,6.9,7.4C6.7,4.9,7,0,7,0C7,0,5.6,2.4,3.2,3.1C.7,3.9,0,4,0,4z"/>
            <path fill="#ffffff" transform="translate(18.64,6.28)" id="shape12" d="M.2,0L4.1,3.8L9.7,5.4C9.7,5.4,9.2,6.8,9.2,9.2C9.2,11.5,9.7,13.1,9.7,13.1L1.3,13C1.3,13,0,10,0,6.5C0,3.1,.2,0,.2,0z"/>
            <g/>
        </g>
        <path fill="#000000" transform="translate(46.47,154.43)" id="shape16" d="M0,3.5C.3,1,2.1,0,10.2,0C18.3,.3,21.9,.4,22.3,3.1C22.6,5.8,16.1,11.7,11.1,11.6C6.1,11.3,-0.3,6,0,3.5z"/>
    </g>
</svg>
