<svg width="82" height="93" viewBox="0 0 82 93" fill="none" xmlns="http://www.w3.org/2000/svg">
<path d="M41 0C23.8471 0 6.00586 4.0188 6.00586 4.0188L5.9913 4.03394C4.30306 4.38529 2.78385 5.33336 1.6917 6.71712C0.599558 8.10089 0.00181469 9.83503 0 11.625V34.875C0 75.1672 37.3528 92.0085 37.3528 92.0085C38.4668 92.6584 39.7226 92.9998 41 93C42.2724 92.9972 43.523 92.6559 44.6326 92.0085H44.6472C44.6509 92.0085 82 75.1672 82 34.875V11.625C82.0009 9.83029 81.4026 8.0909 80.3073 6.70372C79.212 5.31654 77.6875 4.36757 75.9941 4.0188C75.9941 4.0188 58.1529 0 41 0ZM22.3636 19.375H59.6364C61.6938 19.375 63.3636 21.111 63.3636 23.25V58.125H18.6364V23.25C18.6364 21.111 20.3062 19.375 22.3636 19.375ZM26.0909 31V50.375H55.9091V31H26.0909Z" fill="#A97142"/>
</svg>
