<svg width="155" height="150" viewBox="0 0 155 150" fill="none" xmlns="http://www.w3.org/2000/svg">
<circle cx="86" cy="69" r="69" fill="#C5E3FF"/>
<circle cx="69" cy="81" r="67.5" stroke="#5E5E60" stroke-width="3"/>
<path d="M49.3125 54.75C47.2532 54.75 45.1255 55.5276 43.4336 57.0059C41.7417 58.4841 40.5625 60.7571 40.5625 63.5C40.5625 65.8242 41.5366 67.8066 42.75 69.3789C43.9634 70.9512 45.4331 72.1902 46.7832 73.4121C49.4834 75.856 51.5 77.864 51.5 81C51.5 81.3333 51.1753 82.1365 50.748 82.7773C50.3208 83.4182 49.9277 83.8027 49.9277 83.8027L53.0723 86.8789C53.0723 86.8789 53.773 86.1782 54.4395 85.1699C55.012 84.3069 55.6357 83.196 55.8066 81.752C56.0544 82.4612 56.2937 83.1875 56.5586 83.8711C58.0625 87.7505 59.7971 91.2283 61.7539 93.8516C62.4631 94.8086 63.198 95.6545 64.0098 96.3809C59.4895 96.7056 55.875 100.465 55.875 105.062V107.25H82.125V105.062C82.125 100.414 78.4421 96.6372 73.8535 96.3809C74.6738 95.6545 75.46 94.8 76.1777 93.8516C78.1431 91.2368 79.8521 87.7505 81.373 83.8711C81.655 83.1448 81.9285 82.3672 82.1934 81.6152C82.3386 83.1191 82.9709 84.2812 83.5605 85.1699C84.2271 86.1782 84.9277 86.8789 84.9277 86.8789L88.0723 83.8027C88.0723 83.8027 87.6792 83.4182 87.252 82.7773C86.8247 82.1365 86.5 81.3333 86.5 81C86.5 77.864 88.5166 75.856 91.2168 73.4121C92.5669 72.1902 94.0366 70.9512 95.25 69.3789C96.4634 67.8066 97.4375 65.8242 97.4375 63.5C97.4375 60.7571 96.2583 58.4841 94.5664 57.0059C92.8745 55.5276 90.7468 54.75 88.6875 54.75C85.8933 54.75 83.9792 56.0232 82.9453 56.9375H55.0547C54.0208 56.0232 52.1067 54.75 49.3125 54.75ZM49.3125 59.125C50.3464 59.125 51.0129 59.4497 51.5 59.7402C51.5598 64.2007 52.3289 69.2593 53.5508 74.2324C52.3887 72.6602 50.936 71.3528 49.6543 70.1992C48.27 68.9517 47.0054 67.7981 46.168 66.7129C45.3306 65.6277 44.9375 64.6877 44.9375 63.5C44.9375 61.9705 45.5356 61.022 46.373 60.2871C47.2105 59.5522 48.364 59.125 49.3125 59.125ZM88.6875 59.125C89.636 59.125 90.7896 59.5522 91.627 60.2871C92.4644 61.022 93.0625 61.9705 93.0625 63.5C93.0625 64.6877 92.6694 65.6277 91.832 66.7129C90.9946 67.7981 89.73 68.9517 88.3457 70.1992C87.0383 71.3784 85.5601 72.7371 84.3809 74.3691C85.637 69.3618 86.4402 64.2605 86.5 59.7402C86.9871 59.4497 87.6536 59.125 88.6875 59.125ZM56.1484 61.3125H81.8516C81.5183 67.8152 79.835 75.7449 77.2715 82.2988C75.853 85.9219 74.2124 89.0664 72.623 91.1855C71.0337 93.3047 69.5811 94.125 68.9316 94.125C68.2908 94.125 66.8894 93.3047 65.3086 91.1855C63.7278 89.0664 62.0701 85.9304 60.6602 82.2988C58.1138 75.7363 56.4817 67.781 56.1484 61.3125ZM66.8125 67.875V78.8125H71.1875V67.875H66.8125ZM64.625 100.688H73.375C74.9473 100.688 76.0239 101.653 76.793 102.875H61.207C61.9761 101.653 63.0527 100.688 64.625 100.688Z" fill="black"/>
</svg>
