<svg height="63" viewBox="0 0 77 63" xmlns="http://www.w3.org/2000/svg" xmlns:xlink="http://www.w3.org/1999/xlink" width="77">
    <defs/>
    <g transform="translate(1,1)">
        <g>
            <path d="M0,0L75,0L75,61L0,61L0,0z" id="shape1" stroke="#ffffff" fill="#ffffff"/>
        </g>
        <path d="M23,14.4C23,9.7,26.1,5.9,30,5.9C33.9,5.9,37,9.7,37,14.4C37,19.1,33.9,22.9,30,22.9C26.1,22.9,23,19.1,23,14.4zM13.6,37.7C14.4,30.4,16.1,25.6,21.8,24.5C22.4,24.4,23,24.3,23.6,24.2C25.3,25.6,27.5,26.5,30,26.5C32.5,26.5,34.7,25.6,36.4,24.2C37,24.3,37.6,24.4,38.2,24.5C43.9,25.6,45.6,30.4,46.4,37.7C46.4,37.8,46.4,37.9,46.4,38L13.6,38C13.6,37.9,13.6,37.8,13.6,37.7zM0,27.2C.7,20.9,2.1,16.8,7,15.9C7.5,15.8,8,15.7,8.5,15.7C10,16.9,11.9,17.6,14,17.6C16.1,17.6,18.1,16.9,19.5,15.7C19.7,15.7,19.8,15.7,20,15.7C20.2,17.9,20.9,19.9,21.9,21.5C21.5,21.6,21.1,21.6,20.8,21.7C17.1,22.4,14.8,24.4,13.3,27.4L0,27.4C0,27.4,0,27.3,0,27.2zM14,14.5C17.3,14.5,20,11.3,20,7.2C20,3.2,17.3,0,14,0C10.7,0,8,3.2,8,7.2C8,11.3,10.7,14.5,14,14.5zM60,27.2C59.3,20.9,57.9,16.8,53,15.9C52.5,15.8,52,15.7,51.5,15.7C50,16.9,48.1,17.6,46,17.6C43.9,17.6,41.9,16.9,40.5,15.7C40.3,15.7,40.2,15.7,40,15.7C39.8,17.9,39.1,19.9,38.1,21.5C38.5,21.6,38.9,21.6,39.2,21.7C42.9,22.4,45.2,24.4,46.7,27.4L60,27.4C60,27.4,60,27.3,60,27.2zM46,14.5C42.7,14.5,40,11.3,40,7.2C40,3.2,42.7,0,46,0C49.3,0,52,3.2,52,7.2C52,11.3,49.3,14.5,46,14.5z" transform="translate(7.5,11.5)" id="shape2" stroke="#595757" fill="#595757"/>
    </g>
</svg>
