<svg width="383" height="382" viewBox="0 0 383 382" fill="none" xmlns="http://www.w3.org/2000/svg">
<path d="M9.8 78.24C7.20088 78.24 4.70821 79.2704 2.87036 81.1045C1.0325 82.9386 0 85.4262 0 88.02C0 90.6138 1.0325 93.1014 2.87036 94.9355C4.70821 96.7696 7.20088 97.8 9.8 97.8C12.3991 97.8 14.8918 96.7696 16.7296 94.9355C18.5675 93.1014 19.6 90.6138 19.6 88.02C19.6 85.4262 18.5675 82.9386 16.7296 81.1045C14.8918 79.2704 12.3991 78.24 9.8 78.24Z" fill="#78A0CF"/>
<path d="M323.4 4.89001C322.1 4.89001 320.854 5.40521 319.935 6.32226C319.016 7.23932 318.5 8.48311 318.5 9.78001C318.5 11.0769 319.016 12.3207 319.935 13.2378C320.854 14.1548 322.1 14.67 323.4 14.67C324.7 14.67 325.946 14.1548 326.865 13.2378C327.784 12.3207 328.3 11.0769 328.3 9.78001C328.3 8.48311 327.784 7.23932 326.865 6.32226C325.946 5.40521 324.7 4.89001 323.4 4.89001Z" fill="#F1BC19"/>
<path d="M191.1 9.78003C143.016 9.78003 96.9019 28.8422 62.9015 62.7732C28.9012 96.7042 9.79999 142.724 9.79999 190.71C9.79999 238.696 28.9012 284.716 62.9015 318.647C96.9019 352.578 143.016 371.64 191.1 371.64C239.184 371.64 285.298 352.578 319.298 318.647C353.299 284.716 372.4 238.696 372.4 190.71C372.4 142.724 353.299 96.7042 319.298 62.7732C285.298 28.8422 239.184 9.78003 191.1 9.78003V9.78003Z" fill="#CEE1F4"/>
<path d="M352.8 0C347.602 0 342.616 2.06078 338.941 5.72899C335.265 9.3972 333.2 14.3724 333.2 19.56C333.2 24.7476 335.265 29.7228 338.941 33.391C342.616 37.0592 347.602 39.12 352.8 39.12C357.998 39.12 362.984 37.0592 366.659 33.391C370.335 29.7228 372.4 24.7476 372.4 19.56C372.4 14.3724 370.335 9.3972 366.659 5.72899C362.984 2.06078 357.998 0 352.8 0V0Z" fill="#F1BC19"/>
<path d="M372.4 53.79C369.801 53.79 367.308 54.8204 365.47 56.6545C363.632 58.4886 362.6 60.9762 362.6 63.57C362.6 66.1639 363.632 68.6514 365.47 70.4855C367.308 72.3196 369.801 73.35 372.4 73.35C374.999 73.35 377.492 72.3196 379.33 70.4855C381.168 68.6514 382.2 66.1639 382.2 63.57C382.2 60.9762 381.168 58.4886 379.33 56.6545C377.492 54.8204 374.999 53.79 372.4 53.79Z" fill="#78A0CF"/>
<path d="M343 308.07C340.401 308.07 337.908 309.1 336.07 310.934C334.232 312.769 333.2 315.256 333.2 317.85C333.2 320.444 334.232 322.931 336.07 324.765C337.908 326.6 340.401 327.63 343 327.63C345.599 327.63 348.092 326.6 349.93 324.765C351.767 322.931 352.8 320.444 352.8 317.85C352.8 315.256 351.767 312.769 349.93 310.934C348.092 309.1 345.599 308.07 343 308.07ZM19.6 234.72C14.4018 234.72 9.41642 236.781 5.74071 240.449C2.06499 244.117 0 249.092 0 254.28C0 259.468 2.06499 264.443 5.74071 268.111C9.41642 271.779 14.4018 273.84 19.6 273.84C24.7982 273.84 29.7836 271.779 33.4593 268.111C37.135 264.443 39.2 259.468 39.2 254.28C39.2 249.092 37.135 244.117 33.4593 240.449C29.7836 236.781 24.7982 234.72 19.6 234.72Z" fill="#FBCD59"/>
<path d="M68.6 361.86C66.0009 361.86 63.5082 362.89 61.6704 364.725C59.8325 366.559 58.8 369.046 58.8 371.64C58.8 374.234 59.8325 376.721 61.6704 378.556C63.5082 380.39 66.0009 381.42 68.6 381.42C71.1991 381.42 73.6918 380.39 75.5297 378.556C77.3675 376.721 78.4 374.234 78.4 371.64C78.4 369.046 77.3675 366.559 75.5297 364.725C73.6918 362.89 71.1991 361.86 68.6 361.86Z" fill="#78A0CF"/>
<path d="M36.75 195.6C33.5011 195.6 30.3853 196.888 28.0879 199.181C25.7906 201.473 24.5 204.583 24.5 207.825C24.5 211.067 25.7906 214.177 28.0879 216.469C30.3853 218.762 33.5011 220.05 36.75 220.05C39.9989 220.05 43.1147 218.762 45.4121 216.469C47.7094 214.177 49 211.067 49 207.825C49 204.583 47.7094 201.473 45.4121 199.181C43.1147 196.888 39.9989 195.6 36.75 195.6V195.6Z" fill="white"/>
<path d="M49 268.95C47.7004 268.95 46.4541 269.465 45.5352 270.382C44.6163 271.299 44.1 272.543 44.1 273.84C44.1 275.137 44.6163 276.381 45.5352 277.298C46.4541 278.215 47.7004 278.73 49 278.73C50.2996 278.73 51.5459 278.215 52.4648 277.298C53.3838 276.381 53.9 275.137 53.9 273.84C53.9 272.543 53.3838 271.299 52.4648 270.382C51.5459 269.465 50.2996 268.95 49 268.95Z" fill="#F1BC19"/>
<path d="M338.1 107.58C336.8 107.58 335.554 108.095 334.635 109.012C333.716 109.929 333.2 111.173 333.2 112.47C333.2 113.767 333.716 115.011 334.635 115.928C335.554 116.845 336.8 117.36 338.1 117.36C339.4 117.36 340.646 116.845 341.565 115.928C342.484 115.011 343 113.767 343 112.47C343 111.173 342.484 109.929 341.565 109.012C340.646 108.095 339.4 107.58 338.1 107.58Z" fill="white"/>
<path d="M279.3 293.4H102.9C89.3711 293.4 78.4 282.451 78.4 268.95V112.47C78.4 98.9687 89.3711 88.02 102.9 88.02H279.3C292.829 88.02 303.8 98.9687 303.8 112.47V268.95C303.8 282.451 292.829 293.4 279.3 293.4Z" fill="#FFFCFA"/>
<path d="M78.4 119.805H303.8V266.505H78.4V119.805Z" fill="#EFEDDF"/>
<path d="M75.95 119.805H179.463V266.505H75.95V119.805Z" fill="#836F61"/>
<path d="M279.3 89.976C291.726 89.976 301.84 100.069 301.84 112.47V268.95C301.84 281.351 291.726 291.444 279.3 291.444H102.9C90.4736 291.444 80.36 281.351 80.36 268.95V112.47C80.36 100.069 90.4736 89.976 102.9 89.976H279.3ZM279.3 83.13H102.9C86.6614 83.13 73.5 96.2645 73.5 112.47V268.95C73.5 285.155 86.6614 298.29 102.9 298.29H279.3C295.539 298.29 308.7 285.155 308.7 268.95V112.47C308.7 96.2645 295.539 83.13 279.3 83.13Z" fill="#472B29"/>
<path d="M222.95 122.25H77.175C75.8226 122.25 74.725 121.155 74.725 119.805C74.725 118.455 75.8226 117.36 77.175 117.36H222.95C224.302 117.36 225.4 118.455 225.4 119.805C225.4 121.155 224.302 122.25 222.95 122.25ZM252.35 122.25H232.75C231.398 122.25 230.3 121.155 230.3 119.805C230.3 118.455 231.398 117.36 232.75 117.36H252.35C253.702 117.36 254.8 118.455 254.8 119.805C254.8 121.155 253.702 122.25 252.35 122.25ZM304.412 122.25H267.05C265.698 122.25 264.6 121.155 264.6 119.805C264.6 118.455 265.698 117.36 267.05 117.36H304.412C305.765 117.36 306.862 118.455 306.862 119.805C306.862 121.155 305.765 122.25 304.412 122.25ZM304.412 268.95H281.75C280.398 268.95 279.3 267.855 279.3 266.505C279.3 265.155 280.398 264.06 281.75 264.06H304.412C305.765 264.06 306.862 265.155 306.862 266.505C306.862 267.855 305.765 268.95 304.412 268.95ZM267.05 268.95H76.5625C75.2101 268.95 74.1125 267.855 74.1125 266.505C74.1125 265.155 75.2101 264.06 76.5625 264.06H267.05C268.402 264.06 269.5 265.155 269.5 266.505C269.5 267.855 268.402 268.95 267.05 268.95Z" fill="#472B29"/>
<path d="M105.345 99.3013C103.795 99.3013 102.308 99.9159 101.212 101.01C100.115 102.104 99.4994 103.588 99.4994 105.135C99.4994 106.682 100.115 108.166 101.212 109.26C102.308 110.354 103.795 110.969 105.345 110.969C106.895 110.969 108.382 110.354 109.479 109.26C110.575 108.166 111.191 106.682 111.191 105.135C111.191 103.588 110.575 102.104 109.479 101.01C108.382 99.9159 106.895 99.3013 105.345 99.3013V99.3013Z" fill="#EE3E54"/>
<path d="M105.355 101.468C107.379 101.468 109.025 103.111 109.025 105.135C109.025 107.16 107.379 108.803 105.355 108.803C103.326 108.803 101.675 107.16 101.675 105.135C101.675 103.111 103.326 101.468 105.355 101.468ZM105.355 97.8C101.298 97.8 98 101.091 98 105.135C98 109.179 101.298 112.47 105.355 112.47C109.402 112.47 112.7 109.179 112.7 105.135C112.7 101.091 109.407 97.8 105.355 97.8Z" fill="#472B29"/>
<path d="M124.95 99.3013C123.4 99.3013 121.913 99.9159 120.817 101.01C119.72 102.104 119.104 103.588 119.104 105.135C119.104 106.682 119.72 108.166 120.817 109.26C121.913 110.354 123.4 110.969 124.95 110.969C126.5 110.969 127.987 110.354 129.084 109.26C130.18 108.166 130.796 106.682 130.796 105.135C130.796 103.588 130.18 102.104 129.084 101.01C127.987 99.9159 126.5 99.3013 124.95 99.3013V99.3013Z" fill="#F1BC19"/>
<path d="M124.95 101.468C126.979 101.468 128.625 103.111 128.625 105.135C128.625 107.16 126.979 108.803 124.95 108.803C122.921 108.803 121.275 107.16 121.275 105.135C121.275 103.111 122.921 101.468 124.95 101.468ZM124.95 97.8C120.898 97.8 117.6 101.091 117.6 105.135C117.6 109.179 120.898 112.47 124.95 112.47C128.997 112.47 132.3 109.179 132.3 105.135C132.3 101.091 129.002 97.8 124.95 97.8Z" fill="#472B29"/>
<path d="M144.555 99.3013C143.004 99.3013 141.518 99.9159 140.421 101.01C139.325 102.104 138.709 103.588 138.709 105.135C138.709 106.682 139.325 108.166 140.421 109.26C141.518 110.354 143.004 110.969 144.555 110.969C146.105 110.969 147.592 110.354 148.688 109.26C149.785 108.166 150.401 106.682 150.401 105.135C150.401 103.588 149.785 102.104 148.688 101.01C147.592 99.9159 146.105 99.3013 144.555 99.3013V99.3013Z" fill="#88AE45"/>
<path d="M144.555 101.468C146.579 101.468 148.225 103.111 148.225 105.135C148.225 107.16 146.579 108.803 144.555 108.803C142.526 108.803 140.875 107.16 140.875 105.135C140.875 103.111 142.526 101.468 144.555 101.468ZM144.555 97.8C140.498 97.8 137.2 101.091 137.2 105.135C137.2 109.179 140.498 112.47 144.555 112.47C148.607 112.47 151.9 109.179 151.9 105.135C151.9 101.091 148.607 97.8 144.555 97.8Z" fill="#472B29"/>
<path d="M179.463 259.17C178.448 259.17 177.625 258.348 177.625 257.336V128.974C177.625 127.962 178.448 127.14 179.463 127.14C180.477 127.14 181.3 127.962 181.3 128.974V257.336C181.3 258.348 180.477 259.17 179.463 259.17ZM105.963 259.17C104.948 259.17 104.125 258.348 104.125 257.336V128.974C104.125 127.962 104.948 127.14 105.963 127.14C106.977 127.14 107.8 127.962 107.8 128.974V257.336C107.8 258.348 106.977 259.17 105.963 259.17Z" fill="#472B29"/>
<path d="M96.1625 136.92H90.0375C89.0232 136.92 88.2 136.098 88.2 135.086C88.2 134.074 89.0232 133.252 90.0375 133.252H96.1625C97.1768 133.252 98 134.074 98 135.086C98 136.098 97.1768 136.92 96.1625 136.92ZM96.1625 146.7H90.0375C89.0232 146.7 88.2 145.878 88.2 144.866C88.2 143.854 89.0232 143.032 90.0375 143.032H96.1625C97.1768 143.032 98 143.854 98 144.866C98 145.878 97.1768 146.7 96.1625 146.7ZM96.1625 156.48H90.0375C89.0232 156.48 88.2 155.658 88.2 154.646C88.2 153.634 89.0232 152.812 90.0375 152.812H96.1625C97.1768 152.812 98 153.634 98 154.646C98 155.658 97.1768 156.48 96.1625 156.48ZM96.1625 166.26H90.0375C89.0232 166.26 88.2 165.438 88.2 164.426C88.2 163.414 89.0232 162.592 90.0375 162.592H96.1625C97.1768 162.592 98 163.414 98 164.426C98 165.438 97.1768 166.26 96.1625 166.26ZM96.1625 176.04H90.0375C89.0232 176.04 88.2 175.218 88.2 174.206C88.2 173.194 89.0232 172.372 90.0375 172.372H96.1625C97.1768 172.372 98 173.194 98 174.206C98 175.218 97.1768 176.04 96.1625 176.04ZM96.1625 185.82H90.0375C89.0232 185.82 88.2 184.998 88.2 183.986C88.2 182.974 89.0232 182.152 90.0375 182.152H96.1625C97.1768 182.152 98 182.974 98 183.986C98 184.998 97.1768 185.82 96.1625 185.82ZM96.1625 195.6H90.0375C89.0232 195.6 88.2 194.778 88.2 193.766C88.2 192.754 89.0232 191.932 90.0375 191.932H96.1625C97.1768 191.932 98 192.754 98 193.766C98 194.778 97.1768 195.6 96.1625 195.6ZM96.1625 205.38H90.0375C89.0232 205.38 88.2 204.558 88.2 203.546C88.2 202.534 89.0232 201.712 90.0375 201.712H96.1625C97.1768 201.712 98 202.534 98 203.546C98 204.558 97.1768 205.38 96.1625 205.38ZM96.1625 215.16H90.0375C89.0232 215.16 88.2 214.338 88.2 213.326C88.2 212.314 89.0232 211.492 90.0375 211.492H96.1625C97.1768 211.492 98 212.314 98 213.326C98 214.338 97.1768 215.16 96.1625 215.16ZM96.1625 224.94H90.0375C89.0232 224.94 88.2 224.118 88.2 223.106C88.2 222.094 89.0232 221.272 90.0375 221.272H96.1625C97.1768 221.272 98 222.094 98 223.106C98 224.118 97.1768 224.94 96.1625 224.94ZM96.1625 234.72H90.0375C89.0232 234.72 88.2 233.898 88.2 232.886C88.2 231.874 89.0232 231.052 90.0375 231.052H96.1625C97.1768 231.052 98 231.874 98 232.886C98 233.898 97.1768 234.72 96.1625 234.72ZM96.1625 244.5H90.0375C89.0232 244.5 88.2 243.678 88.2 242.666C88.2 241.654 89.0232 240.832 90.0375 240.832H96.1625C97.1768 240.832 98 241.654 98 242.666C98 243.678 97.1768 244.5 96.1625 244.5ZM96.1625 254.28H90.0375C89.0232 254.28 88.2 253.458 88.2 252.446C88.2 251.434 89.0232 250.612 90.0375 250.612H96.1625C97.1768 250.612 98 251.434 98 252.446C98 253.458 97.1768 254.28 96.1625 254.28Z" fill="#FDFCEF"/>
<path d="M139.037 166.26C138.832 166.26 138.621 166.226 138.415 166.152C137.46 165.81 136.965 164.759 137.308 163.805L148.333 133.243C148.676 132.289 149.719 131.786 150.685 132.138C151.64 132.48 152.135 133.531 151.792 134.485L140.767 165.047C140.498 165.795 139.792 166.26 139.037 166.26ZM125.562 161.37C125.009 161.37 124.465 161.126 124.102 160.656L117.977 152.71C117.468 152.05 117.468 151.135 117.977 150.475L124.102 142.529C124.72 141.722 125.876 141.575 126.68 142.191C127.483 142.808 127.635 143.962 127.018 144.764L121.755 151.59L127.018 158.416C127.635 159.218 127.483 160.368 126.68 160.989C126.351 161.248 125.954 161.37 125.562 161.37ZM163.537 161.37C163.145 161.37 162.753 161.248 162.42 160.989C161.617 160.372 161.465 159.218 162.082 158.416L167.345 151.59L162.082 144.764C161.465 143.962 161.617 142.812 162.42 142.191C163.229 141.575 164.375 141.722 164.998 142.529L171.123 150.475C171.632 151.135 171.632 152.05 171.123 152.71L164.998 160.656C164.63 161.126 164.086 161.37 163.537 161.37Z" fill="#FDFCEF"/>
<path d="M197.838 148.534H252.963V183.986H197.838V148.534Z" fill="#C5DEF0"/>
<path d="M252.963 185.82H197.838C196.823 185.82 196 184.998 196 183.986V148.534C196 147.521 196.823 146.7 197.838 146.7H252.963C253.977 146.7 254.8 147.521 254.8 148.534V183.986C254.8 184.998 253.977 185.82 252.963 185.82ZM199.675 182.152H251.125V150.367H199.675V182.152ZM282.975 149.145H265.825C265.149 149.145 264.6 148.597 264.6 147.922C264.6 147.248 265.149 146.7 265.825 146.7H282.975C283.651 146.7 284.2 147.248 284.2 147.922C284.2 148.597 283.651 149.145 282.975 149.145ZM282.975 161.37H265.825C265.149 161.37 264.6 160.822 264.6 160.147C264.6 159.473 265.149 158.925 265.825 158.925H282.975C283.651 158.925 284.2 159.473 284.2 160.147C284.2 160.822 283.651 161.37 282.975 161.37ZM282.975 173.595H265.825C265.149 173.595 264.6 173.047 264.6 172.372C264.6 171.698 265.149 171.15 265.825 171.15H282.975C283.651 171.15 284.2 171.698 284.2 172.372C284.2 173.047 283.651 173.595 282.975 173.595ZM282.975 185.82H265.825C265.149 185.82 264.6 185.272 264.6 184.597C264.6 183.923 265.149 183.375 265.825 183.375H282.975C283.651 183.375 284.2 183.923 284.2 184.597C284.2 185.272 283.651 185.82 282.975 185.82Z" fill="#472B29"/>
<path d="M197.799 182.351L251.693 148.116L253.009 150.178L199.115 184.414L197.799 182.351Z" fill="#472B29"/>
<path d="M197.794 150.163L199.11 148.1L226.059 165.214L224.744 167.277L197.794 150.163Z" fill="#472B29"/>
<path d="M252.35 184.597C252.125 184.597 251.894 184.534 251.693 184.407L234.367 173.404C233.799 173.042 233.627 172.284 233.99 171.717C234.357 171.145 235.122 170.989 235.68 171.341L253.007 182.343C253.575 182.705 253.746 183.463 253.384 184.03C253.149 184.397 252.757 184.597 252.35 184.597Z" fill="#472B29"/>
<path d="M227.238 207.214H282.362V242.666H227.238V207.214Z" fill="#C5DEF0"/>
<path d="M282.363 244.5H227.237C226.223 244.5 225.4 243.679 225.4 242.666V207.214C225.4 206.202 226.223 205.38 227.237 205.38H282.363C283.377 205.38 284.2 206.202 284.2 207.214V242.666C284.2 243.679 283.377 244.5 282.363 244.5ZM229.075 240.833H280.525V209.048H229.075V240.833Z" fill="#472B29"/>
<path d="M227.2 241.033L281.094 206.798L282.41 208.861L228.516 243.096L227.2 241.033Z" fill="#472B29"/>
<path d="M227.196 208.836L228.512 206.773L255.461 223.888L254.145 225.951L227.196 208.836Z" fill="#472B29"/>
<path d="M281.75 243.278C281.525 243.278 281.294 243.214 281.093 243.087L263.767 232.084C263.199 231.722 263.027 230.965 263.39 230.397C263.757 229.83 264.517 229.664 265.08 230.021L282.407 241.023C282.975 241.385 283.146 242.143 282.784 242.71C282.549 243.077 282.157 243.278 281.75 243.278ZM214.375 207.825H197.225C196.549 207.825 196 207.277 196 206.603C196 205.928 196.549 205.38 197.225 205.38H214.375C215.051 205.38 215.6 205.928 215.6 206.603C215.6 207.277 215.051 207.825 214.375 207.825ZM214.375 220.05H197.225C196.549 220.05 196 219.502 196 218.828C196 218.153 196.549 217.605 197.225 217.605H214.375C215.051 217.605 215.6 218.153 215.6 218.828C215.6 219.502 215.051 220.05 214.375 220.05ZM214.375 232.275H197.225C196.549 232.275 196 231.727 196 231.053C196 230.378 196.549 229.83 197.225 229.83H214.375C215.051 229.83 215.6 230.378 215.6 231.053C215.6 231.727 215.051 232.275 214.375 232.275ZM214.375 244.5H197.225C196.549 244.5 196 243.952 196 243.278C196 242.603 196.549 242.055 197.225 242.055H214.375C215.051 242.055 215.6 242.603 215.6 243.278C215.6 243.952 215.051 244.5 214.375 244.5Z" fill="#472B29"/>
</svg>
