<?xml version="1.0" encoding="UTF-8" standalone="no"?>
<svg
   xmlns:svg="http://www.w3.org/2000/svg"
   xmlns="http://www.w3.org/2000/svg"
   xmlns:sodipodi="http://sodipodi.sourceforge.net/DTD/sodipodi-0.dtd"
   xmlns:inkscape="http://www.inkscape.org/namespaces/inkscape"
   inkscape:version="1.1-dev (1:0.92.0+devel+202005110039+9ce7266)"
   sodipodi:docname="chat_share_run.svg"
   viewBox="0 0 1000 666.66669"
   height="666.66669"
   width="1000"
   xml:space="preserve"
   id="svg2"
   version="1.1"><defs
     id="defs6"><clipPath
       id="clipPath18"
       clipPathUnits="userSpaceOnUse"><path
         id="path16"
         d="M 0,500 H 750 V 0 H 0 Z" /></clipPath><clipPath
       id="clipPath174"
       clipPathUnits="userSpaceOnUse"><path
         id="path172"
         d="m 346.186,208.168 c -9.356,-3.623 -19.854,-10.563 -30.015,-23.736 v 0 C 296.316,158.668 285.576,121.1 287.734,109.554 v 0 c 0.112,-0.595 0.241,-1.159 0.418,-1.69 v 0 c 3.044,-9.935 15.797,-10.724 47.615,-10.724 v 0 h 76.891 c 0,0 33.687,-2.334 41.464,11.883 v 0 c 0.853,1.563 1.514,3.302 1.981,5.201 v 0 0.018 c 3.848,15.425 -4.622,41.237 -21.835,63.218 v 0 c -14.075,17.987 -23.462,28.131 -41.4,32.334 v 0 c -6.683,1.561 -14.558,2.286 -24.315,2.286 v 0 c -5.54,0 -13.43,-0.45 -22.367,-3.912" /></clipPath><linearGradient
       id="linearGradient184"
       spreadMethod="pad"
       gradientTransform="matrix(0,96.884468,96.884468,0,372.23962,103.46858)"
       gradientUnits="userSpaceOnUse"
       y2="0"
       x2="1"
       y1="0"
       x1="0"><stop
         id="stop180"
         offset="0"
         style="stop-opacity:1;stop-color:#1f3a65" /><stop
         id="stop182"
         offset="1"
         style="stop-opacity:1;stop-color:#294a7a" /></linearGradient><clipPath
       id="clipPath194"
       clipPathUnits="userSpaceOnUse"><path
         id="path192"
         d="M 0,500 H 750 V 0 H 0 Z" /></clipPath><clipPath
       id="clipPath202"
       clipPathUnits="userSpaceOnUse"><path
         id="path200"
         d="M 320.872,173.166 H 426.211 V 101.679 H 320.872 Z" /></clipPath><clipPath
       id="clipPath218"
       clipPathUnits="userSpaceOnUse"><path
         id="path216"
         d="m 298.12,126.334 c -9.517,-2.447 -11.627,-10.661 -9.968,-18.47 v 0 c 3.044,-9.935 15.797,-10.724 47.615,-10.724 v 0 h 4.171 l -0.949,17.922 c 0,0 -20.442,11.896 -35.466,11.895 v 0 c -1.905,0 -3.725,-0.192 -5.403,-0.623" /></clipPath><linearGradient
       id="linearGradient228"
       spreadMethod="pad"
       gradientTransform="matrix(0,26.045017,26.045017,0,313.78845,95.954033)"
       gradientUnits="userSpaceOnUse"
       y2="0"
       x2="1"
       y1="0"
       x1="0"><stop
         id="stop224"
         offset="0"
         style="stop-opacity:1;stop-color:#1f3a65" /><stop
         id="stop226"
         offset="1"
         style="stop-opacity:1;stop-color:#294a7a" /></linearGradient><clipPath
       id="clipPath238"
       clipPathUnits="userSpaceOnUse"><path
         id="path236"
         d="M 392.739,116.463 389.84,97.14 h 22.818 c 0,0 33.687,-2.334 41.464,11.883 v 0 c 0.853,1.563 1.514,3.302 1.981,5.201 v 0 c 0.016,0.018 0,0.018 0,0.018 v 0 c 0.838,6.327 -1.337,12.253 -8.422,15.103 v 0 c -1.957,0.789 -4.386,1.131 -7.125,1.131 v 0 c -17.551,-0.001 -47.817,-14.013 -47.817,-14.013" /></clipPath><linearGradient
       id="linearGradient248"
       spreadMethod="pad"
       gradientTransform="matrix(0,26.045017,26.045017,0,423.05646,95.954033)"
       gradientUnits="userSpaceOnUse"
       y2="0"
       x2="1"
       y1="0"
       x1="0"><stop
         id="stop244"
         offset="0"
         style="stop-opacity:1;stop-color:#1f3a65" /><stop
         id="stop246"
         offset="1"
         style="stop-opacity:1;stop-color:#294a7a" /></linearGradient><clipPath
       id="clipPath258"
       clipPathUnits="userSpaceOnUse"><path
         id="path256"
         d="M 0,500 H 750 V 0 H 0 Z" /></clipPath><clipPath
       id="clipPath274"
       clipPathUnits="userSpaceOnUse"><path
         id="path272"
         d="m 331.727,157.139 c -2.416,0 -4.284,-2.174 -3.914,-4.574 v 0 l 7.552,-48.984 h 75.087 l 7.632,47.262 v 0.015 l 0.275,1.675 c 0.386,2.416 -1.466,4.606 -3.914,4.606 v 0 z" /></clipPath><linearGradient
       id="linearGradient284"
       spreadMethod="pad"
       gradientTransform="matrix(-33.815502,53.675404,53.675404,33.815502,391.5076,105.74193)"
       gradientUnits="userSpaceOnUse"
       y2="0"
       x2="1"
       y1="0"
       x1="0"><stop
         id="stop280"
         offset="0"
         style="stop-opacity:1;stop-color:#3855e1" /><stop
         id="stop282"
         offset="1"
         style="stop-opacity:1;stop-color:#5c7ef7" /></linearGradient><clipPath
       id="clipPath294"
       clipPathUnits="userSpaceOnUse"><path
         id="path292"
         d="M 0,500 H 750 V 0 H 0 Z" /></clipPath><clipPath
       id="clipPath326"
       clipPathUnits="userSpaceOnUse"><path
         id="path324"
         d="m 352.138,280.114 c -10.332,-3.489 -8.587,-13.016 -8.587,-13.016 v 0 c 0,0 -4.697,2.683 -8.186,-4.294 v 0 c -3.488,-6.978 3.922,-21.473 3.922,-21.473 v 0 c 0.94,1.341 2.412,1.394 2.412,1.394 v 0 c 3.429,-9.865 4.501,-13.34 4.501,-13.34 v 0 c 2.953,4.226 1.914,13.022 1.914,13.022 v 0 c 6.18,-2.548 11.628,-2.152 16.236,1.611 v 0 c 6.911,-4.764 7.984,1.945 7.984,1.945 v 0 c 4.495,-6.776 11.66,-5.371 11.66,-5.371 v 0 c 1.074,-8.723 4.388,-9.391 4.388,-9.391 v 0 c 1.811,5.233 3.266,13.501 3.266,13.501 v 0 c 2.13,-0.201 2.633,-1.096 2.633,-1.096 v 0 c 7.65,21.604 -5.24,22.015 -5.24,22.015 v 0 c -4.831,19.189 -22.678,17.311 -22.678,17.311 v 0 c 0,0 -0.671,3.489 -2.282,4.428 v 0 c -0.141,0.083 -0.271,0.122 -0.396,0.122 v 0 c -1.294,0 -2.124,-4.187 -11.547,-7.368" /></clipPath><linearGradient
       id="linearGradient336"
       spreadMethod="pad"
       gradientTransform="matrix(-1.0808939,42.154861,42.154861,1.0808939,366.07516,237.02507)"
       gradientUnits="userSpaceOnUse"
       y2="0"
       x2="1"
       y1="0"
       x1="0"><stop
         id="stop332"
         offset="0"
         style="stop-opacity:1;stop-color:#3f2323" /><stop
         id="stop334"
         offset="1"
         style="stop-opacity:1;stop-color:#5e3434" /></linearGradient><clipPath
       id="clipPath346"
       clipPathUnits="userSpaceOnUse"><path
         id="path344"
         d="M 0,500 H 750 V 0 H 0 Z" /></clipPath><clipPath
       id="clipPath354"
       clipPathUnits="userSpaceOnUse"><path
         id="path352"
         d="m 251.281,224.606 h 75.385 v -59.257 h -75.385 z" /></clipPath><clipPath
       id="clipPath370"
       clipPathUnits="userSpaceOnUse"><path
         id="path368"
         d="m 259.579,215.955 h 55.965 V 185.06 h -55.965 z" /></clipPath><clipPath
       id="clipPath406"
       clipPathUnits="userSpaceOnUse"><path
         id="path404"
         d="m 500.578,122.963 v -18.116 c 0,-4.224 3.425,-7.649 7.649,-7.649 v 0 h 5.636 c 4.225,0 7.648,3.425 7.648,7.649 v 0 18.116 z" /></clipPath><linearGradient
       id="linearGradient416"
       spreadMethod="pad"
       gradientTransform="matrix(20.933407,0,0,-20.933407,500.57849,110.08069)"
       gradientUnits="userSpaceOnUse"
       y2="0"
       x2="1"
       y1="0"
       x1="0"><stop
         id="stop412"
         offset="0"
         style="stop-opacity:1;stop-color:#1f3a65" /><stop
         id="stop414"
         offset="1"
         style="stop-opacity:1;stop-color:#294a7a" /></linearGradient><clipPath
       id="clipPath426"
       clipPathUnits="userSpaceOnUse"><path
         id="path424"
         d="m 514.869,154.966 v -0.754 c 0,-0.917 -0.743,-1.66 -1.66,-1.66 v 0 h -9.007 c -4.67,0 -8.454,-3.786 -8.454,-8.454 v 0 c 0,-4.669 3.784,-8.455 8.454,-8.455 v 0 h 6.793 c 0.917,0 1.66,-0.743 1.66,-1.66 v 0 -2.114 c 0,-0.917 -0.743,-1.66 -1.66,-1.66 v 0 h -2.113 c -0.918,0 -1.661,-0.743 -1.661,-1.66 v 0 -5.586 h 6.844 v 2.365 c 0,0.917 0.742,1.66 1.659,1.66 v 0 c 3.197,0 5.787,2.591 5.787,5.787 v 0 3.624 c 0,3.195 -2.59,5.787 -5.787,5.787 v 0 h -8.654 c -0.918,0 -1.661,0.743 -1.661,1.66 v 0 c 0,0.916 0.743,1.661 1.661,1.661 v 0 h 15.851 c 5.224,0 9.46,4.235 9.46,9.459 v 0 c 0,4.837 -3.92,8.757 -8.756,8.757 v 0 c -4.835,0 -8.756,-3.92 -8.756,-8.757" /></clipPath><linearGradient
       id="linearGradient436"
       spreadMethod="pad"
       gradientTransform="matrix(-26.569323,-52.736084,-52.736084,26.569323,530.47357,181.98192)"
       gradientUnits="userSpaceOnUse"
       y2="0"
       x2="1"
       y1="0"
       x1="0"><stop
         id="stop432"
         offset="0"
         style="stop-opacity:1;stop-color:#e2e8f7" /><stop
         id="stop434"
         offset="1"
         style="stop-opacity:1;stop-color:#ffffff" /></linearGradient><clipPath
       id="clipPath446"
       clipPathUnits="userSpaceOnUse"><path
         id="path444"
         d="M 0,500 H 750 V 0 H 0 Z" /></clipPath><clipPath
       id="clipPath454"
       clipPathUnits="userSpaceOnUse"><path
         id="path452"
         d="m 433.378,229.693 h 62.599 v -77.092 h -62.599 z" /></clipPath><clipPath
       id="clipPath474"
       clipPathUnits="userSpaceOnUse"><path
         id="path472"
         d="m 442.771,219.652 h 44.551 v -14.626 h -44.551 z" /></clipPath><clipPath
       id="clipPath478"
       clipPathUnits="userSpaceOnUse"><path
         id="path476"
         d="m 442.771,219.652 h 12.212 v -14.626 h -12.212 z" /></clipPath><clipPath
       id="clipPath512"
       clipPathUnits="userSpaceOnUse"><path
         id="path510"
         d="m 442.771,197.243 h 44.551 v -14.626 h -44.551 z" /></clipPath><clipPath
       id="clipPath516"
       clipPathUnits="userSpaceOnUse"><path
         id="path514"
         d="m 442.771,197.243 h 12.212 v -14.626 h -12.212 z" /></clipPath><clipPath
       id="clipPath550"
       clipPathUnits="userSpaceOnUse"><path
         id="path548"
         d="m 442.771,174.833 h 44.551 v -14.626 h -44.551 z" /></clipPath><clipPath
       id="clipPath554"
       clipPathUnits="userSpaceOnUse"><path
         id="path552"
         d="m 442.771,174.833 h 12.212 v -14.626 h -12.212 z" /></clipPath><clipPath
       id="clipPath588"
       clipPathUnits="userSpaceOnUse"><path
         id="path586"
         d="m 626.415,335.885 h 62.599 v -77.091 h -62.599 z" /></clipPath><clipPath
       id="clipPath608"
       clipPathUnits="userSpaceOnUse"><path
         id="path606"
         d="m 633.898,328.035 h 45.758 v -60.854 h -45.758 z" /></clipPath><clipPath
       id="clipPath612"
       clipPathUnits="userSpaceOnUse"><path
         id="path610"
         d="m 646.109,328.035 h 13.446 v -12.748 h -13.446 z" /></clipPath><clipPath
       id="clipPath664"
       clipPathUnits="userSpaceOnUse"><path
         id="path662"
         d="M 156.431,371.39 H 219.03 V 281.416 H 156.431 Z" /></clipPath><clipPath
       id="clipPath728"
       clipPathUnits="userSpaceOnUse"><path
         id="path726"
         d="M 376.415,360.269 H 490.341 V 280.158 H 376.415 Z" /></clipPath><clipPath
       id="clipPath748"
       clipPathUnits="userSpaceOnUse"><path
         id="path746"
         d="m 387.788,349.802 h 61.592 v -5.837 h -61.592 z" /></clipPath><clipPath
       id="clipPath764"
       clipPathUnits="userSpaceOnUse"><path
         id="path762"
         d="M 387.788,333.699 H 449.38 V 301.092 H 387.788 Z" /></clipPath><clipPath
       id="clipPath780"
       clipPathUnits="userSpaceOnUse"><path
         id="path778"
         d="m 456.626,349.802 h 22.343 v -5.837 h -22.343 z" /></clipPath><clipPath
       id="clipPath796"
       clipPathUnits="userSpaceOnUse"><path
         id="path794"
         d="m 458.002,332.089 h 20.967 v -3.623 h -20.967 z" /></clipPath><clipPath
       id="clipPath812"
       clipPathUnits="userSpaceOnUse"><path
         id="path810"
         d="m 458.002,323.904 h 20.967 v -3.623 h -20.967 z" /></clipPath><clipPath
       id="clipPath828"
       clipPathUnits="userSpaceOnUse"><path
         id="path826"
         d="m 458.002,315.718 h 20.967 v -3.623 h -20.967 z" /></clipPath><clipPath
       id="clipPath844"
       clipPathUnits="userSpaceOnUse"><path
         id="path842"
         d="m 458.002,307.533 h 20.967 v -3.623 h -20.967 z" /></clipPath><clipPath
       id="clipPath860"
       clipPathUnits="userSpaceOnUse"><path
         id="path858"
         d="m 398.758,293.174 h 69.039 v -4.83 h -69.039 z" /></clipPath><clipPath
       id="clipPath876"
       clipPathUnits="userSpaceOnUse"><path
         id="path874"
         d="M 60.0623,266.61 H 166.071 V 198.174 H 60.0623 Z" /></clipPath><clipPath
       id="clipPath896"
       clipPathUnits="userSpaceOnUse"><path
         id="path894"
         d="M 74.2206,258.334 H 151.913 V 207.836 H 74.2206 Z" /></clipPath><clipPath
       id="clipPath900"
       clipPathUnits="userSpaceOnUse"><path
         id="path898"
         d="M 92.4058,256.711 H 104.016 V 237.525 H 92.4058 Z" /></clipPath><clipPath
       id="clipPath904"
       clipPathUnits="userSpaceOnUse"><path
         id="path902"
         d="m 133.663,249.971 h 4.026 v -18.159 h -4.026 z" /></clipPath></defs><sodipodi:namedview
     inkscape:current-layer="g8"
     inkscape:window-maximized="1"
     inkscape:window-y="27"
     inkscape:window-x="0"
     inkscape:cy="333.33334"
     inkscape:cx="500"
     inkscape:zoom="1.119"
     showgrid="false"
     id="namedview4"
     inkscape:window-height="950"
     inkscape:window-width="1680"
     inkscape:pageshadow="2"
     inkscape:pageopacity="0"
     guidetolerance="10"
     gridtolerance="10"
     objecttolerance="10"
     borderopacity="1"
     bordercolor="#666666"
     pagecolor="#ffffff" /><g
     transform="matrix(1.3333333,0,0,-1.3333333,0,666.66667)"
     inkscape:label="3327591"
     inkscape:groupmode="layer"
     id="g8"><path
       id="path10"
       style="fill:#ffffff;fill-opacity:1;fill-rule:nonzero;stroke:none"
       d="M 1.8879173,3.1562173 H 751.88792 V 503.15622 H 1.8879173 Z" /><g
       transform="translate(0.2972,-0.8305)"
       id="g12"><g
         clip-path="url(#clipPath18)"
         id="g14"><g
           transform="translate(623.4375,215.9561)"
           id="g20"><path
             id="path22"
             style="fill:#c9e4e8;fill-opacity:1;fill-rule:nonzero;stroke:none"
             d="m 0,0 c 0.129,-18.229 -1.095,-34.942 -3.365,-49.725 -0.161,-1.111 -0.338,-2.222 -0.531,-3.3 -1.192,-7.199 -2.641,-13.913 -4.284,-20.113 -0.29,-1.063 -0.58,-2.109 -0.87,-3.14 -6.311,-22.061 -15.281,-36.972 -24.846,-42.479 h -401.809 c 0,0 -34.25,29.694 -41.126,72.108 -0.177,1.079 -0.338,2.158 -0.466,3.253 -2.674,21.11 1.626,45.151 20.128,70.159 8.438,11.384 19.532,19.307 32.27,24.765 0.998,0.419 1.98,0.822 2.995,1.208 18.888,7.391 41.077,9.71 63.363,10.064 1.127,0.016 2.255,0.033 3.382,0.033 13.268,0.096 26.505,-0.451 39.049,-0.951 1.192,-0.064 2.367,-0.112 3.542,-0.16 20.257,-0.854 38.518,-1.482 51.77,0.949 h 0.016 c 1.224,0.226 2.384,0.484 3.511,0.773 h 0.016 c 14.669,3.591 21.9,11.916 16.698,29.823 -10.08,34.733 0.242,60.191 22.704,74.249 1.144,0.724 2.335,1.417 3.543,2.077 12.706,6.892 28.76,10.499 46.923,10.45 1.273,0 2.561,-0.032 3.866,-0.064 15.442,-0.467 32.301,-3.51 49.804,-9.323 9.42,-3.124 18.196,-6.989 26.328,-11.449 0.998,-0.548 1.997,-1.111 2.963,-1.691 15.942,-9.211 29.356,-20.837 40.466,-33.976 0.757,-0.87 1.481,-1.756 2.206,-2.658 C -12.882,85.296 -0.29,39.355 0,0" /></g><g
           transform="translate(615.2578,142.8184)"
           id="g24"><path
             id="path26"
             style="fill:#ffffff;fill-opacity:1;fill-rule:nonzero;stroke:none"
             d="m 0,0 c -0.29,-1.063 -0.58,-2.109 -0.87,-3.141 -5.942,2.126 -12.19,4.848 -18.582,8.31 -29.468,16.006 -66.987,51.657 -78.356,130.688 -4.895,34.074 1.353,66.52 18.599,96.487 0.998,-0.547 1.997,-1.111 2.963,-1.69 -15.137,-26.28 -23.639,-57.696 -18.373,-94.33 C -83.444,58.693 -46.826,23.735 -18.067,8.083 -11.884,4.718 -5.797,2.061 0,0" /></g><g
           transform="translate(620.0723,166.2314)"
           id="g28"><path
             id="path30"
             style="fill:#ffffff;fill-opacity:1;fill-rule:nonzero;stroke:none"
             d="m 0,0 c -0.161,-1.111 -0.338,-2.223 -0.531,-3.301 -18.615,8.743 -42.076,27.761 -53.027,69.048 -10.579,39.982 -6.36,75.473 12.963,107.517 0.757,-0.869 1.482,-1.755 2.206,-2.657 C -56.762,139.561 -60.675,105.214 -50.434,66.568 -39.967,27.068 -17.793,8.614 0,0" /></g><g
           transform="translate(444.377,328.5137)"
           id="g32"><path
             id="path34"
             style="fill:#ffffff;fill-opacity:1;fill-rule:nonzero;stroke:none"
             d="m 0,0 c 1.562,-52.462 -4.412,-86.358 -19.372,-109.933 -15.668,-24.701 -41.802,-39.629 -84.748,-48.404 -8.003,-1.642 -15.909,-2.464 -23.671,-2.464 -24.17,0 -46.939,7.874 -66.89,23.268 -23.204,17.923 -40.965,44.911 -51.158,76.504 0.998,0.419 1.981,0.821 2.995,1.208 9.984,-31.063 27.39,-57.6 50.144,-75.167 25.571,-19.758 55.989,-26.731 87.936,-20.209 79.868,16.343 104.538,54.04 101.543,155.1 -0.853,28.695 4.155,51.335 14.895,67.583 1.272,0 2.56,-0.032 3.865,-0.065 C 4.363,51.641 -0.854,29.033 0,0" /></g><g
           transform="translate(344.7173,219.9492)"
           id="g36"><path
             id="path38"
             style="fill:#ffffff;fill-opacity:1;fill-rule:nonzero;stroke:none"
             d="m 0,0 c -3.317,-0.547 -6.747,-0.837 -10.241,-0.837 -25.748,0 -55.232,15.604 -69.579,59.644 1.127,0.016 2.254,0.032 3.381,0.032 15.813,-47.276 49.709,-59.966 75.908,-55.666 35.394,5.797 69.435,42.237 62.848,98.354 -2.834,24.074 -2.962,44.621 -1.449,61.995 1.143,0.725 2.335,1.417 3.543,2.078 -1.755,-17.697 -1.82,-38.791 1.111,-63.702 C 72.333,43.799 36.843,6.039 0,0" /></g><g
           transform="translate(366.166,279.4004)"
           id="g40"><path
             id="path42"
             style="fill:#ffffff;fill-opacity:1;fill-rule:nonzero;stroke:none"
             d="m 0,0 c -1.24,-5.652 -3.414,-11.417 -7.133,-16.264 -4.944,-6.473 -11.884,-10.305 -20.628,-11.384 -1.047,-0.129 -2.077,-0.193 -3.092,-0.193 -5.426,0 -10.402,1.851 -14.814,5.555 -5.829,4.895 -10.08,12.495 -13.172,20.724 1.192,-0.064 2.367,-0.113 3.543,-0.161 2.866,-7.278 6.666,-13.864 11.706,-18.099 4.509,-3.784 9.71,-5.346 15.427,-4.638 7.858,0.966 14.057,4.38 18.47,10.129 3.059,3.993 4.991,8.776 6.167,13.558 H -3.51 C -2.287,-0.547 -1.127,-0.29 0,0" /></g><g
           transform="translate(241.1294,97.1992)"
           id="g44"><path
             id="path46"
             style="fill:#ffffff;fill-opacity:1;fill-rule:nonzero;stroke:none"
             d="m 0,0 h -3.51 c -14.445,33.075 -35.265,55.119 -61.963,65.57 -9.694,3.8 -19.533,5.781 -29.049,6.537 -0.178,1.08 -0.339,2.159 -0.467,3.253 10.031,-0.724 20.434,-2.786 30.691,-6.795 C -36.424,57.647 -14.814,34.621 0,0" /></g><g
           transform="translate(463.0078,37.5146)"
           id="g48"><path
             id="path50"
             style="fill:#ffffff;fill-opacity:1;fill-rule:nonzero;stroke:none"
             d="M 0,0 Z" /></g><g
           transform="translate(463.0078,37.5146)"
           id="g52"><path
             id="path54"
             style="fill:none;stroke:#0f22d3;stroke-width:1.61;stroke-linecap:butt;stroke-linejoin:miter;stroke-miterlimit:10;stroke-dasharray:none;stroke-opacity:1"
             d="M 0,0 Z" /></g><g
           transform="translate(171.4297,196.8799)"
           id="g56"><path
             id="path58"
             style="fill:#70b7c2;fill-opacity:1;fill-rule:nonzero;stroke:none"
             d="m 0,0 -9.951,-10.258 -4.155,6.104 -1.385,2.045 c -4.428,-1.112 -10.966,7.551 -13.59,12.172 -2.609,4.638 7.858,11.788 7.858,11.788 -1.707,5.121 -8.567,8.341 -8.76,9.758 -0.193,1.401 1.514,2.914 7.745,0 6.248,-2.93 11.675,-13.285 11.675,-13.285 1.111,3.012 -3.816,11.159 -2.915,12.077 0.902,0.903 5.733,-0.209 9.453,-8.05 3.735,-7.859 1.513,-17.118 1.513,-17.118 l 0.049,-0.081 z" /></g><g
           transform="translate(149.8374,219.6328)"
           id="g60"><path
             id="path62"
             style="fill:#a6d2d9;fill-opacity:1;fill-rule:nonzero;stroke:none"
             d="m 0,0 c 0,0 7.395,-8.458 6.597,-11.779 -0.797,-3.322 -4.521,0.533 -4.521,0.533 0,0 3.422,-3.955 2.315,-5.264 -1.107,-1.307 -5.234,2.014 -5.234,2.014 0,0 4.932,-6.14 0,-5.233 -4.931,0.905 -11.125,10.206 -6.367,11.141 0,0 -0.577,6.773 3.751,4.457 0,0 -1.938,5.645 3.459,4.131" /></g><g
           transform="translate(239.6836,97.1396)"
           id="g64"><path
             id="path66"
             style="fill:#94c9d1;fill-opacity:1;fill-rule:nonzero;stroke:none"
             d="m 0,0 c 0,0 8.325,24.315 3.945,48.292 0,0 -0.016,0.049 -0.032,0.161 0,0.048 -0.017,0.113 -0.033,0.193 -0.128,0.628 -0.257,1.256 -0.386,1.884 0,0 -4.83,-4.218 -11.497,-8.405 -8.003,-5.04 -18.679,-10.048 -26.875,-7.697 -15.04,4.3 -37.037,33.542 -47.246,56.633 0,0 5.105,7.649 15.298,10 0,0 20.402,-27.182 38.389,-33.623 0,0 9.661,11.545 17.165,28.454 4.799,10.789 11.997,17.616 21.078,21.287 5.153,2.11 10.918,3.188 17.182,3.382 l 15.764,7.359 c 0,0 2.561,-0.017 6.538,-0.531 7.391,-0.967 19.677,-3.672 29.613,-11.241 C 94.2,104.49 116.212,0 116.212,0 Z" /></g><g
           transform="translate(243.5962,145.5928)"
           id="g68"><path
             id="path70"
             style="fill:#70b7c2;fill-opacity:1;fill-rule:nonzero;stroke:none"
             d="m 0,0 c -0.128,0.692 -0.273,1.385 -0.418,2.077 0,0 -4.831,-4.219 -11.498,-8.405 l 4.654,39.806 C -2.528,15.249 -0.257,1.626 0,0" /></g><g
           transform="translate(288.9736,224.5283)"
           id="g72"><path
             id="path74"
             style="fill:#ced9ea;fill-opacity:1;fill-rule:nonzero;stroke:none"
             d="m 0,0 c -2.432,-15.459 -17.906,-29.742 -29.082,-29.549 -8.985,0.161 -10.305,13.043 -10.402,19.339 5.153,2.11 10.918,3.189 17.182,3.382 l 15.764,7.359 c 0,0 2.56,-0.016 6.538,-0.531" /></g><g
           transform="translate(262.2231,112.9395)"
           id="g76"><path
             id="path78"
             style="fill:#70b7c2;fill-opacity:1;fill-rule:nonzero;stroke:none"
             d="M 0,0 C 0,0 35.502,36.944 37.045,75.792 L 47.512,43.05 43.486,8.962 Z" /></g><g
           transform="translate(261.1924,97.1484)"
           id="g80"><path
             id="path82"
             style="fill:#70b7c2;fill-opacity:1;fill-rule:nonzero;stroke:none"
             d="m 0,0 h -39.753 c 0,0 0.101,5.435 6.24,7.246 6.138,1.812 10.064,9.46 28.481,8.453 z" /></g><g
           transform="translate(301.8643,133.6826)"
           id="g84"><path
             id="path86"
             style="fill:#94c9d1;fill-opacity:1;fill-rule:nonzero;stroke:none"
             d="m 0,0 c 0,0 -18.729,-10.771 -48.22,-18.419 0,0 -4.093,-9.863 3.087,-18.115 h 57.057 z" /></g><g
           transform="translate(232.127,246.5908)"
           id="g88"><path
             id="path90"
             style="fill:#3d848f;fill-opacity:1;fill-rule:nonzero;stroke:none"
             d="m 0,0 c 0,0 -8.478,11.702 -7.435,19.581 1.042,7.878 8.336,6.028 8.336,6.028 0,0 -0.339,19.145 17.383,14.25 0,0 -0.39,5.846 3.48,5.694 3.869,-0.151 9.938,-9.053 9.938,-9.053 0,0 1.506,6.595 4.127,5.039 2.621,-1.557 3.429,-8.363 8.903,-11.639 5.474,-3.275 8.86,-7.516 4.562,-20.799 -4.297,-13.284 -1.073,-14.224 -2.608,-21.044 -1.457,-6.478 -2.623,-10.417 -6.643,-10.782 -4.02,-0.364 -19.41,15.872 -19.41,15.872 z" /></g><g
           transform="translate(282.436,225.0596)"
           id="g92"><path
             id="path94"
             style="fill:#94c9d1;fill-opacity:1;fill-rule:nonzero;stroke:none"
             d="m 0,0 c 0,0 -9.871,-23.945 -20.241,-22.142 -5.153,0.903 -6.296,4.042 -6.344,7.681 -0.049,4.751 1.803,10.322 -0.999,12.657 l 12.431,17.664 2.738,3.898 c 0,0 3.349,-9.695 12.415,-19.758" /></g><g
           transform="translate(255.8506,210.5986)"
           id="g96"><path
             id="path98"
             style="fill:#799cbf;fill-opacity:1;fill-rule:nonzero;stroke:none"
             d="m 0,0 c -0.048,4.751 1.803,10.322 -0.999,12.657 l 12.432,17.664 c 1.063,-1.239 1.819,-3.445 2.125,-6.907 C 15.201,5.17 5.555,0.935 0,0" /></g><g
           transform="translate(230.9194,255.9009)"
           id="g100"><path
             id="path102"
             style="fill:#94c9d1;fill-opacity:1;fill-rule:nonzero;stroke:none"
             d="m 0,0 c 0,0 3.36,-30.844 15.947,-37.787 10.938,-6.034 24.222,12.216 23.956,21.244 0,0 4.767,3.64 3.972,9.534 -0.795,5.893 -7.028,3.939 -7.774,-5.559 0,0 -5.067,0.361 -6.004,12.233 -3.181,-2.634 -6.614,-1.823 -10.221,1.381 0,0 -1.789,-6.607 -10.998,1.115 C 8.878,2.161 5.404,-2.557 0,0" /></g><g
           transform="translate(527.792,136.3984)"
           id="g104"><path
             id="path106"
             style="fill:#3d848f;fill-opacity:1;fill-rule:nonzero;stroke:none"
             d="m 0,0 c 0,0 16.245,-27.106 21.872,-40.257 h -57.285 c 0,0 -3.264,15.845 -9.004,31.07 z" /></g><g
           transform="translate(505.4492,130.3594)"
           id="g108"><path
             id="path110"
             style="fill:#4da5b3;fill-opacity:1;fill-rule:nonzero;stroke:none"
             d="m 0,0 c -3.135,-10.388 -7.915,-19.258 -15.007,-25.994 l 1.937,-8.224 -69.323,0.856 7.717,47.452 z" /></g><g
           transform="translate(614.1953,278.2891)"
           id="g112"><path
             id="path114"
             style="fill:#70b7c2;fill-opacity:1;fill-rule:nonzero;stroke:none"
             d="M 0,0 C 0,0 2.295,14.372 6.857,19.471 11.42,24.57 23.899,32.113 25.375,29.429 26.852,26.746 14.372,18.33 14.372,18.33 c 0,0 5.636,1.342 10.467,-6.977 4.83,-8.32 -10.735,-14.761 -10.735,-14.761 l -3.087,-6.978 -12.345,7.783 z" /></g><g
           transform="translate(630.1592,296.3472)"
           id="g116"><path
             id="path118"
             style="fill:#94c9d1;fill-opacity:1;fill-rule:nonzero;stroke:none"
             d="m 0,0 c 0,0 -6.956,-7.073 -5.938,-9.095 1.016,-2.021 4.85,1.156 4.85,1.156 0,0 -3.13,-4.765 -0.704,-5.992 2.426,-1.227 6.182,2.888 6.182,2.888 0,0 -3.13,-4.332 -1.33,-5.126 1.799,-0.794 11.423,5.991 9.702,7.579 -1.721,1.589 -2.66,0.29 -2.66,0.29 0,0 2.014,3.392 0,4.475 -2.193,1.179 -3.287,-0.938 -3.287,-0.938 0,0 1.644,2.598 0.314,3.609 -1.331,1.01 -4.148,-0.289 -4.148,-0.289 0,0 0.924,4.33 -2.981,1.443" /></g><g
           transform="translate(623.7031,296.5186)"
           id="g120"><path
             id="path122"
             style="fill:#70b7c2;fill-opacity:1;fill-rule:nonzero;stroke:none"
             d="m 0,0 c -2.114,0.604 -6.408,-3.791 -6.408,-3.791 -1.689,-2.172 -2.034,-6.502 -2.102,-8.499 -0.217,-5.576 -2.326,-8.543 -2.326,-8.543 l 6.265,-3.949 c 4.851,6.249 3.264,14.254 2.481,17.085 C 0.274,-4.164 1.261,-0.36 0,0" /></g><g
           transform="translate(627.7568,266.4268)"
           id="g124"><path
             id="path126"
             style="fill:#94c9d1;fill-opacity:1;fill-rule:nonzero;stroke:none"
             d="m 0,0 c 0,0 -20.934,-55.747 -54.202,-60.69 -14.878,-2.206 -26.118,-2.432 -33.976,-2.013 -9.372,0.482 -13.977,1.899 -14.315,1.996 -0.017,0 -0.017,0.017 -0.017,0.017 0,0 -9.13,-17.005 -3.22,-41.433 5.893,-24.411 8.051,-29.516 8.051,-29.516 0,0 -44.845,-32.978 -81.318,-2.947 l -32.914,51.175 -10.306,16.038 c 0,0 9.469,31.094 36.167,51.303 l 0.016,0.016 c 10.064,7.633 22.593,13.719 37.971,15.973 7.889,1.192 16.52,1.369 25.957,0.242 0,0 7.246,-2.045 19.033,-6.36 6.344,-2.319 14.01,-5.298 22.559,-8.969 24.428,-10.467 31.143,-13.591 31.143,-13.591 0,0 26.022,25.667 32.737,41.238 0,0 13.413,-1.352 16.634,-12.479" /></g><g
           transform="translate(459.8096,240.9736)"
           id="g128"><path
             id="path130"
             style="fill:#70b7c2;fill-opacity:1;fill-rule:nonzero;stroke:none"
             d="m 0,0 c -0.121,-12.494 -2.791,-24.599 -3.967,-34.001 l 20.686,4.187 32.187,-31.823 c 0,0 4.078,-9.324 -4.223,-10.934 -6.506,-1.262 -36.906,-5.491 -36.906,-5.491 -7.006,-9.535 -10.172,-24.122 -13.666,-38.276 l -30.864,53.629 z" /></g><g
           transform="translate(505.6504,237.9736)"
           id="g132"><path
             id="path134"
             style="fill:#ced9ea;fill-opacity:1;fill-rule:nonzero;stroke:none"
             d="m 0,0 c -14.412,3.655 -21.996,16.618 -25.957,28.373 7.89,1.191 16.52,1.368 25.957,0.241 0,0 7.246,-2.045 19.033,-6.36 C 20.418,11.964 19.919,-5.04 0,0" /></g><g
           transform="translate(543.4912,226.5732)"
           id="g136"><path
             id="path138"
             style="fill:#70b7c2;fill-opacity:1;fill-rule:nonzero;stroke:none"
             d="m 0,0 c 0,0 -3.091,-12.109 -3.912,-22.85 -9.372,0.483 -13.978,1.9 -14.316,1.996 -0.016,0 -0.016,0.017 -0.016,0.017 0,0 8.181,13.993 18.244,20.837" /></g><g
           transform="translate(507.5195,174.0322)"
           id="g140"><path
             id="path142"
             style="fill:#f2f4f9;fill-opacity:1;fill-rule:nonzero;stroke:none"
             d="m 0,0 -35.946,-5.218 c -1.064,-0.154 -2.051,0.583 -2.205,1.647 l -7.942,54.713 c -0.154,1.063 0.583,2.049 1.647,2.204 l 35.947,5.217 c 1.063,0.155 2.051,-0.583 2.205,-1.646 L 1.646,2.205 C 1.801,1.142 1.063,0.154 0,0" /></g><g
           transform="translate(481.3623,208.8604)"
           id="g144"><path
             id="path146"
             style="fill:#70b7c2;fill-opacity:1;fill-rule:nonzero;stroke:none"
             d="m 0,0 5.502,2.146 c 0,0 5.233,14.493 11.741,5.369 0,0 4.495,2.683 4.361,4.159 -0.134,1.476 -0.201,3.623 -0.201,3.623 0,0 9.109,-1.968 7.071,-14.671 -2.038,-12.703 -9.822,-11.093 -17.47,-11.228 l -9.527,-3.756 z" /></g><g
           transform="translate(484.9102,191.1475)"
           id="g148"><path
             id="path150"
             style="fill:#94c9d1;fill-opacity:1;fill-rule:nonzero;stroke:none"
             d="m 0,0 c 0,0 -42.865,-28.373 -61.383,-14.686 -2.818,2.093 -5.379,4.299 -7.681,6.554 L -79.37,7.906 c 0,0 9.469,31.094 36.167,51.303 l 0.015,0.016 c 8.85,3.976 18.097,2.528 18.573,-5.67 1.132,-19.529 -15.571,-31.537 -17.638,-40.4 l 38.421,7.778 c 0,0 6.247,-6.634 3.832,-20.933" /></g><g
           transform="translate(535.2979,296.3018)"
           id="g152"><path
             id="path154"
             style="fill:#3d848f;fill-opacity:1;fill-rule:nonzero;stroke:none"
             d="m 0,0 c 0,0 6.126,13.087 3.62,20.629 -2.505,7.543 -9.32,4.354 -9.32,4.354 0,0 -3.267,18.868 -19.752,10.727 0,0 -0.717,5.815 -4.489,4.938 C -33.714,39.772 -38,29.889 -38,29.889 c 0,0 -2.719,6.194 -5,4.172 -2.282,-2.021 -1.796,-8.858 -6.557,-13.105 -4.759,-4.247 -7.289,-9.048 -0.57,-21.286 6.719,-12.238 3.73,-13.769 6.52,-20.178 2.649,-6.088 4.534,-9.739 8.55,-9.341 4.018,0.399 16.079,19.239 16.079,19.239 z" /></g><g
           transform="translate(489.9346,265.6948)"
           id="g156"><path
             id="path158"
             style="fill:#94c9d1;fill-opacity:1;fill-rule:nonzero;stroke:none"
             d="m 0,0 c 0,0 9.477,-23.355 24.371,-19.531 5.066,1.302 5.096,6.744 4.459,10.327 -0.846,4.675 -3.712,9.799 -1.399,12.619 L 11.9,18.427 8.479,21.74 C 8.479,21.74 7.012,11.589 0,0" /></g><g
           transform="translate(518.7646,256.4912)"
           id="g160"><path
             id="path162"
             style="fill:#70b7c2;fill-opacity:1;fill-rule:nonzero;stroke:none"
             d="M 0,0 C -0.846,4.675 -3.712,9.799 -1.399,12.619 L -16.93,27.631 c -0.811,-1.418 -1.139,-3.727 -0.789,-7.185 C -15.901,2.219 -5.632,-0.127 0,0" /></g><g
           transform="translate(534.7334,305.6729)"
           id="g164"><path
             id="path166"
             style="fill:#94c9d1;fill-opacity:1;fill-rule:nonzero;stroke:none"
             d="m 0,0 c 0,0 2.499,-30.926 -8.558,-40.111 -9.608,-7.983 -26.088,7.444 -27.522,16.36 0,0 -5.367,2.679 -5.694,8.617 -0.328,5.938 6.161,5.19 8.68,-3.998 0,0 4.908,1.308 3.597,13.143 3.62,-1.988 6.838,-0.546 9.778,3.28 0,0 3,-6.153 10.592,3.162 0,0 4.3,-3.98 9.127,-0.453" /></g></g></g><g
       style="fill:#36737d;fill-opacity:1"
       id="g168"><g
         style="fill:#36737d;fill-opacity:1"
         clip-path="url(#clipPath174)"
         id="g170"><g
           style="fill:#36737d;fill-opacity:1"
           id="g176"><g
             style="fill:#36737d;fill-opacity:1"
             id="g178"><path
               id="path186"
               style="fill:#36737d;stroke:none;fill-opacity:1"
               d="m 346.186,208.168 c -9.356,-3.623 -19.854,-10.563 -30.015,-23.736 v 0 C 296.316,158.668 285.576,121.1 287.734,109.554 v 0 c 0.112,-0.595 0.241,-1.159 0.418,-1.69 v 0 c 3.044,-9.935 15.797,-10.724 47.615,-10.724 v 0 h 76.891 c 0,0 33.687,-2.334 41.464,11.883 v 0 c 0.853,1.563 1.514,3.302 1.981,5.201 v 0 0.018 c 3.848,15.425 -4.622,41.237 -21.835,63.218 v 0 c -14.075,17.987 -23.462,28.131 -41.4,32.334 v 0 c -6.683,1.561 -14.558,2.286 -24.315,2.286 v 0 c -5.54,0 -13.43,-0.45 -22.367,-3.912" /></g></g></g></g><g
       id="g188"><g
         clip-path="url(#clipPath194)"
         id="g190"><g
           id="g196"><g
             id="g198" /><g
             id="g210"><g
               id="g208"
               opacity="0.220001"
               clip-path="url(#clipPath202)"><g
                 id="g206"
                 transform="translate(320.8721,123.3633)"><path
                   id="path204"
                   style="fill:#1f395e;fill-opacity:1;fill-rule:nonzero;stroke:none"
                   d="m 0,0 c 8.344,13.122 10.967,31.327 13.286,49.803 l 7.246,-37.574 h 62.8 l 11.54,37.574 C 94.6,32.242 97.009,15.02 105.339,-1.457 105.339,-1.457 64.275,-47.925 0,0" /></g></g></g></g></g></g><g
       style="fill:#2e636b;fill-opacity:1"
       id="g212"><g
         style="fill:#2e636b;fill-opacity:1"
         clip-path="url(#clipPath218)"
         id="g214"><g
           style="fill:#2e636b;fill-opacity:1"
           id="g220"><g
             style="fill:#2e636b;fill-opacity:1"
             id="g222"><path
               id="path230"
               style="fill:#2e636b;stroke:none;fill-opacity:1"
               d="m 298.12,126.334 c -9.517,-2.447 -11.627,-10.661 -9.968,-18.47 v 0 c 3.044,-9.935 15.797,-10.724 47.615,-10.724 v 0 h 4.171 l -0.949,17.922 c 0,0 -20.442,11.896 -35.466,11.895 v 0 c -1.905,0 -3.725,-0.192 -5.403,-0.623" /></g></g></g></g><g
       id="g232"><g
         style="fill:#2e636b;fill-opacity:1"
         clip-path="url(#clipPath238)"
         id="g234"><g
           style="fill:#2e636b;fill-opacity:1"
           id="g240"><g
             style="fill:#2e636b;fill-opacity:1"
             id="g242"><path
               id="path250"
               style="fill:#2e636b;stroke:none;fill-opacity:1"
               d="M 392.739,116.463 389.84,97.14 h 22.818 c 0,0 33.687,-2.334 41.464,11.883 v 0 c 0.853,1.563 1.514,3.302 1.981,5.201 v 0 c 0.016,0.018 0,0.018 0,0.018 v 0 c 0.838,6.327 -1.337,12.253 -8.422,15.103 v 0 c -1.957,0.789 -4.386,1.131 -7.125,1.131 v 0 c -17.551,-0.001 -47.817,-14.013 -47.817,-14.013" /></g></g></g></g><g
       id="g252"><g
         clip-path="url(#clipPath258)"
         id="g254"><g
           transform="translate(392.8682,209.7939)"
           id="g260"><path
             id="path262"
             style="fill:#265259;fill-opacity:1;fill-rule:nonzero;stroke:none"
             d="m 0,0 c -0.677,-9.033 -4.413,-25.49 -22.608,-25.49 -19.179,0 -23.237,16.215 -24.074,23.864 8.937,3.462 16.827,3.912 22.367,3.912 C -14.558,2.286 -6.683,1.562 0,0" /></g><g
           transform="translate(409.4375,97.1484)"
           id="g264"><path
             id="path266"
             style="fill:#ffffff;fill-opacity:1;fill-rule:nonzero;stroke:none"
             d="m 0,0 h -73.67 c -1.778,0 -3.22,1.441 -3.22,3.22 0,1.779 1.442,3.22 3.22,3.22 H 0 C 1.778,6.44 3.221,4.999 3.221,3.22 3.221,1.441 1.778,0 0,0" /></g></g></g><g
       id="g268"><g
         style="fill:#4594a1;fill-opacity:1"
         clip-path="url(#clipPath274)"
         id="g270"><g
           style="fill:#4594a1;fill-opacity:1"
           id="g276"><g
             style="fill:#4594a1;fill-opacity:1"
             id="g278"><path
               id="path286"
               style="fill:#4594a1;stroke:none;fill-opacity:1"
               d="m 331.727,157.139 c -2.416,0 -4.284,-2.174 -3.914,-4.574 v 0 l 7.552,-48.984 h 75.087 l 7.632,47.262 v 0.015 l 0.275,1.675 c 0.386,2.416 -1.466,4.606 -3.914,4.606 v 0 z" /></g></g></g></g><g
       transform="translate(0,2e-4)"
       id="g288"><g
         clip-path="url(#clipPath294)"
         id="g290"><g
           style="fill:#265259;fill-opacity:1"
           transform="translate(418.084,150.8428)"
           id="g296"><path
             id="path298"
             style="fill:#265259;fill-opacity:1;fill-rule:nonzero;stroke:none"
             d="m 0,0 -7.632,-47.262 h -74.684 l 25.313,2.641 C -31.014,-41.932 -8.872,-24.573 0,0" /></g><g
           transform="translate(369.9536,191.1475)"
           id="g300"><path
             id="path302"
             style="fill:#feb19e;fill-opacity:1;fill-rule:nonzero;stroke:none"
             d="m 0,0 h -0.499 c -2.898,0 -5.298,0.596 -7.246,1.465 -4.734,2.126 -7.601,7.069 -7.488,12.254 0.016,0.532 0.016,1.047 0.016,1.562 0.016,4.299 -0.258,7.874 -0.258,7.874 v 1.933 l 27.053,1.207 c 0.096,-3.897 0.547,-7.358 1.079,-10.128 0.015,-0.049 0.015,-0.081 0.032,-0.129 C 14.235,7.906 8.277,0.209 0,0" /></g><g
           transform="translate(382.6104,207.3145)"
           id="g304"><path
             id="path306"
             style="fill:#ff856a;fill-opacity:1;fill-rule:nonzero;stroke:none"
             d="m 0,0 c -11.272,-13.236 -22.85,-5.508 -27.874,-0.886 0.017,4.299 -0.257,7.874 -0.257,7.874 v 1.933 l 27.052,1.207 C -0.982,6.231 -0.531,2.77 0,0" /></g><g
           transform="translate(346.2007,229.3848)"
           id="g308"><path
             id="path310"
             style="fill:#feb19e;fill-opacity:1;fill-rule:nonzero;stroke:none"
             d="m 0,0 c 0,0 8.387,-23.645 22.376,-23.645 13.99,0 19.805,25.461 19.805,25.461 V 23.958 H -1.073 Z" /></g><g
           transform="translate(341.6992,242.7246)"
           id="g312"><path
             id="path314"
             style="fill:#feb19e;fill-opacity:1;fill-rule:nonzero;stroke:none"
             d="m 0,0 c 0,0 -4.12,-0.754 -3.416,-5.483 0.705,-4.731 4.999,-10.467 8.488,-7.449 z" /></g><g
           transform="translate(391.6484,244.7021)"
           id="g316"><path
             id="path318"
             style="fill:#feb19e;fill-opacity:1;fill-rule:nonzero;stroke:none"
             d="M 0,0 C 0,0 4.184,-0.186 4.129,-4.968 4.075,-9.75 0.601,-16.018 -3.267,-13.501 Z" /></g></g></g><g
       id="g320"><g
         clip-path="url(#clipPath326)"
         id="g322"><g
           id="g328"><g
             id="g330"><path
               id="path338"
               style="fill:url(#linearGradient336);stroke:none"
               d="m 352.138,280.114 c -10.332,-3.489 -8.587,-13.016 -8.587,-13.016 v 0 c 0,0 -4.697,2.683 -8.186,-4.294 v 0 c -3.488,-6.978 3.922,-21.473 3.922,-21.473 v 0 c 0.94,1.341 2.412,1.394 2.412,1.394 v 0 c 3.429,-9.865 4.501,-13.34 4.501,-13.34 v 0 c 2.953,4.226 1.914,13.022 1.914,13.022 v 0 c 6.18,-2.548 11.628,-2.152 16.236,1.611 v 0 c 6.911,-4.764 7.984,1.945 7.984,1.945 v 0 c 4.495,-6.776 11.66,-5.371 11.66,-5.371 v 0 c 1.074,-8.723 4.388,-9.391 4.388,-9.391 v 0 c 1.811,5.233 3.266,13.501 3.266,13.501 v 0 c 2.13,-0.201 2.633,-1.096 2.633,-1.096 v 0 c 7.65,21.604 -5.24,22.015 -5.24,22.015 v 0 c -4.831,19.189 -22.678,17.311 -22.678,17.311 v 0 c 0,0 -0.671,3.489 -2.282,4.428 v 0 c -0.141,0.083 -0.271,0.122 -0.396,0.122 v 0 c -1.294,0 -2.124,-4.187 -11.547,-7.368" /></g></g></g></g><g
       id="g340"><g
         clip-path="url(#clipPath346)"
         id="g342"><g
           style="fill:#c9e4e8;fill-opacity:1"
           transform="translate(3.5706,-1.3504)"
           id="g348"><g
             style="fill:#c9e4e8;fill-opacity:1"
             id="g350" /><g
             style="fill:#c9e4e8;fill-opacity:1"
             id="g362"><g
               style="fill:#c9e4e8;fill-opacity:1"
               id="g360"
               opacity="0.600006"
               clip-path="url(#clipPath354)"><g
                 style="fill:#c9e4e8;fill-opacity:1"
                 id="g358"
                 transform="translate(322.6934,224.6055)"><path
                   id="path356"
                   style="fill:#c9e4e8;fill-opacity:1;fill-rule:nonzero;stroke:none"
                   d="m 0,0 h -67.44 c -2.194,0 -3.972,-1.778 -3.972,-3.972 v -40.252 c 0,-2.194 1.778,-3.972 3.972,-3.972 h 46.52 L -8.788,-58.95 c 0.917,-0.813 2.317,0.123 1.916,1.281 l -3.279,9.473 H 0 c 2.194,0 3.973,1.778 3.973,3.972 V -3.972 C 3.973,-1.778 2.194,0 0,0" /></g></g></g></g><g
           id="g364"><g
             id="g366" /><g
             id="g394"><g
               id="g392"
               clip-path="url(#clipPath370)"><g
                 id="g374"
                 transform="translate(276.1743,213.8369)"><path
                   id="path372"
                   style="fill:#70b7c2;fill-opacity:1;fill-rule:nonzero;stroke:none"
                   d="m 0,0 h -15.536 c -0.585,0 -1.059,0.474 -1.059,1.059 0,0.586 0.474,1.059 1.059,1.059 H 0 C 0.585,2.118 1.059,1.645 1.059,1.059 1.059,0.474 0.585,0 0,0" /></g><g
                 id="g378"
                 transform="translate(314.4844,204.6562)"><path
                   id="path376"
                   style="fill:#70b7c2;fill-opacity:1;fill-rule:nonzero;stroke:none"
                   d="m 0,0 h -45.019 c -0.585,0 -1.059,0.475 -1.059,1.06 0,0.585 0.474,1.059 1.059,1.059 L 0,2.119 C 0.585,2.119 1.059,1.645 1.059,1.06 1.059,0.475 0.585,0 0,0" /></g><g
                 id="g382"
                 transform="translate(314.4844,198.124)"><path
                   id="path380"
                   style="fill:#70b7c2;fill-opacity:1;fill-rule:nonzero;stroke:none"
                   d="m 0,0 h -53.846 c -0.585,0 -1.059,0.475 -1.059,1.06 0,0.585 0.474,1.059 1.059,1.059 L 0,2.119 C 0.585,2.119 1.059,1.645 1.059,1.06 1.059,0.475 0.585,0 0,0" /></g><g
                 id="g386"
                 transform="translate(314.4844,191.5918)"><path
                   id="path384"
                   style="fill:#70b7c2;fill-opacity:1;fill-rule:nonzero;stroke:none"
                   d="m 0,0 h -53.846 c -0.585,0 -1.059,0.475 -1.059,1.06 0,0.585 0.474,1.059 1.059,1.059 L 0,2.119 C 0.585,2.119 1.059,1.645 1.059,1.06 1.059,0.475 0.585,0 0,0" /></g><g
                 id="g390"
                 transform="translate(314.4844,185.0596)"><path
                   id="path388"
                   style="fill:#70b7c2;fill-opacity:1;fill-rule:nonzero;stroke:none"
                   d="m 0,0 h -53.846 c -0.585,0 -1.059,0.475 -1.059,1.06 0,0.585 0.474,1.059 1.059,1.059 L 0,2.119 C 0.585,2.119 1.059,1.645 1.059,1.06 1.059,0.475 0.585,0 0,0" /></g></g></g></g><g
           transform="translate(621.6855,86.6816)"
           id="g396"><path
             id="path398"
             style="fill:#c1c8d3;fill-opacity:1;fill-rule:nonzero;stroke:none"
             d="m 0,0 h -489.519 c -0.965,0 -1.748,0.782 -1.748,1.747 V 8.72 c 0,0.965 0.783,1.747 1.748,1.747 H 0 c 0.965,0 1.747,-0.782 1.747,-1.747 V 1.747 C 1.747,0.782 0.965,0 0,0" /></g></g></g><g
       style="fill:#265259;fill-opacity:1"
       id="g400"><g
         style="fill:#265259;fill-opacity:1"
         clip-path="url(#clipPath406)"
         id="g402"><g
           style="fill:#265259;fill-opacity:1"
           id="g408"><g
             style="fill:#265259;fill-opacity:1"
             id="g410"><path
               id="path418"
               style="fill:#265259;stroke:none;fill-opacity:1"
               d="m 500.578,122.963 v -18.116 c 0,-4.224 3.425,-7.649 7.649,-7.649 v 0 h 5.636 c 4.225,0 7.648,3.425 7.648,7.649 v 0 18.116 z" /></g></g></g></g><g
       id="g420"><g
         clip-path="url(#clipPath426)"
         id="g422"><g
           id="g428"><g
             id="g430"><path
               id="path438"
               style="fill:url(#linearGradient436);stroke:none"
               d="m 514.869,154.966 v -0.754 c 0,-0.917 -0.743,-1.66 -1.66,-1.66 v 0 h -9.007 c -4.67,0 -8.454,-3.786 -8.454,-8.454 v 0 c 0,-4.669 3.784,-8.455 8.454,-8.455 v 0 h 6.793 c 0.917,0 1.66,-0.743 1.66,-1.66 v 0 -2.114 c 0,-0.917 -0.743,-1.66 -1.66,-1.66 v 0 h -2.113 c -0.918,0 -1.661,-0.743 -1.661,-1.66 v 0 -5.586 h 6.844 v 2.365 c 0,0.917 0.742,1.66 1.659,1.66 v 0 c 3.197,0 5.787,2.591 5.787,5.787 v 0 3.624 c 0,3.195 -2.59,5.787 -5.787,5.787 v 0 h -8.654 c -0.918,0 -1.661,0.743 -1.661,1.66 v 0 c 0,0.916 0.743,1.661 1.661,1.661 v 0 h 15.851 c 5.224,0 9.46,4.235 9.46,9.459 v 0 c 0,4.837 -3.92,8.757 -8.756,8.757 v 0 c -4.835,0 -8.756,-3.92 -8.756,-8.757" /></g></g></g></g><g
       transform="translate(0.4881,4.537)"
       id="g440"><g
         clip-path="url(#clipPath446)"
         id="g442"><g
           style="fill:#c9e4e8;fill-opacity:1"
           id="g448"><g
             style="fill:#c9e4e8;fill-opacity:1"
             id="g450" /><g
             style="fill:#c9e4e8;fill-opacity:1"
             id="g462"><g
               style="fill:#c9e4e8;fill-opacity:1"
               id="g460"
               opacity="0.600006"
               clip-path="url(#clipPath454)"><g
                 style="fill:#c9e4e8;fill-opacity:1"
                 id="g458"
                 transform="translate(492.1523,152.6016)"><path
                   id="path456"
                   style="fill:#c9e4e8;fill-opacity:1;fill-rule:nonzero;stroke:none"
                   d="m 0,0 h -54.95 c -2.112,0 -3.824,1.712 -3.824,3.824 v 69.443 c 0,2.112 1.712,3.824 3.824,3.824 H 0 c 2.112,0 3.825,-1.712 3.825,-3.824 V 3.824 C 3.825,1.712 2.112,0 0,0" /></g></g></g></g><g
           transform="translate(440.6914,232.2422)"
           id="g464"><path
             id="path466"
             style="fill:#36737d;fill-opacity:1;fill-rule:nonzero;stroke:none"
             d="m 0,0 c -1.665,0 -3.019,-1.354 -3.019,-3.02 v -69.442 c 0,-1.665 1.354,-3.019 3.019,-3.019 h 54.95 c 1.666,0 3.02,1.354 3.02,3.019 V -3.02 C 57.97,-1.354 56.616,0 54.95,0 Z M 54.95,-77.092 H 0 c -2.552,0 -4.629,2.077 -4.629,4.63 V -3.02 c 0,2.552 2.077,4.63 4.629,4.63 h 54.95 c 2.553,0 4.63,-2.078 4.63,-4.63 v -69.442 c 0,-2.553 -2.077,-4.63 -4.63,-4.63" /></g><g
           id="g468"><g
             id="g470" /><g
             id="g504"><g
               id="g502"
               clip-path="url(#clipPath474)"><g
                 id="g488"><g
                   id="g480" /><g
                   id="g486"><g
                     id="g484"
                     opacity="0.710007"
                     clip-path="url(#clipPath478)"><path
                       id="path482"
                       style="fill:#70b7c2;fill-opacity:1;fill-rule:nonzero;stroke:none"
                       d="m 444.381,206.637 h 8.992 v 11.405 h -8.992 z m 10.602,-1.611 H 442.77 v 14.626 h 12.213 z" /></g></g></g><g
                 id="g492"
                 transform="translate(451.9102,209.5625)"><path
                   id="path490"
                   style="fill:#ea9ba1;fill-opacity:1;fill-rule:nonzero;stroke:none"
                   d="m 0,0 -3.633,4.05 1.198,1.075 2.203,-2.458 C 0.886,4.141 3.622,7.089 8.805,9.224 L 9.418,7.735 C 2.95,5.072 0.576,1.012 0.554,0.971 Z" /></g><g
                 id="g496"
                 transform="translate(486.126,214.1748)"><path
                   id="path494"
                   style="fill:#70b7c2;fill-opacity:1;fill-rule:nonzero;stroke:none"
                   d="m 0,0 h -18.944 c -0.66,0 -1.196,0.535 -1.196,1.195 0,0.66 0.536,1.196 1.196,1.196 H 0 C 0.66,2.391 1.196,1.855 1.196,1.195 1.196,0.535 0.66,0 0,0" /></g><g
                 id="g500"
                 transform="translate(486.126,208.3672)"><path
                   id="path498"
                   style="fill:#70b7c2;fill-opacity:1;fill-rule:nonzero;stroke:none"
                   d="m 0,0 h -18.944 c -0.66,0 -1.196,0.535 -1.196,1.195 0,0.661 0.536,1.197 1.196,1.197 L 0,2.392 C 0.66,2.392 1.196,1.856 1.196,1.195 1.196,0.535 0.66,0 0,0" /></g></g></g></g><g
           id="g506"><g
             id="g508" /><g
             id="g542"><g
               id="g540"
               clip-path="url(#clipPath512)"><g
                 id="g526"><g
                   id="g518" /><g
                   id="g524"><g
                     id="g522"
                     opacity="0.710007"
                     clip-path="url(#clipPath516)"><path
                       id="path520"
                       style="fill:#70b7c2;fill-opacity:1;fill-rule:nonzero;stroke:none"
                       d="m 444.381,184.227 h 8.992 v 11.406 h -8.992 z m 10.602,-1.61 H 442.77 v 14.626 h 12.213 z" /></g></g></g><g
                 id="g530"
                 transform="translate(451.9102,187.1533)"><path
                   id="path528"
                   style="fill:#ea9ba1;fill-opacity:1;fill-rule:nonzero;stroke:none"
                   d="m 0,0 -3.633,4.05 1.198,1.075 2.203,-2.458 C 0.886,4.141 3.622,7.089 8.805,9.223 L 9.418,7.735 C 2.95,5.071 0.576,1.012 0.554,0.971 Z" /></g><g
                 id="g534"
                 transform="translate(486.126,191.7646)"><path
                   id="path532"
                   style="fill:#70b7c2;fill-opacity:1;fill-rule:nonzero;stroke:none"
                   d="m 0,0 h -18.944 c -0.66,0 -1.196,0.535 -1.196,1.196 0,0.66 0.536,1.196 1.196,1.196 H 0 C 0.66,2.392 1.196,1.856 1.196,1.196 1.196,0.535 0.66,0 0,0" /></g><g
                 id="g538"
                 transform="translate(486.126,185.958)"><path
                   id="path536"
                   style="fill:#70b7c2;fill-opacity:1;fill-rule:nonzero;stroke:none"
                   d="m 0,0 h -18.944 c -0.66,0 -1.196,0.535 -1.196,1.195 0,0.66 0.536,1.197 1.196,1.197 L 0,2.392 C 0.66,2.392 1.196,1.855 1.196,1.195 1.196,0.535 0.66,0 0,0" /></g></g></g></g><g
           id="g544"><g
             id="g546" /><g
             id="g580"><g
               id="g578"
               clip-path="url(#clipPath550)"><g
                 id="g564"><g
                   id="g556" /><g
                   id="g562"><g
                     id="g560"
                     opacity="0.710007"
                     clip-path="url(#clipPath554)"><path
                       id="path558"
                       style="fill:#70b7c2;fill-opacity:1;fill-rule:nonzero;stroke:none"
                       d="m 444.381,161.817 h 8.992 v 11.405 h -8.992 z m 10.602,-1.61 H 442.77 v 14.626 h 12.213 z" /></g></g></g><g
                 id="g568"
                 transform="translate(451.9102,164.7441)"><path
                   id="path566"
                   style="fill:#ea9ba1;fill-opacity:1;fill-rule:nonzero;stroke:none"
                   d="m 0,0 -3.633,4.049 1.198,1.076 2.203,-2.458 C 0.886,4.141 3.622,7.089 8.805,9.223 L 9.418,7.735 C 2.95,5.071 0.576,1.011 0.554,0.97 Z" /></g><g
                 id="g572"
                 transform="translate(486.126,169.3555)"><path
                   id="path570"
                   style="fill:#70b7c2;fill-opacity:1;fill-rule:nonzero;stroke:none"
                   d="m 0,0 h -18.944 c -0.66,0 -1.196,0.535 -1.196,1.195 0,0.661 0.536,1.197 1.196,1.197 L 0,2.392 C 0.66,2.392 1.196,1.856 1.196,1.195 1.196,0.535 0.66,0 0,0" /></g><g
                 id="g576"
                 transform="translate(486.126,163.5479)"><path
                   id="path574"
                   style="fill:#70b7c2;fill-opacity:1;fill-rule:nonzero;stroke:none"
                   d="m 0,0 h -18.944 c -0.66,0 -1.196,0.536 -1.196,1.196 0,0.66 0.536,1.196 1.196,1.196 H 0 C 0.66,2.392 1.196,1.856 1.196,1.196 1.196,0.536 0.66,0 0,0" /></g></g></g></g><g
           style="fill:#c9e4e8;fill-opacity:1"
           id="g582"><g
             style="fill:#c9e4e8;fill-opacity:1"
             id="g584" /><g
             style="fill:#c9e4e8;fill-opacity:1"
             id="g596"><g
               style="fill:#c9e4e8;fill-opacity:1"
               id="g594"
               opacity="0.600006"
               clip-path="url(#clipPath588)"><g
                 style="fill:#c9e4e8;fill-opacity:1"
                 id="g592"
                 transform="translate(685.1895,258.7939)"><path
                   id="path590"
                   style="fill:#c9e4e8;fill-opacity:1;fill-rule:nonzero;stroke:none"
                   d="m 0,0 h -54.95 c -2.112,0 -3.824,1.712 -3.824,3.824 v 69.443 c 0,2.112 1.712,3.824 3.824,3.824 H 0 c 2.112,0 3.825,-1.712 3.825,-3.824 V 3.824 C 3.825,1.712 2.112,0 0,0" /></g></g></g></g><g
           transform="translate(635.0713,339.4722)"
           id="g598"><path
             id="path600"
             style="fill:#36737d;fill-opacity:1;fill-rule:nonzero;stroke:none"
             d="m 0,0 c -1.665,0 -3.02,-1.355 -3.02,-3.02 v -69.442 c 0,-1.664 1.355,-3.019 3.02,-3.019 h 54.95 c 1.665,0 3.019,1.355 3.019,3.019 V -3.02 C 57.969,-1.355 56.615,0 54.95,0 Z M 54.95,-77.091 H 0 c -2.553,0 -4.63,2.076 -4.63,4.629 V -3.02 c 0,2.554 2.077,4.63 4.63,4.63 h 54.95 c 2.552,0 4.629,-2.076 4.629,-4.63 v -69.442 c 0,-2.553 -2.077,-4.629 -4.629,-4.629" /></g><g
           id="g602"><g
             id="g604" /><g
             id="g656"><g
               id="g654"
               opacity="0.5"
               clip-path="url(#clipPath608)"><g
                 id="g616"
                 transform="translate(653.2207,315.2871)"><path
                   id="path614"
                   style="fill:#70b7c2;fill-opacity:1;fill-rule:nonzero;stroke:none"
                   d="m 0,0 c 0,-5.336 -4.325,-9.661 -9.661,-9.661 -5.336,0 -9.662,4.325 -9.662,9.661 0,5.336 4.326,9.662 9.662,9.662 C -4.325,9.662 0,5.336 0,0" /></g><g
                 id="g628"><g
                   id="g618" /><g
                   id="g626"><g
                     id="g624"
                     clip-path="url(#clipPath612)"><g
                       id="g622"
                       transform="translate(646.1084,316.562)"><path
                         id="path620"
                         style="fill:#e83f54;fill-opacity:1;fill-rule:nonzero;stroke:none"
                         d="M 0,0 6.441,11.473 C 12.346,9.997 15.164,4.428 12.346,-1.275 Z" /></g></g></g></g><g
                 id="g632"
                 transform="translate(640.0703,295.1592)"><path
                   id="path630"
                   style="fill:#9abced;fill-opacity:1;fill-rule:nonzero;stroke:none"
                   d="m 0,0 c 0,-1.557 -1.262,-2.818 -2.818,-2.818 -1.556,0 -2.818,1.261 -2.818,2.818 0,1.556 1.262,2.818 2.818,2.818 C -1.262,2.818 0,1.556 0,0" /></g><g
                 id="g636"
                 transform="translate(640.0703,282.6797)"><path
                   id="path634"
                   style="fill:#9abced;fill-opacity:1;fill-rule:nonzero;stroke:none"
                   d="m 0,0 c 0,-1.557 -1.262,-2.818 -2.818,-2.818 -1.556,0 -2.818,1.261 -2.818,2.818 0,1.556 1.262,2.818 2.818,2.818 C -1.262,2.818 0,1.556 0,0" /></g><g
                 id="g640"
                 transform="translate(676.8379,292.3413)"><path
                   id="path638"
                   style="fill:#70b7c2;fill-opacity:1;fill-rule:nonzero;stroke:none"
                   d="m 0,0 h -22.544 c -1.556,0 -2.817,1.261 -2.817,2.818 0,1.556 1.261,2.818 2.817,2.818 H 0 C 1.557,5.636 2.818,4.374 2.818,2.818 2.818,1.261 1.557,0 0,0" /></g><g
                 id="g644"
                 transform="translate(676.8379,279.8613)"><path
                   id="path642"
                   style="fill:#70b7c2;fill-opacity:1;fill-rule:nonzero;stroke:none"
                   d="m 0,0 h -22.544 c -1.556,0 -2.817,1.262 -2.817,2.818 0,1.557 1.261,2.818 2.817,2.818 H 0 C 1.557,5.636 2.818,4.375 2.818,2.818 2.818,1.262 1.557,0 0,0" /></g><g
                 id="g648"
                 transform="translate(640.0703,269.9985)"><path
                   id="path646"
                   style="fill:#70b7c2;fill-opacity:1;fill-rule:nonzero;stroke:none"
                   d="m 0,0 c 0,-1.556 -1.262,-2.818 -2.818,-2.818 -1.556,0 -2.818,1.262 -2.818,2.818 0,1.557 1.262,2.818 2.818,2.818 C -1.262,2.818 0,1.557 0,0" /></g><g
                 id="g652"
                 transform="translate(676.8379,267.1807)"><path
                   id="path650"
                   style="fill:#70b7c2;fill-opacity:1;fill-rule:nonzero;stroke:none"
                   d="m 0,0 h -22.544 c -1.556,0 -2.817,1.262 -2.817,2.818 0,1.557 1.261,2.818 2.817,2.818 H 0 C 1.557,5.636 2.818,4.375 2.818,2.818 2.818,1.262 1.557,0 0,0" /></g></g></g></g><g
           id="g658"><g
             id="g660" /><g
             style="fill:#c9e4e8;fill-opacity:1"
             id="g672"><g
               style="fill:#c9e4e8;fill-opacity:1"
               id="g670"
               opacity="0.600006"
               clip-path="url(#clipPath664)"><g
                 style="fill:#c9e4e8;fill-opacity:1"
                 id="g668"
                 transform="translate(215.2056,281.416)"><path
                   id="path666"
                   style="fill:#c9e4e8;fill-opacity:1;fill-rule:nonzero;stroke:none"
                   d="m 0,0 h -54.95 c -2.113,0 -3.824,1.712 -3.824,3.825 v 82.324 c 0,2.112 1.711,3.825 3.824,3.825 H 0 c 2.112,0 3.824,-1.713 3.824,-3.825 V 3.825 C 3.824,1.712 2.112,0 0,0" /></g></g></g></g><g
           transform="translate(156.7666,374.0732)"
           id="g674"><path
             id="path676"
             style="fill:#36737d;fill-opacity:1;fill-rule:nonzero;stroke:none"
             d="m 0,0 c -1.665,0 -3.019,-1.355 -3.019,-3.02 v -82.324 c 0,-1.665 1.354,-3.019 3.019,-3.019 h 54.95 c 1.665,0 3.019,1.354 3.019,3.019 V -3.02 C 57.969,-1.355 56.615,0 54.95,0 Z M 54.95,-89.974 H 0 c -2.553,0 -4.629,2.077 -4.629,4.63 V -3.02 c 0,2.554 2.076,4.63 4.629,4.63 h 54.95 c 2.553,0 4.63,-2.076 4.63,-4.63 v -82.324 c 0,-2.553 -2.077,-4.63 -4.63,-4.63" /></g><g
           transform="translate(184.7827,334.3569)"
           id="g678"><path
             id="path680"
             style="fill:#70b7c2;fill-opacity:1;fill-rule:nonzero;stroke:none"
             d="m 0,0 -0.786,-0.698 c -0.499,-0.443 -1.262,-0.398 -1.705,0.101 l -8.062,9.077 2.592,2.302 8.062,-9.077 C 0.544,1.206 0.499,0.443 0,0" /></g><g
           transform="translate(171.4229,343.9448)"
           id="g682"><path
             id="path684"
             style="fill:#70b7c2;fill-opacity:1;fill-rule:nonzero;stroke:none"
             d="m 0,0 c -3.476,0 -6.311,2.819 -6.311,6.31 0,3.491 2.835,6.31 6.311,6.31 3.49,0 6.31,-2.819 6.31,-6.31 C 6.31,2.819 3.49,0 0,0 m 0,15.569 c -5.105,0 -9.259,-4.138 -9.259,-9.259 0,-5.121 4.154,-9.259 9.259,-9.259 5.121,0 9.259,4.138 9.259,9.259 0,5.121 -4.138,9.259 -9.259,9.259" /></g><g
           transform="translate(208.9336,354.4146)"
           id="g686"><path
             id="path688"
             style="fill:#70b7c2;fill-opacity:1;fill-rule:nonzero;stroke:none"
             d="m 0,0 h -14.626 c -0.927,0 -1.678,0.751 -1.678,1.678 0,0.926 0.751,1.677 1.678,1.677 H 0 C 0.926,3.355 1.677,2.604 1.677,1.678 1.677,0.751 0.926,0 0,0" /></g><g
           transform="translate(208.9336,345.6924)"
           id="g690"><path
             id="path692"
             style="fill:#70b7c2;fill-opacity:1;fill-rule:nonzero;stroke:none"
             d="m 0,0 h -14.626 c -0.927,0 -1.678,0.751 -1.678,1.677 0,0.927 0.751,1.678 1.678,1.678 H 0 C 0.926,3.355 1.677,2.604 1.677,1.677 1.677,0.751 0.926,0 0,0" /></g><g
           transform="translate(208.9336,337.6411)"
           id="g694"><path
             id="path696"
             style="fill:#70b7c2;fill-opacity:1;fill-rule:nonzero;stroke:none"
             d="m 0,0 h -14.626 c -0.927,0 -1.678,0.751 -1.678,1.677 0,0.927 0.751,1.678 1.678,1.678 H 0 C 0.926,3.355 1.677,2.604 1.677,1.677 1.677,0.751 0.926,0 0,0" /></g><g
           transform="translate(190.7178,315.2319)"
           id="g698"><path
             id="path700"
             style="fill:#70b7c2;fill-opacity:1;fill-rule:nonzero;stroke:none"
             d="m 0,0 h -22.544 c -1.056,0 -1.912,0.856 -1.912,1.912 0,1.056 0.856,1.912 1.912,1.912 H 0 C 1.056,3.824 1.912,2.968 1.912,1.912 1.912,0.856 1.056,0 0,0" /></g><g
           transform="translate(190.7178,303.2554)"
           id="g702"><path
             id="path704"
             style="fill:#70b7c2;fill-opacity:1;fill-rule:nonzero;stroke:none"
             d="m 0,0 h -22.544 c -1.056,0 -1.912,0.856 -1.912,1.912 0,1.056 0.856,1.912 1.912,1.912 H 0 C 1.056,3.824 1.912,2.968 1.912,1.912 1.912,0.856 1.056,0 0,0" /></g><g
           transform="translate(190.7178,291.2788)"
           id="g706"><path
             id="path708"
             style="fill:#70b7c2;fill-opacity:1;fill-rule:nonzero;stroke:none"
             d="m 0,0 h -22.544 c -1.056,0 -1.912,0.856 -1.912,1.913 0,1.055 0.856,1.912 1.912,1.912 H 0 C 1.056,3.825 1.912,2.968 1.912,1.913 1.912,0.856 1.056,0 0,0" /></g><g
           transform="translate(208.3799,317.144)"
           id="g710"><path
             id="path712"
             style="fill:#70b7c2;fill-opacity:1;fill-rule:nonzero;stroke:none"
             d="m 0,0 c 0,-1.695 -1.374,-3.07 -3.069,-3.07 -1.696,0 -3.07,1.375 -3.07,3.07 0,1.695 1.374,3.069 3.07,3.069 C -1.374,3.069 0,1.695 0,0" /></g><g
           transform="translate(208.3799,305.1675)"
           id="g714"><path
             id="path716"
             style="fill:#70b7c2;fill-opacity:1;fill-rule:nonzero;stroke:none"
             d="m 0,0 c 0,-1.695 -1.374,-3.069 -3.069,-3.069 -1.696,0 -3.07,1.374 -3.07,3.069 0,1.695 1.374,3.07 3.07,3.07 C -1.374,3.07 0,1.695 0,0" /></g><g
           transform="translate(208.3799,293.1914)"
           id="g718"><path
             id="path720"
             style="fill:#70b7c2;fill-opacity:1;fill-rule:nonzero;stroke:none"
             d="m 0,0 c 0,-1.695 -1.374,-3.07 -3.069,-3.07 -1.696,0 -3.07,1.375 -3.07,3.07 0,1.695 1.374,3.069 3.07,3.069 C -1.374,3.069 0,1.695 0,0" /></g><g
           style="fill:#c9e4e8;fill-opacity:1"
           id="g722"><g
             style="fill:#c9e4e8;fill-opacity:1"
             id="g724" /><g
             style="fill:#c9e4e8;fill-opacity:1"
             id="g736"><g
               style="fill:#c9e4e8;fill-opacity:1"
               id="g734"
               opacity="0.600006"
               clip-path="url(#clipPath728)"><g
                 style="fill:#c9e4e8;fill-opacity:1"
                 id="g732"
                 transform="translate(483.6992,280.1582)"><path
                   id="path730"
                   style="fill:#c9e4e8;fill-opacity:1;fill-rule:nonzero;stroke:none"
                   d="m 0,0 h -100.642 c -3.669,0 -6.642,2.974 -6.642,6.642 v 66.826 c 0,3.669 2.973,6.642 6.642,6.642 L 0,80.11 c 3.668,0 6.642,-2.973 6.642,-6.642 V 6.642 C 6.642,2.974 3.668,0 0,0" /></g></g></g></g><g
           transform="translate(386.5469,363.1533)"
           id="g738"><path
             id="path740"
             style="fill:#36737d;fill-opacity:1;fill-rule:nonzero;stroke:none"
             d="m 0,0 c -3.219,0 -5.838,-2.618 -5.838,-5.837 v -66.826 c 0,-3.219 2.619,-5.837 5.838,-5.837 h 100.642 c 3.218,0 5.837,2.618 5.837,5.837 V -5.837 C 106.479,-2.618 103.86,0 100.642,0 Z M 100.642,-80.11 H 0 c -4.106,0 -7.447,3.34 -7.447,7.447 v 66.826 c 0,4.107 3.341,7.447 7.447,7.447 h 100.642 c 4.105,0 7.447,-3.34 7.447,-7.447 v -66.826 c 0,-4.107 -3.342,-7.447 -7.447,-7.447" /></g><g
           id="g742"><g
             id="g744" /><g
             id="g756"><g
               id="g754"
               opacity="0.5"
               clip-path="url(#clipPath748)"><g
                 id="g752"
                 transform="translate(446.4619,343.9648)"><path
                   id="path750"
                   style="fill:#70b7c2;fill-opacity:1;fill-rule:nonzero;stroke:none"
                   d="m 0,0 h -55.756 c -1.611,0 -2.918,1.307 -2.918,2.918 0,1.612 1.307,2.919 2.918,2.919 H 0 C 1.611,5.837 2.918,4.53 2.918,2.918 2.918,1.307 1.611,0 0,0" /></g></g></g></g><g
           id="g758"><g
             id="g760" /><g
             id="g772"><g
               id="g770"
               opacity="0.710007"
               clip-path="url(#clipPath764)"><g
                 id="g768"
                 transform="translate(447.3174,301.0918)"><path
                   id="path766"
                   style="fill:#70b7c2;fill-opacity:1;fill-rule:nonzero;stroke:none"
                   d="m 0,0 h -57.467 c -1.139,0 -2.062,0.923 -2.062,2.063 v 28.481 c 0,1.14 0.923,2.063 2.062,2.063 H 0 c 1.139,0 2.063,-0.923 2.063,-2.063 V 2.063 C 2.063,0.923 1.139,0 0,0" /></g></g></g></g><g
           id="g774"><g
             id="g776" /><g
             id="g788"><g
               id="g786"
               opacity="0.5"
               clip-path="url(#clipPath780)"><g
                 id="g784"
                 transform="translate(476.0498,343.9648)"><path
                   id="path782"
                   style="fill:#70b7c2;fill-opacity:1;fill-rule:nonzero;stroke:none"
                   d="m 0,0 h -16.505 c -1.612,0 -2.919,1.307 -2.919,2.918 0,1.612 1.307,2.919 2.919,2.919 H 0 C 1.612,5.837 2.919,4.53 2.919,2.918 2.919,1.307 1.612,0 0,0" /></g></g></g></g><g
           id="g790"><g
             id="g792" /><g
             id="g804"><g
               id="g802"
               opacity="0.5"
               clip-path="url(#clipPath796)"><g
                 id="g800"
                 transform="translate(477.1572,328.4658)"><path
                   id="path798"
                   style="fill:#70b7c2;fill-opacity:1;fill-rule:nonzero;stroke:none"
                   d="m 0,0 h -17.344 c -1.001,0 -1.811,0.811 -1.811,1.812 0,1 0.81,1.812 1.811,1.812 H 0 C 1,3.624 1.812,2.812 1.812,1.812 1.812,0.811 1,0 0,0" /></g></g></g></g><g
           id="g806"><g
             id="g808" /><g
             id="g820"><g
               id="g818"
               opacity="0.5"
               clip-path="url(#clipPath812)"><g
                 id="g816"
                 transform="translate(477.1572,320.2808)"><path
                   id="path814"
                   style="fill:#70b7c2;fill-opacity:1;fill-rule:nonzero;stroke:none"
                   d="m 0,0 h -17.344 c -1.001,0 -1.811,0.811 -1.811,1.812 0,1 0.81,1.811 1.811,1.811 H 0 C 1,3.623 1.812,2.812 1.812,1.812 1.812,0.811 1,0 0,0" /></g></g></g></g><g
           id="g822"><g
             id="g824" /><g
             id="g836"><g
               id="g834"
               opacity="0.5"
               clip-path="url(#clipPath828)"><g
                 id="g832"
                 transform="translate(477.1572,312.0952)"><path
                   id="path830"
                   style="fill:#70b7c2;fill-opacity:1;fill-rule:nonzero;stroke:none"
                   d="m 0,0 h -17.344 c -1.001,0 -1.811,0.811 -1.811,1.812 0,1 0.81,1.811 1.811,1.811 H 0 C 1,3.623 1.812,2.812 1.812,1.812 1.812,0.811 1,0 0,0" /></g></g></g></g><g
           id="g838"><g
             id="g840" /><g
             id="g852"><g
               id="g850"
               opacity="0.5"
               clip-path="url(#clipPath844)"><g
                 id="g848"
                 transform="translate(477.1572,303.9097)"><path
                   id="path846"
                   style="fill:#70b7c2;fill-opacity:1;fill-rule:nonzero;stroke:none"
                   d="m 0,0 h -17.344 c -1.001,0 -1.811,0.811 -1.811,1.812 0,1 0.81,1.811 1.811,1.811 H 0 C 1,3.623 1.812,2.812 1.812,1.812 1.812,0.811 1,0 0,0" /></g></g></g></g><g
           id="g854"><g
             id="g856" /><g
             id="g868"><g
               id="g866"
               opacity="0.5"
               clip-path="url(#clipPath860)"><g
                 id="g864"
                 transform="translate(465.3818,288.3437)"><path
                   id="path862"
                   style="fill:#70b7c2;fill-opacity:1;fill-rule:nonzero;stroke:none"
                   d="m 0,0 h -64.209 c -1.334,0 -2.415,1.082 -2.415,2.416 0,1.334 1.081,2.415 2.415,2.415 L 0,4.831 C 1.334,4.831 2.416,3.75 2.416,2.416 2.416,1.082 1.334,0 0,0" /></g></g></g></g><g
           style="fill:#c9e4e8;fill-opacity:1"
           id="g870"><g
             style="fill:#c9e4e8;fill-opacity:1"
             id="g872" /><g
             style="fill:#c9e4e8;fill-opacity:1"
             id="g884"><g
               style="fill:#c9e4e8;fill-opacity:1"
               id="g882"
               opacity="0.600006"
               clip-path="url(#clipPath876)"><g
                 style="fill:#c9e4e8;fill-opacity:1"
                 id="g880"
                 transform="translate(160.7036,198.1738)"><path
                   id="path878"
                   style="fill:#c9e4e8;fill-opacity:1;fill-rule:nonzero;stroke:none"
                   d="m 0,0 h -95.274 c -2.964,0 -5.367,2.403 -5.367,5.368 v 57.701 c 0,2.964 2.403,5.368 5.367,5.368 H 0 c 2.964,0 5.368,-2.404 5.368,-5.368 V 5.368 C 5.368,2.403 2.964,0 0,0" /></g></g></g></g><g
           transform="translate(61.522,269.7646)"
           id="g886"><path
             id="path888"
             style="fill:#36737d;fill-opacity:1;fill-rule:nonzero;stroke:none"
             d="m 0,0 c -2.516,0 -4.562,-2.047 -4.562,-4.562 v -57.702 c 0,-2.515 2.046,-4.561 4.562,-4.561 h 95.274 c 2.516,0 4.562,2.046 4.562,4.561 V -4.562 C 99.836,-2.047 97.79,0 95.274,0 Z M 95.274,-68.436 H 0 c -3.403,0 -6.173,2.77 -6.173,6.172 v 57.702 c 0,3.404 2.77,6.172 6.173,6.172 h 95.274 c 3.403,0 6.173,-2.768 6.173,-6.172 v -57.702 c 0,-3.402 -2.77,-6.172 -6.173,-6.172" /></g><g
           id="g890"><g
             id="g892" /><g
             id="g962"><g
               id="g960"
               opacity="0.5"
               clip-path="url(#clipPath896)"><g
                 id="g908"
                 transform="translate(98.2109,235.0166)"><path
                   id="path906"
                   style="fill:#70b7c2;fill-opacity:1;fill-rule:nonzero;stroke:none"
                   d="m 0,0 c -2.464,-2.479 -5.877,-4.009 -9.662,-4.009 -7.536,0 -13.655,6.119 -13.655,13.655 0,7.552 6.119,13.671 13.655,13.671 1.53,0 3.012,-0.257 4.38,-0.725 L -9.662,9.646 Z" /></g><g
                 id="g920"><g
                   id="g910" /><g
                   id="g918"><g
                     id="g916"
                     clip-path="url(#clipPath900)"><g
                       id="g914"
                       transform="translate(104.0156,245.7168)"><path
                         id="path912"
                         style="fill:#e83f54;fill-opacity:1;fill-rule:nonzero;stroke:none"
                         d="M 0,0 C 0,-3.2 -1.299,-6.1 -3.405,-8.191 L -11.61,0 -7.89,10.994 C -3.309,9.449 0,5.114 0,0" /></g></g></g></g><g
                 id="g924"
                 transform="translate(150.1685,230.2021)"><path
                   id="path922"
                   style="fill:#70b7c2;fill-opacity:1;fill-rule:nonzero;stroke:none"
                   d="m 0,0 h -31.4 v 26.509 c 0,0.445 0.36,0.805 0.805,0.805 0.445,0 0.805,-0.36 0.805,-0.805 V 1.61 H 0 C 0.445,1.61 0.805,1.25 0.805,0.805 0.805,0.359 0.445,0 0,0" /></g><path
                 id="path926"
                 style="fill:#70b7c2;fill-opacity:1;fill-rule:nonzero;stroke:none"
                 d="m 129.369,243.859 h -4.025 v -12.047 h 4.025 z" /><g
                 id="g936"><g
                   id="g928" /><g
                   id="g934"><g
                     id="g932"
                     clip-path="url(#clipPath904)"><path
                       id="path930"
                       style="fill:#e83f54;fill-opacity:1;fill-rule:nonzero;stroke:none"
                       d="m 137.689,249.971 h -4.026 v -18.159 h 4.026 z" /></g></g></g><path
                 id="path938"
                 style="fill:#70b7c2;fill-opacity:1;fill-rule:nonzero;stroke:none"
                 d="m 145.875,240.892 h -4.026 v -9.079 h 4.026 z" /><g
                 id="g942"
                 transform="translate(94.5503,217.9004)"><path
                   id="path940"
                   style="fill:#70b7c2;fill-opacity:1;fill-rule:nonzero;stroke:none"
                   d="m 0,0 h -18.921 c -0.778,0 -1.409,0.631 -1.409,1.408 0,0.779 0.631,1.409 1.409,1.409 H 0 c 0.778,0 1.409,-0.63 1.409,-1.409 C 1.409,0.631 0.778,0 0,0" /></g><g
                 id="g946"
                 transform="translate(123.3975,217.9004)"><path
                   id="path944"
                   style="fill:#70b7c2;fill-opacity:1;fill-rule:nonzero;stroke:none"
                   d="m 0,0 h -18.92 c -0.779,0 -1.41,0.631 -1.41,1.408 0,0.779 0.631,1.409 1.41,1.409 H 0 c 0.778,0 1.409,-0.63 1.409,-1.409 C 1.409,0.631 0.778,0 0,0" /></g><g
                 id="g950"
                 transform="translate(150.5039,217.9004)"><path
                   id="path948"
                   style="fill:#70b7c2;fill-opacity:1;fill-rule:nonzero;stroke:none"
                   d="m 0,0 h -18.92 c -0.779,0 -1.41,0.631 -1.41,1.408 0,0.779 0.631,1.409 1.41,1.409 H 0 c 0.778,0 1.409,-0.63 1.409,-1.409 C 1.409,0.631 0.778,0 0,0" /></g><g
                 id="g954"
                 transform="translate(106.9624,207.8359)"><path
                   id="path952"
                   style="fill:#70b7c2;fill-opacity:1;fill-rule:nonzero;stroke:none"
                   d="m 0,0 h -18.92 c -0.779,0 -1.41,0.631 -1.41,1.409 0,0.779 0.631,1.408 1.41,1.408 H 0 C 0.778,2.817 1.409,2.188 1.409,1.409 1.409,0.631 0.778,0 0,0" /></g><g
                 id="g958"
                 transform="translate(134.0688,207.8359)"><path
                   id="path956"
                   style="fill:#70b7c2;fill-opacity:1;fill-rule:nonzero;stroke:none"
                   d="m 0,0 h -18.92 c -0.779,0 -1.41,0.631 -1.41,1.409 0,0.779 0.631,1.408 1.41,1.408 H 0 C 0.778,2.817 1.409,2.188 1.409,1.409 1.409,0.631 0.778,0 0,0" /></g></g></g></g></g></g></g></svg>
