<svg id="Layer_1" data-name="Layer 1" xmlns="http://www.w3.org/2000/svg" viewBox="0 0 100 100"><defs><style>.cls-1{fill:#3ac3a9;}.cls-2{fill:#84da5e;}.cls-3{fill:#3e8893;}</style></defs><title>CitonHub</title><path class="cls-1" d="M56.82,42c-2.31-3.76-6-6.47-12.39-7a19.7,19.7,0,0,0-7.63.82A13.75,13.75,0,0,0,27,46.05c5.62-5.42,11.74-7.18,18.42-4.72C49.51,38.45,53.3,38.62,56.82,42Z"/><path class="cls-2" d="M43.92,50.37c-7.35-2.69-13-1.24-17.62,3a11.14,11.14,0,0,1,5.2-9.1A14.33,14.33,0,0,1,39,41.91a13.34,13.34,0,0,1,5.55.94C43.08,45.15,43.13,47.7,43.92,50.37Z"/><path class="cls-3" d="M50.15,35.27l.82.32.47.22.51.24.56.31.38.22c.18.11.35.23.51.35l.38.26c.14.1.26.21.39.31l.44.36.2.19a12.28,12.28,0,0,1,2,2.39,12.59,12.59,0,0,1,.77,1.34h0l0,0h0l.15.27h0a3.1,3.1,0,0,0,2.62,1.21l2.52-.11a2.88,2.88,0,0,0,2.36-4.37,16.41,16.41,0,0,0-23.36-4.89,0,0,0,0,0,0,.06A24.33,24.33,0,0,1,50,35.2Z"/><path class="cls-3" d="M63,50.29l-2.71,0A2.79,2.79,0,0,0,58,51.48a8.21,8.21,0,0,1-11.34,2.17.52.52,0,0,1-.17-.12h0a.62.62,0,0,1-.19-.12l-.08,0a32.9,32.9,0,0,0-7.48-2.77,10.16,10.16,0,0,0-3.3,0h-.06a10.53,10.53,0,0,0-6.64,3.64h0A18.88,18.88,0,0,1,40.48,59h0A16.36,16.36,0,0,0,65.64,54.4,2.83,2.83,0,0,0,63,50.29Z"/></svg>