<svg width="155" height="150" viewBox="0 0 155 150" fill="none" xmlns="http://www.w3.org/2000/svg">
<circle cx="86" cy="69" r="69" fill="#C5E3FF"/>
<circle cx="69" cy="81" r="67.5" stroke="#5E5E60" stroke-width="3"/>
<path d="M69.765 89.1662C69.765 89.4577 69.9902 89.6962 70.2619 89.6962H82.5181C82.7897 89.6962 83.015 89.4577 83.015 89.1662V85.9862C83.015 85.6947 82.7897 85.4562 82.5181 85.4562H70.2619C69.9902 85.4562 69.765 85.6947 69.765 85.9862V89.1662ZM56.8529 89.5704L69.5729 78.9041C69.8246 78.6921 69.8246 78.3012 69.5729 78.0892L56.8529 67.4296C56.7761 67.3643 56.6822 67.3224 56.5823 67.3089C56.4824 67.2954 56.3807 67.3108 56.2893 67.3534C56.198 67.3959 56.1207 67.4638 56.0668 67.549C56.0128 67.6341 55.9844 67.733 55.985 67.8337V71.9876C55.985 72.1466 56.0512 72.2924 56.1771 72.3917L63.4514 78.5L56.1771 84.6082C56.1179 84.6578 56.0701 84.7196 56.0369 84.7893C56.0038 84.8591 55.9861 84.9352 55.985 85.0124V89.1662C55.985 89.6167 56.5084 89.8619 56.8529 89.5704ZM93.88 52H45.12C43.9474 52 43 52.9474 43 54.12V102.88C43 104.053 43.9474 105 45.12 105H93.88C95.0526 105 96 104.053 96 102.88V54.12C96 52.9474 95.0526 52 93.88 52ZM91.23 100.23H47.77V56.77H91.23V100.23Z" fill="black"/>
</svg>
