<svg width="71" height="70" xmlns="http://www.w3.org/2000/svg" viewBox="0 0 71 69.9092" xmlns:xlink="http://www.w3.org/1999/xlink">
    <defs/>
    <g transform="translate(1,1)">
        <path fill="#ffd900" transform="translate(8.5,8.42)" id="shape1" stroke="#ffd900" d="M0,25.5C0,11.4,11.5,0,25.8,0C40,0,51.6,11.4,51.6,25.5C51.6,39.6,40,51.1,25.8,51.1C11.5,51.1,0,39.6,0,25.5z"/>
        <path fill="#ffd900" id="shape2" stroke="#ffd900" d="M0,34C0,15.2,15.3,0,34.3,0C53.2,0,68.6,15.2,68.6,34C68.6,52.7,53.2,67.9,34.3,67.9C15.3,67.9,0,52.7,0,34zM6.5,34C6.5,49.2,18.9,61.5,34.3,61.5C49.6,61.5,62.1,49.2,62.1,34C62.1,18.7,49.6,6.4,34.3,6.4C18.9,6.4,6.5,18.7,6.5,34z"/>
    </g>
</svg>
