<svg width="155" height="153" viewBox="0 0 155 153" fill="none" xmlns="http://www.w3.org/2000/svg">
<circle cx="69" cy="69" r="69" fill="#C5E3FF"/>
<circle cx="86" cy="84" r="67.5" stroke="#5E5E60" stroke-width="3"/>
<path d="M69.75 89.125V87.5H66.5V89.125C66.5 92.1418 67.6984 95.0351 69.8317 97.1683C71.9649 99.3016 74.8582 100.5 77.875 100.5H82.75V97.25H77.875C75.7201 97.25 73.6535 96.394 72.1298 94.8702C70.606 93.3465 69.75 91.2799 69.75 89.125Z" fill="black"/>
<path d="M99 72.875V74.5H102.25V72.875C102.25 69.8582 101.052 66.9649 98.9183 64.8317C96.7851 62.6984 93.8918 61.5 90.875 61.5H86V64.75H90.875C91.942 64.75 92.9985 64.9602 93.9843 65.3685C94.9701 65.7768 95.8658 66.3753 96.6202 67.1298C97.3747 67.8842 97.9732 68.7799 98.3815 69.7657C98.7898 70.7515 99 71.808 99 72.875Z" fill="black"/>
<path d="M77.875 72.875H68.125C66.8321 72.875 65.5921 73.3886 64.6779 74.3029C63.7636 75.2171 63.25 76.4571 63.25 77.75V81H66.5V77.75C66.5 77.319 66.6712 76.9057 66.976 76.601C67.2807 76.2962 67.694 76.125 68.125 76.125H77.875C78.306 76.125 78.7193 76.2962 79.024 76.601C79.3288 76.9057 79.5 77.319 79.5 77.75V81H82.75V77.75C82.75 76.4571 82.2364 75.2171 81.3221 74.3029C80.4079 73.3886 79.1679 72.875 77.875 72.875Z" fill="black"/>
<path d="M73 71.25C74.2856 71.25 75.5423 70.8688 76.6112 70.1546C77.6801 69.4403 78.5132 68.4252 79.0052 67.2374C79.4972 66.0497 79.6259 64.7428 79.3751 63.4819C79.1243 62.221 78.5052 61.0629 77.5962 60.1538C76.6872 59.2448 75.529 58.6257 74.2681 58.3749C73.0072 58.1241 71.7003 58.2528 70.5126 58.7448C69.3248 59.2368 68.3097 60.0699 67.5954 61.1388C66.8812 62.2077 66.5 63.4644 66.5 64.75C66.5 66.4739 67.1848 68.1272 68.4038 69.3462C69.6228 70.5652 71.2761 71.25 73 71.25ZM73 61.5C73.6428 61.5 74.2711 61.6906 74.8056 62.0477C75.3401 62.4048 75.7566 62.9124 76.0026 63.5063C76.2486 64.1001 76.313 64.7536 76.1876 65.384C76.0622 66.0145 75.7526 66.5936 75.2981 67.0481C74.8436 67.5026 74.2645 67.8122 73.634 67.9376C73.0036 68.063 72.3501 67.9986 71.7563 67.7526C71.1624 67.5066 70.6548 67.0901 70.2977 66.5556C69.9406 66.0211 69.75 65.3928 69.75 64.75C69.75 63.8881 70.0924 63.0614 70.7019 62.4519C71.3114 61.8424 72.138 61.5 73 61.5Z" fill="black"/>
<path d="M103.875 95.625H94.125C92.8321 95.625 91.5921 96.1386 90.6779 97.0529C89.7636 97.9671 89.25 99.2071 89.25 100.5V103.75H92.5V100.5C92.5 100.069 92.6712 99.6557 92.976 99.351C93.2807 99.0462 93.694 98.875 94.125 98.875H103.875C104.306 98.875 104.719 99.0462 105.024 99.351C105.329 99.6557 105.5 100.069 105.5 100.5V103.75H108.75V100.5C108.75 99.2071 108.236 97.9671 107.322 97.0529C106.408 96.1386 105.168 95.625 103.875 95.625Z" fill="black"/>
<path d="M92.5 87.5C92.5 88.7856 92.8812 90.0423 93.5954 91.1112C94.3097 92.1801 95.3248 93.0132 96.5126 93.5052C97.7003 93.9972 99.0072 94.1259 100.268 93.8751C101.529 93.6243 102.687 93.0052 103.596 92.0962C104.505 91.1872 105.124 90.029 105.375 88.7681C105.626 87.5072 105.497 86.2003 105.005 85.0126C104.513 83.8248 103.68 82.8097 102.611 82.0954C101.542 81.3812 100.286 81 99 81C97.2761 81 95.6228 81.6848 94.4038 82.9038C93.1848 84.1228 92.5 85.7761 92.5 87.5ZM102.25 87.5C102.25 88.1428 102.059 88.7711 101.702 89.3056C101.345 89.8401 100.838 90.2566 100.244 90.5026C99.6499 90.7486 98.9964 90.813 98.366 90.6876C97.7355 90.5622 97.1564 90.2526 96.7019 89.7981C96.2474 89.3436 95.9378 88.7645 95.8124 88.134C95.687 87.5036 95.7514 86.8501 95.9974 86.2563C96.2434 85.6624 96.6599 85.1548 97.1944 84.7977C97.7289 84.4406 98.3572 84.25 99 84.25C99.862 84.25 100.689 84.5924 101.298 85.2019C101.908 85.8114 102.25 86.638 102.25 87.5Z" fill="black"/>
</svg>
