<svg width="155" height="153" viewBox="0 0 155 153" fill="none" xmlns="http://www.w3.org/2000/svg">
<circle cx="69" cy="69" r="69" fill="#C5E3FF"/>
<circle cx="86" cy="84" r="67.5" stroke="#5E5E60" stroke-width="3"/>
<path d="M60.1787 78.269V100.652C60.1787 103.349 61.2502 105.936 63.1573 107.843C65.0645 109.75 67.6512 110.821 70.3484 110.821H87.6966C86.8609 109.71 86.1575 108.506 85.6004 107.232H70.3484C68.6031 107.232 66.9294 106.539 65.6953 105.305C64.4613 104.071 63.768 102.397 63.768 100.652V78.269C62.5946 78.6012 61.3521 78.6012 60.1787 78.269Z" fill="black"/>
<path d="M112.822 68.3482V85.6964C111.711 84.8608 110.506 84.1574 109.233 83.6003V68.3482C109.233 66.603 108.539 64.9293 107.305 63.6952C106.071 62.4612 104.397 61.7679 102.652 61.7679H70.3487C69.0569 61.7675 67.7935 62.1473 66.7161 62.8601C65.6387 63.5728 64.795 64.5869 64.29 65.7759C63.1056 65.3302 61.8176 65.2363 60.5811 65.5055C61.1972 63.3918 62.4824 61.5351 64.2436 60.214C66.0048 58.8928 68.147 58.1786 70.3487 58.1786H102.652C105.349 58.1786 107.936 59.25 109.843 61.1572C111.75 63.0644 112.822 65.6511 112.822 68.3482Z" fill="black"/>
<path d="M76.3308 86.8929H89.8504C88.7062 87.9553 87.7047 89.1618 86.8713 90.4822H76.3308C75.8548 90.4822 75.3983 90.2931 75.0618 89.9565C74.7252 89.62 74.5361 89.1635 74.5361 88.6875C74.5361 88.2116 74.7252 87.7551 75.0618 87.4185C75.3983 87.082 75.8548 86.8929 76.3308 86.8929Z" fill="black"/>
<path d="M57.7861 71.9375C57.7861 73.0481 58.2273 74.1132 59.0126 74.8985C59.7979 75.6838 60.863 76.125 61.9736 76.125C63.0842 76.125 64.1493 75.6838 64.9346 74.8985C65.72 74.1132 66.1611 73.0481 66.1611 71.9375C66.1611 70.8269 65.72 69.7618 64.9346 68.9765C64.1493 68.1912 63.0842 67.75 61.9736 67.75C60.863 67.75 59.7979 68.1912 59.0126 68.9765C58.2273 69.7618 57.7861 70.8269 57.7861 71.9375Z" fill="black"/>
<path d="M76.3308 77.3215C75.8548 77.3215 75.3983 77.5106 75.0618 77.8471C74.7252 78.1837 74.5361 78.6401 74.5361 79.1161C74.5361 79.5921 74.7252 80.0486 75.0618 80.3851C75.3983 80.7217 75.8548 80.9108 76.3308 80.9108H96.6701C97.146 80.9108 97.6025 80.7217 97.9391 80.3851C98.2756 80.0486 98.4647 79.5921 98.4647 79.1161C98.4647 78.6401 98.2756 78.1837 97.9391 77.8471C97.6025 77.5106 97.146 77.3215 96.6701 77.3215H76.3308Z" fill="black"/>
<path d="M117.607 100.054C117.607 104.179 115.968 108.135 113.052 111.052C110.135 113.968 106.179 115.607 102.054 115.607C97.9285 115.607 93.9724 113.968 91.0555 111.052C88.1387 108.135 86.5 104.179 86.5 100.054C86.5 95.9285 88.1387 91.9724 91.0555 89.0555C93.9724 86.1387 97.9285 84.5 102.054 84.5C106.179 84.5 110.135 86.1387 113.052 89.0555C115.968 91.9724 117.607 95.9285 117.607 100.054ZM103.25 90.4821C103.25 90.1648 103.124 89.8605 102.9 89.6361C102.675 89.4118 102.371 89.2857 102.054 89.2857C101.736 89.2857 101.432 89.4118 101.208 89.6361C100.983 89.8605 100.857 90.1648 100.857 90.4821V98.8571H92.4821C92.1648 98.8571 91.8605 98.9832 91.6361 99.2076C91.4118 99.4319 91.2857 99.7363 91.2857 100.054C91.2857 100.371 91.4118 100.675 91.6361 100.9C91.8605 101.124 92.1648 101.25 92.4821 101.25H100.857V109.625C100.857 109.942 100.983 110.247 101.208 110.471C101.432 110.695 101.736 110.821 102.054 110.821C102.371 110.821 102.675 110.695 102.9 110.471C103.124 110.247 103.25 109.942 103.25 109.625V101.25H111.625C111.942 101.25 112.247 101.124 112.471 100.9C112.695 100.675 112.821 100.371 112.821 100.054C112.821 99.7363 112.695 99.4319 112.471 99.2076C112.247 98.9832 111.942 98.8571 111.625 98.8571H103.25V90.4821Z" fill="black"/>
</svg>
