<svg width="94" height="94" viewBox="0 0 94 94" fill="none" xmlns="http://www.w3.org/2000/svg">
<path d="M66.8846 4.68333L65.8 1.67261L30.0077 1.33809L26.0308 5.6869L20.9692 35.4595L46.2769 91.325L69.7769 37.1321L66.8846 4.68333Z" fill="#C2E8FF"/>
<path d="M25.3077 3.34525L3.61539 33.4524L47 90.3214L21.6923 36.7976L25.3077 3.34525Z" fill="#A4D6F5"/>
<path d="M69.0538 0.669037L90.3846 33.4524L47 90.3214L70.5 35.794L69.0538 0.669037Z" fill="#D6F0FF"/>
<path d="M65.0918 1.92187L68.6891 1.58899L72.2867 34.874L68.6894 35.2069L65.0918 1.92187Z" fill="#4E7AB5"/>
<path d="M66.8846 3.34524L89.6615 33.4524L47 87.9797L4.33846 33.4524L27.1154 3.34524H66.8846ZM68.6923 0H25.3077L0 33.4524L47 93.6667L94 33.4524L68.6923 0Z" fill="#4E7AB5"/>
<path d="M18.2762 35.8933L21.5885 34.5526L46.9456 88.187L43.6333 89.5277L18.2762 35.8933Z" fill="#4E7AB5"/>
<path d="M47.1603 87.9171L68.8849 34.3617L72.2697 35.5372L50.5451 89.0926L47.1603 87.9171Z" fill="#4E7AB5"/>
<path d="M3.61539 33.4524H90.3846V36.7976H3.61539V33.4524Z" fill="#4E7AB5"/>
<path d="M21.3308 36.1286L18.4385 34.1214L47 2.34167L71.9462 34.1214L69.0538 36.1286L47 7.69405L21.3308 36.1286Z" fill="#4E7AB5"/>
<path d="M18.1079 34.7992L25.3471 1.34169L28.8921 1.99838L21.6529 35.4559L18.1079 34.7992Z" fill="#4E7AB5"/>
</svg>
