<svg width="88" height="100" viewBox="0 0 88 100" fill="none" xmlns="http://www.w3.org/2000/svg">
<path d="M44 0C40.038 0 36.4579 1.88428 31.5039 4.48828C25.1219 7.84628 16.3763 12.4414 1.57031 15.6914L0 16.0352V17.6445C0 78.5745 42.7282 99.0051 43.1602 99.2031L44.043 99.6094L44.9062 99.168C45.3363 98.948 88 76.5445 88 17.6445V16.0352L86.4297 15.6914C71.6237 12.4414 62.8781 7.84628 56.4961 4.48828C51.5421 1.88428 47.962 0 44 0ZM44.1016 25.6445L48.8594 38.1328L49.3164 39.3438L50.6094 39.4219L64 40.2109C64.004 40.2729 63.9851 40.3193 63.9531 40.3633L53.668 48.6719L52.6602 49.4844L52.9883 50.7344L56.4102 63.7461L45.2266 56.3555L44.1367 55.6406L43.043 56.3438L31.9336 63.4844C31.8636 63.5184 31.7867 63.5579 31.7227 63.5859C31.7127 63.5819 31.7014 63.5743 31.6914 63.5703C31.6794 63.5463 31.6701 63.5273 31.6641 63.5273L31.6602 63.5312L35.0586 50.5312L35.3828 49.293L34.3984 48.4805L24.1992 40.082L24.1211 40.0156L37.4453 39.2188L38.7344 39.1445L39.1953 37.9336L43.8164 25.8086C43.9244 25.7326 44.0276 25.6745 44.1016 25.6445Z" fill="#3C87CD"/>
</svg>
