<svg width="73" height="91" viewBox="0 0 73 91" fill="none" xmlns="http://www.w3.org/2000/svg">
<path d="M36.0937 2.32422L2.34375 9.98047V39.043C2.34375 60.918 13.2812 73.8086 31.4062 85.918L33.9844 87.6367C34.6094 88.0273 35.3125 88.2617 36.0937 88.2617V88.1836C36.7969 88.1836 37.5781 87.9492 38.2031 87.5586L40.7812 85.8398C58.9844 73.7305 69.8437 60.8398 69.8437 38.9648V9.82422L36.0937 2.32422Z" fill="#F7F7FB"/>
<path d="M36.0937 45.293V79.9805L36.5625 79.668C50.8594 70.1367 60.0781 60.7617 61.9531 45.293H36.0937ZM36.0937 17.8711C27.3437 17.8711 18.6719 18.7305 9.84375 20.6055V39.043C9.84375 41.2305 10 43.3398 10.2344 45.293H36.0937V17.8711Z" fill="#D4AF37"/>
<path d="M36.0938 90.6055C34.9219 90.6055 33.75 90.2148 32.7344 89.5898L30.1563 87.8711C14.5313 77.4023 0 64.2773 0 39.043V9.98047C0 8.88672 0.781251 7.94922 1.79688 7.71484L35.5469 0.0585938C35.8594 -0.0195312 36.25 -0.0195312 36.5625 0.0585938L70.3125 7.55859C71.4062 7.79297 72.1094 8.73047 72.1094 9.82422V38.9648C72.1094 64.1992 57.6563 77.3242 41.9531 87.793L39.375 89.5117C38.5937 89.9805 37.8125 90.3711 36.875 90.4492C36.7188 90.5273 36.4063 90.6055 36.0938 90.6055ZM4.6875 11.8555V39.043C4.6875 60.7617 15.9375 72.7148 32.7344 83.9648L35.3125 85.6836C35.3906 85.7617 35.5469 85.8398 35.625 85.8398C35.7813 85.8398 35.9375 85.7617 36.0938 85.7617C36.4063 85.7617 36.6406 85.6836 36.875 85.5273L39.4531 83.8086C56.25 72.5586 67.5 60.6836 67.5 38.8867V11.6992L36.0938 4.74609L4.6875 11.8555Z" fill="#D4AF37"/>
</svg>
