<svg viewBox="0 0 190 134" xmlns="http://www.w3.org/2000/svg" height="134" xmlns:xlink="http://www.w3.org/1999/xlink" width="190">
    <defs/>
    <g transform="translate(-577,-234)">
        <g transform="translate(578,235)">
            <path transform="translate(6.67,-0)" id="shape1" d="M9,0L165.1,0C170.1,0,174.2,3.9,174.2,8.6L174.2,116.8C174.2,121.5,170.1,125.4,165.1,125.4L9,125.4C4,125.4,0,121.5,0,116.8L0,8.6C0,3.9,4,0,9,0z" fill="#000000"/>
            <path transform="translate(89.45,112.4)" id="shape2" d="M0,4.2C0,1.9,1.9,-0,4.3,-0C6.7,-0,8.6,1.9,8.6,4.2C8.6,6.6,6.7,8.5,4.3,8.5C1.9,8.5,0,6.6,0,4.2z" fill="#ffffff"/>
            <path transform="translate(0,125.8)" id="shape3" d="M0,4.2L4,6.2L182.5,6.2L188,4.2L172.9,0L91.8,1.9L7.7,1.1L0,4.2z" fill="#000000"/>
            <path transform="translate(-0,122.86)" id="shape4" d="M0,0L187.5,0L187.5,7.2L0,7.2L0,0z" fill="#717070"/>
            <path transform="translate(70.55,123.17)" id="shape5" d="M0,0L44.8,0L44.8,2.1L0,2.1L0,0z" fill="#eeeeee"/>
            <path transform="translate(15.86,6.52)" id="shape6" d="M8.1,0L148.1,0C152.6,0,156.3,3.2,156.3,7.1L156.3,95.5C156.3,99.4,152.6,102.6,148.1,102.6L8.1,102.6C3.6,102.6,0,99.4,0,95.5L0,7.1C0,3.2,3.6,0,8.1,0z" fill="#ffffff"/>
        </g>
        <g transform="translate(608,247.4)">
            <path stroke="#476482" id="shape7" d="M3,0L125,0C126.7,0,128,1.3,128,3L128,89.6C128,91.3,126.7,92.6,125,92.6L3,92.6C1.3,92.6,0,91.3,0,89.6L0,3C0,1.3,1.3,0,3,0z" fill="#476482"/>
            <path stroke="#ffffff" transform="translate(9.7,8.87)" id="shape8" d="M0,0L108.6,0L108.6,74.9L0,74.9L0,0z" fill="#ffffff"/>
            <path stroke="#696969" transform="translate(119.69,42.76)" id="shape9" d="M0,3.5C0,1.6,1.6,0,3.6,0C5.5,0,7.1,1.6,7.1,3.5C7.1,5.5,5.5,7.1,3.6,7.1C1.6,7.1,0,5.5,0,3.5z" fill="#595959"/>
            <path stroke="#98d6fa" transform="translate(21.64,17.35)" id="shape10" d="M.1,1.5L11.3,13.5L23.3,9.5L35.1,21.4L47.3,21.4C47.3,21.4,47.9,21.2,47.9,20.5C47.9,19.9,47.2,19.6,47.2,19.6L36,19.5L23.6,7.5L11.9,11.3L1.6,.2C1.6,.2,.9,-0.2,.3,.2C-0.2,.6,.1,1.5,.1,1.5z" fill="#98d6fa"/>
            <path stroke="#dae2e6" transform="translate(82.13,16.83)" id="shape11" d="M0,45L29.3,45L29.3,48.2L0,48.2L0,45zM0,14.5L29.3,14.5L29.3,11.3L0,11.3L0,14.5zM0,25.7L29.3,25.7L29.3,22.5L0,22.5L0,25.7zM0,37L29.3,37L29.3,33.8L0,33.8L0,37zM9.4,3.2L29.3,3.2L29.3,0L9.4,0L9.4,3.2zM0,59.5L29.3,59.5L29.3,56.3L0,56.3L0,59.5z" fill="#dae2e6"/>
            <path stroke="#e37557" transform="translate(19.95,34.7)" id="shape12" d="M0,0L4.8,0L4.8,42.2L0,42.2L0,0zM23.3,42.2L28.1,42.2L28.1,8.6L23.3,8.6L23.3,42.2zM11.6,42.2L16.4,42.2L16.4,11.1L11.6,11.1L11.6,42.2zM34.7,42.2L39.5,42.2L39.5,16.7L34.7,16.7L34.7,42.2zM46.3,42.2L51.1,42.2L51.1,19.2L46.3,19.2L46.3,42.2z" fill="#e37557"/>
        </g>
    </g>
</svg>
