<svg viewBox="0 0 194 154" xmlns="http://www.w3.org/2000/svg" height="154" xmlns:xlink="http://www.w3.org/1999/xlink" width="194">
    <defs/>
    <g transform="translate(1,1)">
        <path transform="translate(78.09,-0)" id="shape1" d="M6.8,10.1L18.8,8.7C18.8,8.7,21.2,12.4,21.2,14.9C21.2,17.3,21.2,18.8,21.2,18.8L23.1,17.1C23.1,17.1,24.7,16.3,25.6,15.3C26.4,14.2,26,11.1,25.2,10.9C24.3,10.7,27.6,7.6,24.5,5C21.4,2.3,19.3,3.5,19.3,3.5C19.3,3.5,19.8,.2,14.2,0C9.9,0,8.3,1.9,8.3,1.9C8.3,1.9,6.6,1,3.5,3.1C.4,5.2,2.7,8.5,2.7,8.5C2.7,8.5,1,8.6,.3,10.9C-0.5,13.2,.5,16.7,1.9,16.7C3.4,16.7,4.6,18.8,4.6,18.8C4.6,18.8,5.1,16.8,4.7,14.1C4.3,11.4,6.8,10.1,6.8,10.1z" fill="#595959"/>
        <path transform="translate(66.52,45.02)" id="shape2" d="M3.6,49.8C3.6,49.8,-2.9,14.5,1.6,6.5C6.2,-1.5,44.8,-2.6,51,5.9C57.2,14.3,50.7,49.8,50.7,49.8L3.6,49.8z" fill="#717070"/>
        <path transform="translate(88.04,28.48)" id="shape3" d="M0,0L0,5.9L7.7,5.9L7.7,0L0,0z" fill="#ffd4aa"/>
        <path transform="translate(78.16,7.59)" id="shape4" d="M4.1,9.3C4.1,9.3,2.3,8.4,.9,8.9C-0.4,9.5,-0.1,11.6,.6,13.1C1.3,14.6,3.9,13.6,3.9,13.6C3.9,13.6,3.9,15.7,4.7,18.4C5.6,21,7,22.7,8.7,23.9C10.3,25.2,13.3,25,15.9,24.7C18.4,24.5,21.4,22.1,22.1,19.4C22.9,16.8,22.9,13.8,22.9,13.8C22.9,13.8,24.9,13.5,25.7,12.5C26.4,11.5,26.4,9.3,24.7,8.8C23.1,8.2,22.3,9.9,22.3,9.9C22.3,9.9,22.7,5.4,20.8,2.7C19,0,13.5,-0.3,10.7,.2C7.9,.7,4.9,1.4,4.3,3.9C3.7,6.4,4.1,9.1,4.1,9.3z" fill="#e19a00"/>
        <path transform="translate(63.28,34.81)" id="shape5" d="M20.5,0C20.5,0,24.3,5.2,29,4.9C33.7,4.7,35.3,.2,35.3,.2C35.3,.2,41.6,1.9,46.8,4.2C51.9,6.6,56.5,15.1,58.1,19.3C59.8,23.6,62.5,36.7,62.8,39.3C62.9,41.8,55.1,40.2,55.1,40.2C55.1,40.2,52,23.1,50.4,20C48.8,17,43.1,12.8,43.1,12.8C43.1,12.8,44.5,22.1,44.7,24.8C44.8,27.5,47.8,47,47.8,47L13.2,48.2L15,13.7C15,13.7,9.5,22.5,8.2,26.6C7,30.7,5.8,42.4,5.8,42.4L.3,42.5C0,42.5,-0.8,31.6,2.5,23.4C5.8,15.2,8.5,8.3,12,5C15.5,1.8,19.8,.9,19.1,.9C18.4,.9,22.3,.4,20.5,0z" fill="#268ea8"/>
        <path transform="translate(137.3,33.46)" id="shape6" d="M0,3.9C0,1.7,1.7,0,3.9,0C6,0,7.8,1.7,7.8,3.9C7.8,6,6,7.8,3.9,7.8C1.7,7.8,0,6,0,3.9z" fill="#f9ca31"/>
        <path transform="translate(136.6,28.48)" id="shape7" d="M0,1.5C0,1.5,8.2,16,7.9,16C7.5,16,16.6,11.7,12.7,4.2C8.9,-3.3,0,1.5,0,1.5z" fill="#1bbc9d"/>
        <path transform="matrix(0.87,-0.5,0.5,0.87,146.9,30.3)" id="shape8" d="M0,0L6.9,0L6.9,6.1L0,6.1L0,0z" fill="#7eccb6"/>
        <path transform="matrix(0.87,-0.5,0.5,0.87,151.4,34.4)" id="shape9" d="M0,0L2,0L2,19L0,19L0,0z" fill="#1bbc9d"/>
        <path transform="translate(66.18,87.7)" id="shape10" d="M23.6,0C27.6,0,33,0,36.2,0C39.5,0,48.8,-0.2,53.2,1.6C57.5,3.4,57.4,8,52.1,8C46.6,8,28.3,7.6,28.3,7.6C28.3,7.6,13.3,7.9,7.6,7.9C1.8,7.9,-1.3,7.7,.5,4.1C2.3,.5,19.6,0,23.6,0z" fill="#3e3938"/>
        <path transform="translate(109.14,92.88)" id="shape11" d="M0,0L5,0L5,51L0,51L0,0z" fill="#3e3938"/>
        <path transform="translate(72.02,69.48)" id="shape12" d="M7.3,3.6C4.7,5,1.5,7.9,.4,11.7C-0.7,15.5,0,23.8,6.9,22.3C13.8,20.9,35,23.1,39.7,20.9C44.4,18.7,44.8,10.7,39.4,5.6C34,.4,25.2,0,20.5,0C15.8,0,9.9,2.2,7.3,3.6z" fill="#cce7df"/>
        <path transform="translate(0,73.23)" id="shape13" d="M0,0L192,0L192,6.3L0,6.3L0,0z" fill="#9e9f9f"/>
        <path transform="translate(2.58,79.09)" id="shape14" d="M0,0L189.2,0L189.2,3.7L0,3.7L0,0z" fill="#3e3938"/>
        <path transform="translate(9.37,79.51)" id="shape15" d="M0,0L6.8,0L6.8,71.8L0,71.8L0,0z" fill="#3e3938"/>
        <path transform="translate(74.56,94.29)" id="shape16" d="M0,0L5,0L5,49.6L0,49.6L0,0z" fill="#3e3938"/>
        <path transform="translate(84.22,142.55)" id="shape17" d="M2.3,0C2.3,0,1.9,1.8,.8,4C-0.3,6.1,-0.3,6.5,.8,7.6C1.9,8.7,2.6,8.6,5.2,8.6C7.7,8.6,10.2,7.6,9.1,5.1C8,2.5,7.4,0,7.4,0L2.3,0z" fill="#16a58a"/>
        <path transform="translate(74.11,83.73)" id="shape18" d="M0,5.9C.5,-0.2,9.8,-2.3,12.4,3C14.9,8.3,19.6,59.5,19.6,59.5L11.7,60.1C11.7,60.1,-0.3,12,0,5.9z" fill="#abdacc"/>
        <path transform="translate(96.88,142.55)" id="shape19" d="M2.3,0C2.3,0,1.9,1.8,.8,4C-0.3,6.1,-0.3,6.5,.8,7.6C1.9,8.7,2.6,8.6,5.2,8.6C7.7,8.6,10.2,7.6,9.1,5.1C8,2.5,7.4,0,7.4,0L2.3,0z" fill="#16a58a"/>
        <path transform="matrix(-1,0,0,1,109.5,84.2)" id="shape20" d="M.2,4.6C1.7,-1.4,10.7,-1.4,12.5,3.8C14.3,9,12.5,59.6,12.5,59.6L4.2,59.6C4.2,59.6,-1.2,10.6,.2,4.6z" fill="#abdacc"/>
        <path transform="translate(66.19,33.48)" id="shape21" d="M.5,0L55.1,0C55.3,0,55.5,.2,55.5,.5L55.5,31.5C55.5,31.8,55.3,32,55.1,32L.5,32C.2,32,0,31.8,0,31.5L0,.5C0,.2,.2,0,.5,0z" fill="#3e3938"/>
        <path transform="translate(61.13,68.49)" id="shape22" d="M4.7,0C4.7,0,2.7,0,.9,1.1C-0.9,2.2,.2,5.1,3,5.1C5.9,5.1,8.8,6.2,9.9,2.9C11,-0.3,4.7,0,4.7,0z" fill="#bc8000"/>
        <path transform="translate(67.04,71.07)" id="shape23" d="M0,0L52.6,0L52.6,2.5L0,2.5L0,0z" fill="#3e3938"/>
        <path transform="translate(90.13,58.39)" id="shape24" d="M0,0L6.9,0L6.9,13L0,13L0,0z" fill="#000000"/>
        <path transform="translate(78.95,68.95)" id="shape25" d="M0,0L28.8,0L28.8,4L0,4L0,0z" fill="#000000"/>
        <path transform="translate(80.99,43.61)" id="shape26" d="M.4,0L24.9,0C25.1,0,25.2,.2,25.2,.4L25.2,15.1C25.2,15.3,25.1,15.5,24.9,15.5L.4,15.5C.2,15.5,0,15.3,0,15.1L0,.4C0,.2,.2,0,.4,0z" fill="#000000"/>
        <path transform="translate(112.46,66.38)" id="shape27" d="M4.7,0C4.7,0,2.7,0,.9,1.1C-0.9,2.2,.2,5.1,3,5.1C5.9,5.1,8.8,6.2,9.9,2.9C11,-0.3,4.7,0,4.7,0z" fill="#bc8000"/>
        <g transform="translate(35.72,63.45)">
            <path transform="translate(4.89,0)" id="shape28" d="M0,0C.5,0,13.6,0,13.6,0C13.6,0,14.1,2.3,12.7,5.4C11.3,8.4,10.1,10.3,10.1,10.3L3.3,10.3C3.3,10.3,2.1,7.5,1,5.4C-0.2,3.3,0,0,0,0z" fill="#303030"/>
            <path transform="translate(0,0.99)" id="shape29" d="M6.5,.3C6.5,.3,1.6,-0.8,.5,1.1C-0.7,3,.5,5.8,2.6,6.3C4.7,6.7,7.5,6.5,6.8,6.5L7.5,4.9C7.5,4.9,3.3,5.6,2.3,4.4C1.4,3.2,1.6,1.6,3,1.6C3.7,1.6,3.3,1.4,5.6,1.8C8,2.3,7.9,1.2,6.5,.3z" fill="#000000"/>
        </g>
        <path transform="translate(178.12,79.51)" id="shape30" d="M0,0L6.8,0L6.8,72.5L0,72.5L0,0z" fill="#3e3938"/>
        <path transform="matrix(0.71,0.71,-0.71,0.71,160.9,48.8)" id="shape31" d="M0,0L2,0L2,29.1L0,29.1L0,0z" fill="#1bbc9d"/>
        <path transform="translate(135.91,68.95)" id="shape32" d="M0,0L21.2,0L21.2,4.3L0,4.3L0,0z" fill="#118972"/>
        <path transform="translate(158.63,47.66)" id="shape33" d="M0,2C0,.9,.9,0,2,0C3.1,0,4,.9,4,2C4,3.1,3.1,4,2,4C.9,4,0,3.1,0,2z" fill="#7eccb6"/>
        <path transform="translate(83.7,13.99)" id="shape34" d="M4.4,.3C3.7,0,1.5,0,1.1,0C.7,0,-0.4,1,.1,1C.6,1,4.4,1,4.5,1C4.7,1,4.8,.3,4.4,.3z" fill="#763c30"/>
        <path transform="translate(83.6,17.2)" id="shape35" d="M0,1.6C0,.7,.8,0,2.4,0C4,0,4.9,.8,4.9,1.7C4.9,2.7,4,3.5,2.4,3.5C.8,3.5,0,2.6,0,1.6z" fill="#ffffff"/>
        <path transform="matrix(-1,0,0,1,98.9,14)" id="shape36" d="M4.4,.3C3.7,0,1.5,0,1.1,0C.7,0,-0.4,1,.1,1C.6,1,4.4,1,4.5,1C4.7,1,4.8,.3,4.4,.3z" fill="#763c30"/>
        <path transform="translate(84.62,18.2)" id="shape37" d="M0,1.2C0,.6,.5,0,1.2,0C1.9,0,2.4,.6,2.4,1.2C2.4,1.9,1.9,2.5,1.2,2.5C.5,2.5,0,1.9,0,1.2z" fill="#595757"/>
        <path transform="translate(94,17.2)" id="shape38" d="M0,1.6C0,.7,.8,0,2.4,0C4,0,4.9,.8,4.9,1.7C4.9,2.7,4,3.5,2.4,3.5C.8,3.5,0,2.6,0,1.6z" fill="#ffffff"/>
        <path transform="translate(95.02,18.2)" id="shape39" d="M0,1.2C0,.6,.5,0,1.2,0C1.9,0,2.4,.6,2.4,1.2C2.4,1.9,1.9,2.5,1.2,2.5C.5,2.5,0,1.9,0,1.2z" fill="#595757"/>
        <path transform="translate(89.24,14.41)" id="shape40" d="M.2,0L2.3,2.4C2.3,2.4,.4,9.6,1.2,9.6C1.9,9.6,4.7,9.2,4.7,9.2C4.7,9.2,2.1,10.1,1.2,10.3C.2,10.5,-0.3,9.8,.2,7.9C.8,6,1.5,2.4,1.5,2.4L.2,0z" fill="#af5921"/>
        <path transform="translate(87.91,26.23)" id="shape41" d="M0,0C0,0,2.1,.4,3.6,.4C5.1,.4,7.5,0,7.5,0C7.5,0,5.1,1.1,3.6,1.1C2.1,1.1,0,0,0,0z" fill="#af5921"/>
        <path transform="translate(90.15,28.46)" id="shape42" d="M0,.3C0,.3,-0.2,0,1.3,0C2.8,0,2.8,.5,2.8,.5C2.8,.5,2.8,.8,1.3,.8C-0.2,.8,0,.3,0,.3z" fill="#af5921"/>
        <g transform="translate(82.29,15.83)">
            <path transform="translate(-0,0)" id="shape43" d="M0,3.7C0,1.7,1.7,0,3.7,0C5.8,0,7.4,1.7,7.4,3.7C7.4,5.8,5.8,7.5,3.7,7.5C1.7,7.5,0,5.8,0,3.7zM3.7,6.7C5.4,6.7,6.7,5.4,6.7,3.7C6.7,2.1,5.4,.7,3.7,.7C2.1,.7,.7,2.1,.7,3.7C.7,5.4,2.1,6.7,3.7,6.7z" fill="#868686"/>
            <path transform="translate(10.46,0)" id="shape44" d="M0,3.7C0,1.7,1.7,0,3.7,0C5.8,0,7.4,1.7,7.4,3.7C7.4,5.8,5.8,7.5,3.7,7.5C1.7,7.5,0,5.8,0,3.7zM3.7,6.7C5.4,6.7,6.7,5.4,6.7,3.7C6.7,2.1,5.4,.7,3.7,.7C2.1,.7,.7,2.1,.7,3.7C.7,5.4,2.1,6.7,3.7,6.7z" fill="#868686"/>
            <path transform="translate(7.04,3.02)" id="shape45" d="M0,0L3.8,0L3.8,1.1L0,1.1L0,0z" fill="#868686"/>
        </g>
    </g>
</svg>
