<svg viewBox="0 0 489 260" xmlns="http://www.w3.org/2000/svg" height="260" xmlns:xlink="http://www.w3.org/1999/xlink" width="489">
    <defs/>
    <g transform="translate(-385,-165)">
        <g transform="translate(392.8,238)">
            <path stroke="#eeeeee" transform="translate(35.6,22.39)" id="shape1" d="M30,-0.5C32,.7,47.4,12.8,47.2,12.7L38,51.8C38,51.8,30.8,61.9,30.2,61.9C29.6,61.9,10.7,51.8,9.6,51.4C8.6,50.9,-0.3,42.4,-0.4,41.3C-0.5,40.2,29.4,-0.5,30,-0.5z" fill="#eeeeee"/>
            <path stroke="#e19a00" transform="translate(71.15,11.74)" id="shape2" d="M30.3,3.6C30.3,3.9,28.6,8.9,28.3,9.5C28.1,10.2,26.7,11.2,26.8,11.8C26.8,12.3,27,15.3,27.4,16.4C27.7,17.6,25.6,17.3,24.6,17C23.6,16.7,23,18.4,22.4,19.3C21.8,20.2,20.4,20.6,19.5,21.8C18.6,22.9,15.8,20.7,14.3,18.9C12.7,17.1,11.5,18.4,9.6,19.3C7.7,20.3,5.7,21.9,5.7,21.9C5.7,21.9,1.1,15.4,0,11.9C.4,9.7,5.6,7.3,5.6,7.3L12,0L29.4,.7L30.3,3.6z" fill="#e19a00"/>
            <path stroke="#595959" transform="translate(74.68,-0)" id="shape3" d="M8.6,2.8C8.6,2.8,2.8,3.7,.9,8.9C-1,14.1,.7,19.5,.1,19.6C0,19.6,2.5,21.1,3.9,19.3C5.3,17.4,9.1,19.5,8.1,16.9C7.1,14.3,11.2,11.5,12,13.7C12.9,15.8,13.2,17.3,12.3,18.2C11.4,19.1,11.4,20.3,11.4,20.3C11.4,20.3,12.9,20,15.5,16.9C18.1,13.9,22.7,15,22.7,15C22.7,15,30,19.8,33.2,11.9C29.1,13.9,27.3,7.4,25.2,5.2C23,2.9,22.9,2.8,21.1,1.6C19.2,.5,14.7,-0.6,11.8,.4C8.9,1.4,7.7,2.9,8.6,2.8z" fill="#303030"/>
            <path stroke="#763c30" transform="translate(93.83,21.94)" id="shape4" d="M0,.6C.3,0,1.1,-0.1,1.6,.1C2,.3,2.2,.8,1.9,1.4C1.7,1.9,1.6,1.5,1.2,1.3C.8,1.1,-0.2,1.2,0,.6z" fill="#763c30"/>
            <path stroke="#763c30" transform="translate(93.88,19.66)" id="shape5" d="M0,.2C0,.2,-0.4,.8,.8,.6C1.9,.4,4.1,1.9,3.4,.8C2.7,-0.3,.1,0,0,.2z" fill="#763c30" stroke-width="0.666667"/>
            <path stroke="#ffb580" transform="translate(101.6,57.05)" id="shape6" d="M0,5.8C.6,5.7,3.3,5.8,3.3,5.8C3.3,5.8,4.9,2.9,4.8,2.4C4.8,1.8,7.1,.2,8.7,0C10.2,0,10.6,.9,11.4,2.4C12.2,3.8,10.4,9.2,9.5,10.1C8.7,11.1,5,10.2,5,10.2C5,10.2,1.5,12.2,1.5,12.2L0,5.8z" fill="#e19a00"/>
            <path stroke="#d26c2a" transform="translate(10.82,57.4)" id="shape7" d="M3.4,0L2.8,4.4C2.8,4.4,-0.2,6.8,0,8C.7,9.2,1,10.3,2.8,11.2C4.7,12.1,6.1,11,6.3,11C6.6,11,6.6,8.6,7.4,7.8C8.2,7.1,7.8,10.6,8.6,10.4C9.4,10.2,9.9,7.6,10.3,6.6C10.6,5.6,7.7,4.2,7.7,4.2L8.9,.9L3.4,0z" fill="#e19a00"/>
            <path stroke="#000000" transform="translate(-0,150.42)" id="shape8" d="M4.7,.1L0,4.1L3.8,10.4L6.6,9.6L10.4,18L14.1,20.5C14.1,20.5,20.3,20.8,21.2,20.1C22,19.4,22.3,18.3,19.9,17.9C17.5,17.6,15.1,14.3,15.1,14.3C15.1,14.3,14.4,4.2,14,3.9C13.6,3.6,4.6,-0.6,4.7,.1z" fill="#000000"/>
            <path stroke="#303030" transform="translate(2.11,83.45)" id="shape9" d="M32.5,0L23.3,33.2L.1,65.8L14.6,72.3L36.2,39.7L48.9,8.2L32.5,0z" fill="#303030"/>
            <path stroke="#000000" transform="translate(27.92,117.54)" id="shape10" d="M9.1,0C9.1,0,1.9,2.7,1.5,3.2C1,3.8,-0.3,5.6,.1,5.1C.1,5.1,3.4,10.1,4.5,10.5C5.7,10.9,7.4,10.1,7.4,10.1C7.4,10.1,8.8,16,9.6,16.6C10.4,17.3,16.6,22.8,18.7,24C20.7,25.1,21.3,22.7,20.8,21.9C20.3,21,17.4,15.6,17.4,15.6C17.4,15.6,15.7,9.2,16.1,8.1C16.4,6.9,9.7,-0.1,9.1,0z" fill="#000000"/>
            <path stroke="#303030" transform="translate(22.27,66.86)" id="shape11" d="M10.4,0L3.3,6.2C3.3,6.2,-1.2,7.9,.3,13.8C1.8,19.8,10.8,22.8,17.4,25.2C24,27.6,45.2,32.4,45,32.3L11.3,48.6L22.9,60.9C22.9,60.9,61.8,36,62.1,35.2C62.3,34.5,64.5,30.8,61.3,26.2C58.1,21.6,28.9,8.3,28.9,8.3L10.4,0z" fill="#303030"/>
            <path stroke="#7eccb6" transform="translate(54.5,32.9)" id="shape12" d="M19.3,0L24,1.1L24.3,2.9L22.3,5.2C22.3,5.2,19.7,22.3,10.8,26.4C1.9,30.6,6.6,43.7,6.6,43.6C-3.3,39.6,-1.4,30.9,8.2,23.5C17.8,16.1,18.7,7.3,18.7,7.3L19.9,4.7L19.3,0z" fill="#7eccb6"/>
            <path stroke="#cdcece" transform="translate(69.18,21.49)" id="shape13" d="M2.7,.1L7.2,12.2L1.1,14.9C1.1,14.9,-0.1,1.2,0,.8C.2,.4,2.2,.2,2.7,.1z" fill="#cdcece"/>
            <path stroke="#454545" transform="translate(10.02,17.3)" id="shape14" d="M59.3,5.5C59.3,5.5,56.8,3.7,51.8,2C46.7,.3,42.5,0,42.5,0C42.5,0,35.6,1.2,31,2.8C26.4,4.5,13.2,8.2,11.1,10.6C9.1,13.1,0,40.4,0,40.4C0,40.4,9.7,43.2,10.9,42.7C12.1,42.2,18.5,19.3,18.5,19.3L38.5,16.1L27.9,37.1C27.9,37.1,9.9,55.6,2.4,58C9.9,65.5,22.8,69.2,23.9,69.1C25,69,32.4,56.2,34.1,52.1C35.8,47.9,37.2,44.2,41.9,38.9C46.6,33.6,53,18.5,53.2,18.4C53.4,18.2,59.3,5.5,59.3,5.5z" fill="#454545"/>
            <path stroke="#454545" transform="translate(66.6,31.76)" id="shape15" d="M13.6,0C14.2,0,20.5,4.3,21.8,6.4C23,8.5,21.7,19,21.7,19C21.7,19,19.7,27.8,19.2,28.2C18.6,28.6,24.1,30.5,28.5,30.1C32.8,29.7,36.1,29.9,36.1,29.9L38.2,40.8L19,41.7L13.1,39.9L6,50.1L4.9,52.8L0,49.5L7.5,34.4L10.9,21.6L14.1,4.8L13.6,0z" fill="#454545"/>
            <path stroke="#303030" transform="translate(48.86,21.69)" id="shape16" d="M20.6,5.7C20.2,8.5,14.9,22.3,11.8,26.6C8.7,31,2.8,36.7,.4,38.7C-2,40.7,6.5,32.1,8.1,23.5C9.7,15,11.1,8.8,11.1,8.5C11,8.3,14.6,8.2,14.6,8.2L14.2,3.5C14.2,3.5,19.1,.1,20.5,0C21.8,-0.1,21,2.8,20.6,5.7z" fill="#303030"/>
            <path stroke="#303030" transform="translate(70.1,31.76)" id="shape17" d="M10.1,0C10.1,0,5.7,27.3,5.8,27.9C5.8,28.5,.7,41.5,0,42.3C-0.4,42.8,6.6,28.7,9.8,25.6C13.1,22.5,13.2,13.4,13.2,13.4L9.8,13.7L14.1,10.7L13.7,2.1L10.1,0z" fill="#303030"/>
            <path stroke="#cdcece" transform="translate(76.5,32.04)" id="shape18" d="M3.4,0C1.4,.7,-0.1,1.6,-0.1,1.6L1.9,6.7L4.2,2.2L3.4,0z" fill="#cdcece"/>
            <path stroke="#d08353" transform="translate(90.24,28.47)" id="shape19" d="M2.7,1.1C2.7,1.1,.4,.2,.1,0C-0.2,-0.1,.2,2.1,1.4,2.1C2.5,2.1,2.7,1.1,2.7,1.1z" fill="#d08353"/>
        </g>
        <g transform="translate(497.26,188.84)">
            <path stroke="#eeeeee" transform="translate(45.84,28.82)" id="shape20" d="M38.6,-0.7C41.2,.9,61,16.5,60.8,16.3L48.9,66.7C48.9,66.7,39.7,79.7,38.9,79.7C38.1,79.6,13.7,66.7,12.4,66.1C11.1,65.5,-0.4,54.6,-0.5,53.2C-0.6,51.8,37.9,-0.6,38.6,-0.7z" fill="#eeeeee"/>
            <path stroke="#e19a00" transform="translate(91.6,15.12)" id="shape21" d="M39,4.6C39,5,36.8,11.5,36.5,12.3C36.2,13.1,34.4,14.4,34.5,15.1C34.6,15.9,34.8,19.7,35.2,21.1C35.7,22.6,32.9,22.3,31.7,21.9C30.4,21.4,29.6,23.7,28.9,24.9C28.1,26,26.3,26.5,25.1,28C23.9,29.5,20.4,26.6,18.4,24.3C16.4,22,14.8,23.7,12.3,24.9C9.9,26.1,7.4,28.2,7.4,28.2C7.4,28.2,1.4,19.9,0,15.4C.6,12.5,7.3,9.4,7.3,9.4L15.5,0L37.9,.9L39,4.6z" fill="#e19a00"/>
            <path stroke="#595959" transform="translate(96.15,-0)" id="shape22" d="M11.1,3.6C11.1,3.6,3.6,4.8,1.2,11.5C-1.2,18.2,1,25.1,.2,25.2C0,25.2,3.2,27.2,5,24.8C6.8,22.4,11.7,25.2,10.4,21.8C9.1,18.4,14.4,14.8,15.5,17.6C16.6,20.3,17,22.3,15.8,23.4C14.6,24.6,14.7,26.2,14.7,26.2C14.7,26.2,16.6,25.8,20,21.8C23.4,17.9,29.2,19.3,29.2,19.3C29.2,19.3,38.6,25.5,42.7,15.3C37.5,17.9,35.2,9.6,32.4,6.7C29.6,3.8,29.5,3.6,27.1,2.1C24.7,.6,19,-0.8,15.2,.5C11.5,1.8,9.9,3.7,11.1,3.6z" fill="#303030"/>
            <path stroke="#763c30" transform="translate(120.8,28.24)" id="shape23" d="M0,.8C.4,0,1.5,-0.1,2,.1C2.6,.4,2.8,1.1,2.5,1.8C2.1,2.5,2.1,1.9,1.5,1.7C1,1.4,-0.3,1.5,0,.8z" fill="#763c30"/>
            <path stroke="#763c30" transform="translate(120.87,25.32)" id="shape24" d="M0,.2C0,.2,-0.5,1,1,.8C2.5,.5,5.3,2.4,4.4,1C3.5,-0.3,.1,0,0,.2z" fill="#763c30" stroke-width="0.666667"/>
            <path stroke="#ffb580" transform="translate(130.81,73.45)" id="shape25" d="M0,7.4C.7,7.4,4.3,7.4,4.3,7.4C4.3,7.4,6.3,3.7,6.2,3C6.2,2.4,9.1,.2,11.1,0C13.2,0,13.7,1.1,14.7,3C15.7,5,13.4,11.8,12.3,13C11.1,14.2,6.5,13.1,6.5,13.1C6.5,13.1,1.9,15.7,1.9,15.7L0,7.4z" fill="#e19a00"/>
            <path stroke="#d26c2a" transform="translate(13.93,73.9)" id="shape26" d="M4.4,0L3.7,5.6C3.7,5.6,-0.3,8.7,0,10.3C.9,11.9,1.3,13.2,3.7,14.4C6,15.6,7.8,14.2,8.1,14.2C8.5,14.2,8.5,11.1,9.5,10.1C10.5,9.1,10.1,13.7,11.1,13.4C12.1,13.1,12.8,9.8,13.2,8.5C13.7,7.2,9.9,5.4,9.9,5.4L11.5,1.1L4.4,0z" fill="#e19a00"/>
            <path stroke="#000000" transform="translate(-0,193.67)" id="shape27" d="M6,.1L0,5.2L4.9,13.4L8.5,12.3L13.4,23.2L18.1,26.4C18.1,26.4,26.2,26.8,27.3,25.9C28.4,25,28.7,23.5,25.6,23.1C22.6,22.7,19.4,18.4,19.4,18.4C19.4,18.4,18.5,5.5,18,5C17.5,4.6,5.9,-0.8,6,.1z" fill="#000000"/>
            <path stroke="#303030" transform="translate(2.72,107.45)" id="shape28" d="M41.9,0L30,42.8L.1,84.8L18.8,93L46.7,51.2L63,10.6L41.9,0z" fill="#303030"/>
            <path stroke="#000000" transform="translate(35.94,151.33)" id="shape29" d="M11.7,0C11.7,0,2.5,3.5,1.9,4.2C1.3,4.8,-0.4,7.2,.1,6.6C.1,6.6,4.3,13,5.8,13.5C7.3,14,9.5,13,9.5,13C9.5,13,11.3,20.6,12.3,21.4C13.3,22.3,21.4,29.4,24,30.8C26.6,32.3,27.4,29.2,26.8,28.1C26.2,27.1,22.4,20.1,22.4,20.1C22.4,20.1,20.2,11.9,20.7,10.4C21.2,8.9,12.5,-0.1,11.7,0z" fill="#000000"/>
            <path stroke="#303030" transform="translate(28.67,86.08)" id="shape30" d="M13.4,0L4.2,8C4.2,8,-1.5,10.1,.4,17.8C2.4,25.5,13.9,29.3,22.4,32.4C30.8,35.5,58.2,41.8,58,41.6L14.6,62.6L29.5,78.4C29.5,78.4,79.6,46.3,79.9,45.4C80.2,44.4,83,39.7,78.9,33.7C74.8,27.8,37.3,10.7,37.3,10.7L13.4,0z" fill="#303030"/>
            <path stroke="#7eccb6" transform="translate(70.17,42.36)" id="shape31" d="M24.8,0L30.9,1.4L31.3,3.8L28.7,6.7C28.7,6.7,25.4,28.7,13.9,34C2.4,39.4,8.5,56.3,8.5,56.1C-4.3,51,-1.9,39.7,10.5,30.2C22.9,20.7,24.1,9.4,24.1,9.4L25.6,6.1L24.8,0z" fill="#7eccb6"/>
            <path stroke="#cdcece" transform="translate(89.07,27.67)" id="shape32" d="M3.5,.2L9.3,15.7L1.4,19.2C1.4,19.2,-0.2,1.5,0,1C.2,.6,2.8,.3,3.5,.2z" fill="#cdcece"/>
            <path stroke="#454545" transform="translate(12.91,22.28)" id="shape33" d="M76.4,7.1C76.4,7.1,73.1,4.7,66.6,2.6C60.1,.4,54.8,0,54.8,0C54.8,0,45.9,1.6,39.9,3.6C34,5.7,17,10.5,14.4,13.7C11.7,16.8,0,52,0,52C0,52,12.5,55.7,14,55C15.5,54.3,23.8,24.9,23.8,24.9L49.6,20.7L35.9,47.7C35.9,47.7,12.7,71.6,3.1,74.7C12.7,84.3,29.3,89.1,30.7,89C32.1,88.9,41.7,72.4,43.9,67C46.1,61.6,47.9,56.9,53.9,50C60,43.2,68.2,23.8,68.5,23.6C68.8,23.4,76.4,7.1,76.4,7.1z" fill="#454545"/>
            <path stroke="#454545" transform="translate(85.74,40.89)" id="shape34" d="M17.5,0C18.3,0,26.4,5.5,28,8.2C29.7,10.9,27.9,24.5,27.9,24.5C27.9,24.5,25.4,35.8,24.7,36.3C23.9,36.9,31,39.3,36.6,38.8C42.3,38.3,46.5,38.4,46.5,38.4L49.2,52.5L24.4,53.7L16.8,51.4L7.8,64.5L6.3,68L0,63.7L9.6,44.3L14,27.8L18.2,6.2L17.5,0z" fill="#454545"/>
            <path stroke="#303030" transform="translate(62.91,27.93)" id="shape35" d="M26.5,7.3C26,10.9,19.2,28.6,15.2,34.3C11.2,39.9,3.7,47.2,.6,49.8C-2.6,52.4,8.4,41.3,10.4,30.3C12.4,19.3,14.3,11.3,14.2,11C14.2,10.7,18.8,10.6,18.8,10.6L18.2,4.5C18.2,4.5,24.6,.2,26.3,0C28.1,-0.1,27.1,3.7,26.5,7.3z" fill="#303030"/>
            <path stroke="#303030" transform="translate(90.25,40.89)" id="shape36" d="M13,0C13,0,7.4,35.2,7.4,36C7.5,36.7,.9,53.5,0,54.5C-0.5,55.2,8.5,37,12.7,33C16.9,29,17,17.2,17,17.2L12.6,17.6L18.1,13.8L17.6,2.7L13,0z" fill="#303030"/>
            <path stroke="#cdcece" transform="translate(98.49,41.26)" id="shape37" d="M4.4,0C1.8,1,-0.2,2.1,-0.2,2.1L2.5,8.6L5.4,2.8L4.4,0z" fill="#cdcece"/>
            <path stroke="#d08353" transform="translate(116.18,36.66)" id="shape38" d="M3.5,1.4C3.5,1.4,.5,.2,.1,0C-0.3,-0.2,.3,2.6,1.8,2.6C3.3,2.6,3.5,1.4,3.5,1.4z" fill="#d08353"/>
        </g>
        <g transform="translate(631,166)">
            <path stroke="#eeeeee" transform="translate(50.59,31.82)" id="shape39" d="M42.6,-0.8C45.5,1,67.3,18.2,67.1,18L54,73.6C54,73.6,43.8,87.9,42.9,87.9C42,87.9,15.1,73.6,13.7,73C12.2,72.3,-0.4,60.3,-0.5,58.7C-0.7,57.1,41.8,-0.7,42.6,-0.8z" fill="#eeeeee"/>
            <path stroke="#e19a00" transform="translate(101.1,16.69)" id="shape40" d="M43.1,5.1C43.1,5.5,40.6,12.7,40.3,13.5C39.9,14.4,38,15.9,38.1,16.7C38.1,17.5,38.4,21.7,38.9,23.3C39.4,25,36.4,24.6,35,24.2C33.6,23.7,32.7,26.2,31.8,27.5C31,28.7,29,29.3,27.7,31C26.4,32.6,22.5,29.4,20.3,26.8C18.1,24.3,16.3,26.1,13.6,27.5C10.9,28.8,8.1,31.1,8.1,31.1C8.1,31.1,1.6,21.9,0,17C.6,13.7,8,10.4,8,10.4L17.1,0L41.8,1L43.1,5.1z" fill="#e19a00"/>
            <path stroke="#595959" transform="translate(106.12,-0)" id="shape41" d="M12.2,3.9C12.2,3.9,4,5.3,1.3,12.7C-1.4,20.1,1,27.7,.2,27.8C0,27.8,3.6,30,5.5,27.4C7.5,24.8,12.9,27.8,11.5,24C10.1,20.3,15.9,16.4,17.1,19.4C18.3,22.4,18.8,24.6,17.4,25.9C16.1,27.1,16.3,28.9,16.3,28.9C16.3,28.9,18.3,28.4,22.1,24.1C25.8,19.7,32.2,21.3,32.2,21.3C32.2,21.3,42.6,28.1,47.2,16.9C41.4,19.7,38.8,10.6,35.8,7.4C32.7,4.2,32.6,4,29.9,2.3C27.2,.6,20.9,-0.9,16.8,.6C12.7,2,11,4.1,12.2,3.9z" fill="#303030"/>
            <path stroke="#763c30" transform="translate(133.33,31.17)" id="shape42" d="M0,.9C.4,0,1.6,-0.1,2.3,.1C2.9,.4,3.1,1.2,2.7,2C2.4,2.8,2.3,2.1,1.7,1.8C1.1,1.5,-0.3,1.6,0,.9z" fill="#763c30"/>
            <path stroke="#763c30" transform="translate(133.41,27.94)" id="shape43" d="M0,.2C0,.2,-0.5,1.1,1.1,.8C2.7,.5,5.8,2.7,4.8,1.1C3.8,-0.4,.2,0,0,.2z" fill="#763c30" stroke-width="0.666667"/>
            <path stroke="#ffb580" transform="translate(144.38,81.07)" id="shape44" d="M0,8.2C.8,8.1,4.7,8.2,4.7,8.2C4.7,8.2,6.9,4.1,6.9,3.3C6.8,2.6,10.1,.3,12.3,0C14.5,0,15.1,1.2,16.2,3.3C17.3,5.5,14.8,13.1,13.6,14.4C12.3,15.7,7.1,14.4,7.1,14.4C7.1,14.4,2.1,17.4,2.1,17.4L0,8.2z" fill="#e19a00"/>
            <path stroke="#d26c2a" transform="translate(15.37,81.56)" id="shape45" d="M4.8,0L4,6.2C4,6.2,-0.3,9.6,0,11.4C1,13.1,1.4,14.6,4,15.9C6.6,17.2,8.6,15.7,9,15.7C9.4,15.6,9.4,12.3,10.5,11.1C11.6,10,11.1,15.1,12.2,14.8C13.4,14.5,14.1,10.9,14.6,9.4C15.1,8,10.9,6,10.9,6L12.7,1.2L4.8,0z" fill="#e19a00"/>
            <path stroke="#000000" transform="translate(-0,213.76)" id="shape46" d="M6.7,.1L0,5.8L5.4,14.7L9.4,13.6L14.8,25.6L20,29.2C20,29.2,28.9,29.6,30.1,28.6C31.3,27.6,31.7,25.9,28.3,25.5C24.9,25,21.4,20.3,21.4,20.3C21.4,20.3,20.5,6,19.9,5.6C19.4,5.1,6.6,-0.9,6.7,.1z" fill="#000000"/>
            <path stroke="#303030" transform="translate(3,118.59)" id="shape47" d="M46.2,0L33.1,47.2L.1,93.6L20.8,102.7L51.5,56.5L69.5,11.7L46.2,0z" fill="#303030"/>
            <path stroke="#000000" transform="translate(39.67,167.03)" id="shape48" d="M12.9,0C12.9,0,2.7,3.9,2.1,4.6C1.5,5.3,-0.4,7.9,.1,7.3C.1,7.3,4.8,14.4,6.4,14.9C8.1,15.5,10.5,14.3,10.5,14.3C10.5,14.3,12.5,22.7,13.6,23.7C14.7,24.6,23.6,32.5,26.5,34C29.4,35.6,30.2,32.3,29.5,31.1C28.9,29.9,24.7,22.2,24.7,22.2C24.7,22.2,22.3,13.1,22.8,11.4C23.4,9.8,13.8,-0.1,12.9,0z" fill="#000000"/>
            <path stroke="#303030" transform="translate(31.65,95.01)" id="shape49" d="M14.8,0L4.6,8.8C4.6,8.8,-1.7,11.2,.4,19.7C2.6,28.1,15.3,32.4,24.7,35.8C34,39.2,64.2,46.1,64,45.9L16.1,69.1L32.6,86.5C32.6,86.5,87.9,51.1,88.2,50.1C88.5,49.1,91.6,43.8,87.1,37.2C82.5,30.7,41.1,11.8,41.1,11.8L14.8,0z" fill="#303030"/>
            <path stroke="#7eccb6" transform="translate(77.45,46.76)" id="shape50" d="M27.4,0L34.1,1.5L34.6,4.2L31.6,7.4C31.6,7.4,28,31.6,15.4,37.6C2.7,43.5,9.4,62.1,9.3,62C-4.7,56.3,-2,43.9,11.6,33.4C25.3,22.8,26.6,10.4,26.6,10.4L28.3,6.7L27.4,0z" fill="#7eccb6"/>
            <path stroke="#cdcece" transform="translate(98.31,30.54)" id="shape51" d="M3.9,.2L10.2,17.3L1.5,21.2C1.5,21.2,-0.2,1.7,0,1.1C.3,.6,3.1,.3,3.9,.2z" fill="#cdcece"/>
            <path stroke="#454545" transform="translate(14.24,24.59)" id="shape52" d="M84.3,7.9C84.3,7.9,80.7,5.2,73.6,2.8C66.4,.4,60.4,0,60.4,0C60.4,0,50.7,1.7,44.1,4C37.5,6.3,18.8,11.6,15.8,15.1C12.9,18.6,0,57.4,0,57.4C0,57.4,13.8,61.4,15.5,60.7C17.1,59.9,26.3,27.5,26.3,27.5L54.8,22.9L39.6,52.7C39.6,52.7,14.1,79.1,3.4,82.5C14.1,93,32.4,98.4,33.9,98.2C35.5,98.1,46,79.9,48.5,74C50.9,68,52.9,62.8,59.5,55.2C66.2,47.7,75.2,26.3,75.6,26.1C75.9,25.9,84.3,7.9,84.3,7.9z" fill="#454545"/>
            <path stroke="#454545" transform="translate(94.64,45.13)" id="shape53" d="M19.3,0C20.2,0,29.1,6.1,30.9,9C32.7,12,30.8,27.1,30.8,27.1C30.8,27.1,28,39.5,27.2,40.1C26.4,40.7,34.2,43.3,40.4,42.8C46.6,42.2,51.3,42.4,51.3,42.4L54.3,57.9L27,59.3L18.6,56.7L8.6,71.2L6.9,75L0,70.3L10.6,48.9L15.5,30.7L20.1,6.9L19.3,0z" fill="#454545"/>
            <path stroke="#303030" transform="translate(69.44,30.82)" id="shape54" d="M29.3,8.1C28.7,12.1,21.2,31.6,16.7,37.9C12.3,44.1,4,52.1,.6,55C-2.8,57.8,9.3,45.6,11.5,33.5C13.7,21.3,15.7,12.4,15.7,12.1C15.7,11.8,20.7,11.7,20.7,11.7L20.1,5C20.1,5,27.2,.2,29.1,0C31,-0.1,29.9,4,29.3,8.1z" fill="#303030"/>
            <path stroke="#303030" transform="translate(99.61,45.13)" id="shape55" d="M14.3,0C14.3,0,8.1,38.8,8.2,39.7C8.3,40.5,1,59,0,60.1C-0.6,60.9,9.3,40.8,14,36.4C18.7,32,18.7,19,18.7,19L13.9,19.4L20,15.2L19.5,3L14.3,0z" fill="#303030"/>
            <path stroke="#cdcece" transform="translate(108.71,45.54)" id="shape56" d="M4.8,0C2,1.1,-0.2,2.3,-0.2,2.3L2.7,9.5L6,3.1L4.8,0z" fill="#cdcece"/>
            <path stroke="#d08353" transform="translate(128.23,40.46)" id="shape57" d="M3.9,1.6C3.9,1.6,.5,.2,.1,0C-0.3,-0.2,.3,2.9,1.9,2.9C3.6,2.9,3.9,1.6,3.9,1.6z" fill="#d08353"/>
        </g>
        <path stroke="#7e7e7e" transform="translate(386,408)" id="shape58" d="M0,0L487,0L487,11L0,11L0,0z" fill="#696969"/>
    </g>
</svg>
