<svg width="155" height="150" viewBox="0 0 155 150" fill="none" xmlns="http://www.w3.org/2000/svg">
<circle cx="86" cy="69" r="69" fill="#C5E3FF"/>
<circle cx="69" cy="81" r="67.5" stroke="#5E5E60" stroke-width="3"/>
<path d="M57.4004 51.9C59.5155 51.9 61.544 52.7402 63.0396 54.2358C64.5352 55.7315 65.3754 57.7599 65.3754 59.875C65.3754 61.9901 64.5352 64.0186 63.0396 65.5142C61.544 67.0098 59.5155 67.85 57.4004 67.85C55.2853 67.85 53.2568 67.0098 51.7612 65.5142C50.2656 64.0186 49.4254 61.9901 49.4254 59.875C49.4254 57.7599 50.2656 55.7315 51.7612 54.2358C53.2568 52.7402 55.2853 51.9 57.4004 51.9ZM57.4004 54.8C56.0544 54.8 54.7636 55.3347 53.8118 56.2865C52.8601 57.2382 52.3254 58.5291 52.3254 59.875C52.3254 61.221 52.8601 62.5118 53.8118 63.4636C54.7636 64.4153 56.0544 64.95 57.4004 64.95C58.7464 64.95 60.0372 64.4153 60.989 63.4636C61.9407 62.5118 62.4754 61.221 62.4754 59.875C62.4754 58.5291 61.9407 57.2382 60.989 56.2865C60.0372 55.3347 58.7464 54.8 57.4004 54.8ZM59.3811 70.75H47.2504C46.0967 70.75 44.9903 71.2083 44.1745 72.0241C43.3587 72.8399 42.9004 73.9463 42.9004 75.1V76.55C42.9004 81.1523 46.3978 85.8648 52.5139 87.5236C53.0649 86.5347 53.845 85.685 54.7788 85.0499C48.9904 84.1306 45.8004 80.2011 45.8004 76.55V75.1C45.8004 74.7155 45.9532 74.3466 46.2251 74.0747C46.497 73.8028 46.8658 73.65 47.2504 73.65H58.3429C58.5517 72.6234 58.9055 71.649 59.3811 70.75ZM69.0004 67.85C67.2637 67.847 65.5737 68.4122 64.1882 69.4594C62.8027 70.5066 61.7979 71.9784 61.327 73.65C61.0174 74.7452 60.9457 75.8939 61.1166 77.019C61.2875 78.1442 61.697 79.2198 62.3177 80.1736C62.9384 81.1275 63.756 81.9376 64.7155 82.5496C65.675 83.1615 66.7543 83.5612 67.881 83.7217C68.4146 82.6893 69.0584 81.7207 69.7979 80.8362C68.8308 80.9894 67.84 80.8605 66.9443 80.465C66.0479 80.0674 65.286 79.4185 64.7506 78.597C64.2152 77.7754 63.9292 76.8164 63.9273 75.8358C63.9255 74.8552 64.2077 73.895 64.74 73.0714C65.2722 72.2478 66.0317 71.5961 66.9265 71.195C67.8214 70.7939 68.8132 70.6606 69.7822 70.8113C70.7512 70.962 71.6557 71.3902 72.3865 72.0441C73.1173 72.698 73.6429 73.5496 73.8999 74.4959C74.1569 75.4423 74.1343 76.4428 73.8347 77.3765C74.8257 76.7803 75.8788 76.294 76.9754 75.9265V75.825C76.9744 73.973 76.3296 72.1789 75.1513 70.75C73.6897 68.981 71.477 67.85 69.0004 67.85ZM94.1637 80.6738C93.4823 79.8787 92.7247 79.1521 91.9017 78.5046C92.0989 77.8579 92.2004 77.1996 92.2004 76.55V75.1C92.2004 74.7155 92.0476 74.3466 91.7757 74.0747C91.5038 73.8028 91.135 73.65 90.7504 73.65H79.6579C79.453 72.6389 79.1044 71.6623 78.6226 70.75H90.7504C91.9041 70.75 93.0105 71.2083 93.8263 72.0241C94.6421 72.8399 95.1004 73.9463 95.1004 75.1V76.55C95.1004 77.942 94.7814 79.3456 94.1637 80.6738ZM66.7007 86.7H58.8504C58.2787 86.6985 57.7124 86.81 57.1839 87.028C56.6555 87.2461 56.1753 87.5665 55.7711 87.9707C55.3668 88.3749 55.0465 88.8551 54.8284 89.3835C54.6103 89.912 54.4989 90.4783 54.5004 91.05V92.5C54.5004 98.2159 59.8944 104.1 69.0004 104.1C70.2213 104.1 71.3784 103.993 72.463 103.796C71.4538 103.036 70.5379 102.16 69.7341 101.186C69.4897 101.195 69.245 101.2 69.0004 101.2C61.5532 101.2 57.4004 96.6702 57.4004 92.5V91.05C57.4004 90.6655 57.5532 90.2966 57.8251 90.0247C58.097 89.7528 58.4658 89.6 58.8504 89.6H66.1642C66.2527 88.6188 66.4324 87.648 66.7007 86.7ZM88.5754 59.875C88.5754 57.7599 87.7352 55.7315 86.2396 54.2358C84.744 52.7402 82.7155 51.9 80.6004 51.9C78.4853 51.9 76.4568 52.7402 74.9612 54.2358C73.4656 55.7315 72.6254 57.7599 72.6254 59.875C72.6254 61.9901 73.4656 64.0186 74.9612 65.5142C76.4568 67.0098 78.4853 67.85 80.6004 67.85C82.7155 67.85 84.744 67.0098 86.2396 65.5142C87.7352 64.0186 88.5754 61.9901 88.5754 59.875ZM75.5254 59.875C75.5254 58.5291 76.0601 57.2382 77.0118 56.2865C77.9636 55.3347 79.2544 54.8 80.6004 54.8C81.9464 54.8 83.2372 55.3347 84.189 56.2865C85.1407 57.2382 85.6754 58.5291 85.6754 59.875C85.6754 61.221 85.1407 62.5118 84.189 63.4636C83.2372 64.4153 81.9464 64.95 80.6004 64.95C79.2544 64.95 77.9636 64.4153 77.0118 63.4636C76.0601 62.5118 75.5254 61.221 75.5254 59.875ZM82.0504 104.1C85.5115 104.1 88.8308 102.725 91.2781 100.278C93.7255 97.8304 95.1004 94.5111 95.1004 91.05C95.1004 87.589 93.7255 84.2696 91.2781 81.8223C88.8308 79.3749 85.5115 78 82.0504 78C78.5893 78 75.27 79.3749 72.8226 81.8223C70.3753 84.2696 69.0004 87.589 69.0004 91.05C69.0004 94.5111 70.3753 97.8304 72.8226 100.278C75.27 102.725 78.5893 104.1 82.0504 104.1ZM82.0504 83.8C82.435 83.8 82.8038 83.9528 83.0757 84.2247C83.3476 84.4967 83.5004 84.8655 83.5004 85.25V89.6H87.8504C88.235 89.6 88.6038 89.7528 88.8757 90.0247C89.1476 90.2966 89.3004 90.6655 89.3004 91.05C89.3004 91.4346 89.1476 91.8034 88.8757 92.0753C88.6038 92.3473 88.235 92.5 87.8504 92.5H83.5004V96.85C83.5004 97.2346 83.3476 97.6034 83.0757 97.8753C82.8038 98.1473 82.435 98.3 82.0504 98.3C81.6658 98.3 81.297 98.1473 81.0251 97.8753C80.7532 97.6034 80.6004 97.2346 80.6004 96.85V92.5H76.2504C75.8658 92.5 75.497 92.3473 75.2251 92.0753C74.9532 91.8034 74.8004 91.4346 74.8004 91.05C74.8004 90.6655 74.9532 90.2966 75.2251 90.0247C75.497 89.7528 75.8658 89.6 76.2504 89.6H80.6004V85.25C80.6004 84.8655 80.7532 84.4967 81.0251 84.2247C81.297 83.9528 81.6658 83.8 82.0504 83.8Z" fill="black"/>
</svg>
