<svg width="73" height="79" viewBox="0 0 73 79" fill="none" xmlns="http://www.w3.org/2000/svg">
<path d="M36.25 0L35.6885 0.27832C35.6885 0.27832 20.9375 7.64648 1.25 7.64648H0V8.89648C0 37.9004 8.86231 55.4346 17.8125 65.6543C26.7578 75.8789 35.8643 78.8379 35.8643 78.8379L36.25 78.96L36.6357 78.8379C36.6357 78.8379 45.7422 75.8789 54.6875 65.6543C63.6377 55.4346 72.5 37.9004 72.5 8.89648V7.64648H71.25C51.5625 7.64648 36.8115 0.27832 36.8115 0.27832L36.25 0ZM36.25 2.76367C37.6855 3.45703 51.3525 9.78516 69.9561 10.0879C69.707 37.832 61.2402 54.3799 52.8125 64.0137C44.5654 73.4326 36.8262 76.0791 36.25 76.2744C35.6738 76.0791 27.9346 73.4326 19.6875 64.0137C11.2598 54.3799 2.79297 37.832 2.54395 10.0879C21.1475 9.78516 34.8145 3.45703 36.25 2.76367ZM33.9062 9.21387L33.4717 9.29199L33.3545 9.34082L32.5928 10.1611L32.7979 11.2598L33.8037 11.7627L34.2383 11.6797L34.3555 11.6357L35.1123 10.8105L34.9072 9.71191L33.9062 9.21387ZM39.0039 9.30664L37.8906 9.43848L37.3291 10.4102L37.7734 11.4355L38.1543 11.6553L38.2715 11.6992L39.3848 11.5674L39.9414 10.5957L39.502 9.56543L39.1211 9.3457L39.0039 9.30664ZM29.1406 10.8691L28.7061 10.9229L28.5889 10.957L27.7734 11.7285L27.9053 12.8418L28.8721 13.4033L29.3115 13.3496L29.4336 13.3154L30.2441 12.5439L30.1123 11.4307L29.1406 10.8691ZM43.7793 10.9229L42.6758 11.123L42.1777 12.124L42.6807 13.125L43.0713 13.3203L43.1934 13.3545L44.2969 13.1543L44.7998 12.1582L44.2969 11.1572L43.9014 10.957L43.7793 10.9229ZM24.2969 12.2607L23.8525 12.2803L23.7305 12.3145L22.8711 13.0322L22.9297 14.1504L23.8672 14.7705L24.3018 14.7461L24.4287 14.7168L25.2881 13.999L25.2246 12.8809L24.2969 12.2607ZM48.6719 12.2803L47.5781 12.5146L47.1094 13.5352L47.6465 14.5166L48.0469 14.6973L48.1689 14.7314L49.2627 14.4971L49.7266 13.4766L49.1943 12.4951L48.7891 12.3145L48.6719 12.2803ZM19.3359 13.3691L18.9014 13.3789L18.7744 13.4033L17.8906 14.0918L17.9102 15.21L18.8232 15.8643L19.2627 15.8545L19.3896 15.8301L20.2734 15.1465L20.249 14.0234L19.3359 13.3691ZM53.5742 13.3838L52.5 13.7012L52.1094 14.751L52.7148 15.6934L53.1299 15.8447L53.2568 15.8691L54.3311 15.5518L54.7168 14.502L54.1064 13.5596L53.6963 13.4082L53.5742 13.3838ZM58.5693 14.2139L57.5098 14.5801L57.168 15.6445L57.8125 16.5576L58.2324 16.6895L58.3594 16.709L59.4141 16.3477L59.7607 15.2832L59.1113 14.3652L58.6914 14.2334L58.5693 14.2139ZM13.9014 14.2383L13.7744 14.2578L12.8711 14.9121L12.8467 16.0303L13.7305 16.7188L14.1748 16.7285L14.2969 16.709L15.2051 16.0498L15.2246 14.9316L14.3408 14.248L13.9014 14.2383ZM9.02344 14.8096C8.99414 14.8047 8.96484 14.8096 8.94043 14.8096C8.86719 14.8145 8.84766 14.8145 8.87695 14.8145L7.7002 14.8877V16.1182C7.69043 16.6357 8.00293 17.1045 8.48633 17.2949C8.96484 17.4854 9.5166 17.3633 9.86816 16.9824C10.249 16.6357 10.3809 16.0889 10.1953 15.6055C10.0049 15.1221 9.54102 14.8047 9.02344 14.8096ZM63.4375 14.8096C62.9199 14.8193 62.4609 15.1562 62.29 15.6445C62.1191 16.1377 62.2705 16.6797 62.6709 17.0166C62.6709 17.0166 62.6709 17.0166 62.6758 17.0215C63.0322 17.3779 63.5742 17.4805 64.043 17.2803C64.5068 17.0801 64.8096 16.6211 64.8047 16.1133V14.8877L63.6279 14.8145C63.6572 14.8145 63.6328 14.8145 63.5596 14.8096C63.5205 14.8047 63.4814 14.8047 63.4375 14.8096ZM63.1299 19.9854L62.251 20.6787L62.1387 21.1084L62.1289 21.2354L62.5439 22.2754L63.6279 22.5635L64.5068 21.8652L64.6191 21.4404L64.6289 21.3135L64.2139 20.2734L63.1299 19.9854ZM8.69141 20.0879L7.91016 20.8887L7.85156 21.3184V21.4111L7.85645 21.4893L8.43262 22.4512L9.5459 22.5684L10.3076 21.7432L10.3516 21.3037V21.2646L10.3467 21.2256V21.2158L9.80469 20.2393L8.69141 20.0879ZM62.6807 25.1709L61.7578 25.8057L61.6162 26.2207L61.5967 26.3477L61.9482 27.4121L63.0078 27.7734L63.9258 27.1387L64.0674 26.7236L64.0869 26.5918L63.7451 25.5322L62.6807 25.1709ZM9.05273 25.3613L8.34473 26.2305L8.3252 26.6699L8.33984 26.7969L8.96973 27.7246L10.0928 27.7686L10.8008 26.9043L10.8203 26.4648L10.8008 26.3379L10.1709 25.4102L9.05273 25.3613ZM61.8555 30.3027L60.8936 30.8789L60.7227 31.2842L60.6982 31.4111L60.9717 32.4951L62.0068 32.9248L62.9688 32.3535L63.1396 31.9434L63.1641 31.8213L62.8906 30.7324L61.8555 30.3027ZM10.918 30.5664L9.7998 30.5908L9.14551 31.4941L9.15527 31.9385L9.17969 32.0605L9.86328 32.9492L10.9863 32.9248L11.6406 32.0166L11.6309 31.5771L11.6064 31.4502L10.918 30.5664ZM60.6445 35.3613L59.6436 35.8691L59.4482 36.2646L59.4141 36.3916L59.6143 37.4902L60.6201 37.9883L61.6211 37.4805L61.8164 37.085L61.8506 36.9629L61.6455 35.8643L60.6445 35.3613ZM12.0312 35.6543L10.918 35.7471L10.3223 36.6943L10.3564 37.1338L10.3906 37.2559L11.1328 38.0957L12.251 38.0029L12.8467 37.0557L12.8076 36.6162L12.7734 36.4941L12.0312 35.6543ZM59.0674 40.3125L58.0273 40.7178L57.793 41.0938L57.749 41.2109L57.8369 42.3291L58.7891 42.9199L59.834 42.5098L60.0684 42.1387L60.1172 42.0215L60.0195 40.9033L59.0674 40.3125ZM13.5107 40.6201L12.4072 40.8203L11.9092 41.8262L11.9873 42.2559L12.0312 42.3779L12.8516 43.1396L13.9551 42.9395L14.4531 41.9385L14.375 41.5088L14.3311 41.3818L13.5107 40.6201ZM57.0312 45.1074L55.9717 45.459L55.7178 45.8252L55.6641 45.9424L55.708 47.0605L56.626 47.6953L57.6904 47.3389L57.9395 46.9775L57.9932 46.8604L57.9492 45.7373L57.0312 45.1074ZM15.4492 45.4395L14.3701 45.7275L13.9502 46.7676L14.0625 47.1924L14.1211 47.3096L15 48.0029L16.0791 47.7148L16.499 46.6748L16.3867 46.25L16.3281 46.1377L15.4492 45.4395ZM54.6729 49.7168L53.5742 49.9463L53.2812 50.2734L53.2178 50.3809L53.125 51.499L53.96 52.2412L55.0586 52.0166L55.3516 51.6846L55.415 51.5771L55.5078 50.459L54.6729 49.7168ZM17.7344 50.0732L16.6943 50.498L16.4062 51.5771L16.5771 51.9873L16.6406 52.0947L17.6025 52.6709L18.6377 52.2559L18.9258 51.167L18.7549 50.7617L18.6914 50.6543L17.7344 50.0732ZM51.875 54.1064L50.7666 54.2676L50.459 54.5801L50.3857 54.6875L50.2295 55.7959L51.0205 56.5869L52.1289 56.4209L52.4414 56.1084L52.5146 56.0059L52.6709 54.8975L51.875 54.1064ZM20.5664 54.4434L19.5557 54.9268L19.3359 56.0254L19.5264 56.4209L19.6045 56.5283L20.5908 57.0459L21.6016 56.5674L21.8213 55.4639L21.6309 55.0684L21.5576 54.9658L20.5664 54.4434ZM48.75 58.2471L47.6318 58.291L47.29 58.5645L47.207 58.6621L46.9336 59.7461L47.6367 60.6152L48.7549 60.5762L49.0967 60.2979L49.1797 60.2002L49.4531 59.1113L48.75 58.2471ZM23.7451 58.5156L22.7979 59.1113L22.71 60.2295L22.9443 60.6006L23.0273 60.6982L24.0771 61.0986L25.0195 60.5029L25.1123 59.3848L24.8779 59.0137L24.79 58.916L23.7451 58.5156ZM44.1455 62.0215L43.7744 62.2607L43.6865 62.3486L43.3008 63.4033L43.916 64.3359L45.0342 64.4043L45.4053 64.165L45.4932 64.0771L45.8789 63.0225L45.2637 62.085L44.1455 62.0215ZM27.3438 62.2363L26.4648 62.9248L26.499 64.0479L26.7676 64.3896L26.8652 64.4775L27.9492 64.7656L28.8281 64.0723L28.7988 62.9541L28.5254 62.6074L28.4326 62.5244L27.3438 62.2363ZM40.3027 65.3857L39.9121 65.5908L39.8096 65.6689L39.3311 66.6797L39.8486 67.6709L40.957 67.8467L41.3477 67.6465L41.4453 67.5684L41.9287 66.5527L41.4062 65.5615L40.3027 65.3857ZM31.3428 65.5322L30.5322 66.3037L30.6689 67.417L30.9717 67.7393L31.0742 67.8125L32.1826 67.998L32.9883 67.2217L32.8564 66.1133L32.5537 65.791L32.4463 65.7178L31.3428 65.5322ZM36.1523 68.2031C35.5713 68.2129 35.0781 68.623 34.9561 69.1846C34.834 69.751 35.1123 70.3271 35.6299 70.5762C35.6299 70.5762 35.6445 70.5859 35.6836 70.6055L36.2451 70.8838L36.8555 70.5762C37.3828 70.3223 37.6611 69.7314 37.5195 69.1602C37.3828 68.5889 36.8604 68.1885 36.2744 68.208C36.2695 68.2031 36.2695 68.2031 36.2646 68.208C36.2256 68.2031 36.1865 68.2031 36.1523 68.2031Z" fill="#3C87CD"/>
<path d="M36.05 45.3965C34.7667 45.3965 33.575 45.1798 32.475 44.7465C31.3917 44.2965 30.5167 43.6382 29.85 42.7715C29.2 41.9048 28.8583 40.8632 28.825 39.6465C28.825 39.4965 28.875 39.3715 28.975 39.2715C29.075 39.1548 29.2083 39.0965 29.375 39.0965H32.75C32.9667 39.0965 33.1333 39.1548 33.25 39.2715C33.3833 39.3882 33.5 39.5632 33.6 39.7965C33.8667 41.1298 34.725 41.7965 36.175 41.7965C37.0083 41.7965 37.65 41.5215 38.1 40.9715C38.55 40.4215 38.775 39.6298 38.775 38.5965V31.3715H30.675C30.5083 31.3715 30.3583 31.3132 30.225 31.1965C30.1083 31.0632 30.05 30.9132 30.05 30.7465V28.2715C30.05 28.0882 30.1083 27.9382 30.225 27.8215C30.3583 27.7048 30.5083 27.6465 30.675 27.6465H42.775C42.9583 27.6465 43.1083 27.7048 43.225 27.8215C43.3583 27.9382 43.425 28.0882 43.425 28.2715V38.7215C43.425 40.1382 43.1167 41.3465 42.5 42.3465C41.8833 43.3465 41.0167 44.1048 39.9 44.6215C38.7833 45.1382 37.5 45.3965 36.05 45.3965Z" fill="#3C87CD"/>
</svg>
