<svg width="138" height="159" viewBox="0 0 138 159" fill="none" xmlns="http://www.w3.org/2000/svg">
<circle cx="69" cy="69" r="69" fill="#C5E3FF"/>
<circle cx="69" cy="90" r="67.5" stroke="#5E5E60" stroke-width="3"/>
<path d="M70.7461 86.7891L79.5879 79.793C79.7637 79.6523 80.0156 79.7812 80.0156 80.0039V85.0078H88.2188V67.7812H76.2656V75.2812C76.2656 75.4102 76.1602 75.5156 76.0312 75.5156H72.5156C72.3867 75.5156 72.2812 75.4102 72.2812 75.2812V65.4375C72.2812 64.5293 73.0137 63.7969 73.9219 63.7969H90.5625C91.4707 63.7969 92.2031 64.5293 92.2031 65.4375V108.562C92.2031 109.471 91.4707 110.203 90.5625 110.203H73.9219C73.0137 110.203 72.2812 109.471 72.2812 108.562V98.7188C72.2812 98.5898 72.3867 98.4844 72.5156 98.4844H76.0312C76.1602 98.4844 76.2656 98.5898 76.2656 98.7188V106.219H88.2188V88.9922H80.0156V93.9961C80.0156 94.2188 79.7578 94.3477 79.5879 94.207L70.7461 87.2109C70.6055 87.1055 70.6055 86.8945 70.7461 86.7891ZM47.4375 63.7969H64.0781C64.9863 63.7969 65.7188 64.5293 65.7188 65.4375V75.2812C65.7188 75.4102 65.6133 75.5156 65.4844 75.5156H61.9688C61.8398 75.5156 61.7344 75.4102 61.7344 75.2812V67.7812H49.7812V85.0078H57.9844V80.0039C57.9844 79.7812 58.2363 79.6523 58.4121 79.793L67.2598 86.7891C67.3945 86.8945 67.3945 87.0996 67.2598 87.2051L58.4121 94.207C58.2422 94.3418 57.9844 94.2188 57.9844 93.9961V88.9922H49.7812V106.219H61.7344V98.7188C61.7344 98.5898 61.8398 98.4844 61.9688 98.4844H65.4844C65.6133 98.4844 65.7188 98.5898 65.7188 98.7188V108.562C65.7188 109.471 64.9863 110.203 64.0781 110.203H47.4375C46.5293 110.203 45.7969 109.471 45.7969 108.562V65.4375C45.7969 64.5293 46.5293 63.7969 47.4375 63.7969Z" fill="black"/>
</svg>
