<svg width="85" height="100" viewBox="0 0 85 100" fill="none" xmlns="http://www.w3.org/2000/svg">
<path d="M82.9212 19.0054C82.1549 18.134 81.0732 17.6382 79.9314 17.5931C71.1123 17.3678 59.9344 7.93269 52.5576 4.22176C47.9903 1.95312 44.9855 0.435698 42.7168 0.0450723C42.4915 0.0150242 42.2511 0 42.0257 0C41.8004 0 41.56 0.0150242 41.3346 0.0450723C39.066 0.450721 36.0612 1.95312 31.5089 4.23678C24.1171 7.93269 12.9542 17.3678 4.12009 17.5931C2.97826 17.6382 1.89653 18.134 1.13031 19.0054C0.349057 19.8768 -0.0415697 21.0337 0.00350336 22.2206C1.91156 60.7722 15.7337 84.6304 39.9975 98.4826C40.6285 98.8431 41.3196 99.0385 42.0257 99.0385C42.7319 99.0385 43.423 98.8431 44.054 98.4826C68.3178 84.6304 82.1399 60.7722 84.048 22.2206C84.093 21.0337 83.7024 19.8768 82.9212 19.0054Z" fill="#3C87CD"/>
<path d="M26.3057 54.6695C26.1457 54.6695 26.0017 54.6135 25.8737 54.5015C25.7617 54.3735 25.7057 54.2295 25.7057 54.0695V38.4695C25.7057 38.2935 25.7617 38.1495 25.8737 38.0375C26.0017 37.9255 26.1457 37.8695 26.3057 37.8695H28.8497C29.2497 37.8695 29.5217 38.0215 29.6657 38.3255L35.5217 47.5415V38.4695C35.5217 38.2935 35.5777 38.1495 35.6897 38.0375C35.8177 37.9255 35.9617 37.8695 36.1217 37.8695H39.0017C39.1777 37.8695 39.3217 37.9255 39.4337 38.0375C39.5457 38.1495 39.6017 38.2935 39.6017 38.4695V54.0455C39.6017 54.2215 39.5457 54.3735 39.4337 54.5015C39.3217 54.6135 39.1777 54.6695 39.0017 54.6695H36.4337C36.0817 54.6695 35.8177 54.5175 35.6417 54.2135L29.7857 45.3335V54.0695C29.7857 54.2295 29.7297 54.3735 29.6177 54.5015C29.5057 54.6135 29.3617 54.6695 29.1857 54.6695H26.3057ZM43.5557 54.6695C43.3957 54.6695 43.2517 54.6135 43.1237 54.5015C43.0117 54.3735 42.9557 54.2295 42.9557 54.0695V38.4695C42.9557 38.2935 43.0117 38.1495 43.1237 38.0375C43.2517 37.9255 43.3957 37.8695 43.5557 37.8695H50.8757C52.8917 37.8695 54.3877 38.2855 55.3637 39.1175C56.3557 39.9335 56.8517 41.1015 56.8517 42.6215C56.8517 43.4215 56.6437 44.1015 56.2277 44.6615C55.8277 45.2055 55.3717 45.6055 54.8597 45.8615C55.5157 46.1655 56.0677 46.6535 56.5157 47.3255C56.9637 47.9975 57.1877 48.7495 57.1877 49.5815C57.1877 51.1815 56.6597 52.4295 55.6037 53.3255C54.5477 54.2215 53.0437 54.6695 51.0917 54.6695H43.5557ZM50.3957 44.5415C51.0357 44.5415 51.5237 44.3815 51.8597 44.0615C52.1957 43.7255 52.3637 43.2855 52.3637 42.7415C52.3637 42.2135 52.1957 41.7895 51.8597 41.4695C51.5237 41.1495 51.0357 40.9895 50.3957 40.9895H47.2757V44.5415H50.3957ZM50.6117 51.5495C51.2677 51.5495 51.7797 51.3575 52.1477 50.9735C52.5157 50.5895 52.6997 50.1255 52.6997 49.5815C52.6997 49.0055 52.5157 48.5335 52.1477 48.1655C51.7797 47.7815 51.2677 47.5895 50.6117 47.5895H47.2757V51.5495H50.6117Z" fill="white"/>
</svg>
