<svg width="68" height="96" viewBox="0 0 68 96" fill="none" xmlns="http://www.w3.org/2000/svg">
<path d="M37.4674 0.00591344C37.3055 -0.00627416 37.1402 0.000444695 36.9752 0.0254447C26.9552 1.70544 24.7952 10.0847 23.9752 13.2247C23.9552 13.2647 23.9561 13.3253 23.9361 13.3653C21.0761 15.2053 17.6559 18.2631 15.2759 20.6231C7.77595 28.1431 5.61595 40.065 9.77595 51.045C10.0759 51.785 10.415 52.5829 10.815 53.4629C11.835 55.8029 13.0553 58.5648 13.6353 61.8848H55.5728C53.6928 52.8648 45.9561 45.5467 41.4361 41.3067C42.5561 40.9067 43.5556 40.1239 44.4556 39.4239C45.0756 38.9639 46.0956 38.1861 46.4556 38.1661C47.8356 38.1661 48.2338 38.6254 49.0338 39.5254C49.9138 40.5254 51.2166 42.0254 53.9166 42.0254C56.9566 42.0254 58.5542 39.6065 59.5142 38.1465C59.7142 37.8465 59.8928 37.5658 60.0728 37.3458C60.1728 37.2258 60.6131 37.0444 60.8931 36.9044C61.7931 36.5044 63.1339 35.9048 63.6939 34.3848C64.1539 33.1848 63.9944 31.8245 63.1744 30.0645C62.0744 27.6245 57.8166 19.4229 49.4166 15.9629C48.9366 15.7629 48.7931 15.5467 48.3931 14.8067C47.1331 12.5267 45.5145 10.6248 38.8345 10.3848C38.6145 8.72482 38.6759 5.36482 39.2759 2.38482C39.3959 1.74482 39.2164 1.08357 38.7564 0.60357C38.4114 0.24357 37.953 0.0424758 37.4674 0.00591344ZM7.9947 65.8848C4.6747 65.8848 1.9947 68.5648 1.9947 71.8848C1.9947 75.2048 4.6747 77.8848 7.9947 77.8848H59.3345C62.6345 77.8848 65.3345 75.2048 65.3345 71.8848C65.3345 68.5648 62.6345 65.8848 59.3345 65.8848H7.9947ZM5.71345 81.8848C2.15345 85.2248 -0.923582 89.6434 0.256418 92.9434C0.636418 94.0434 1.83658 95.8848 5.41658 95.8848H62.5728C66.1728 95.8848 67.353 94.0429 67.733 92.9629C68.913 89.6429 65.8164 85.2248 62.2564 81.8848H5.71345Z" fill="#A0B2C6"/>
</svg>
