<svg height="100" viewBox="0 0 85 99.8214" width="85" xmlns:xlink="http://www.w3.org/1999/xlink" xmlns="http://www.w3.org/2000/svg">
    <defs/>
    <g transform="translate(1,1)">
        <path id="shape1" fill="#42301c" d="M.9,30.1C.9,30.1,-1.6,17,1.7,11C5.1,4.9,10.6,0,20.6,0C30.6,0,36.8,6.3,38.6,11C40.3,15.7,41.4,24.8,40.1,29.8C38.7,34.8,37.2,40.4,34.5,39.3C31.9,38.3,33.9,25.9,32.2,22.6C30.6,19.4,26.2,18.4,22.5,19.6C18.9,20.9,9.4,21.7,8,22.8C6.6,23.9,5.2,25.5,5.5,28.7C5.7,31.9,6.3,38.2,4.4,37.8C2.4,37.3,.9,31.8,.9,30.1z" transform="translate(21.51,0)"/>
        <path id="shape2" fill="#fad1b6" d="M22.1,41.7C22.1,41.7,15.7,40.5,10.9,35C6,29.6,5.5,24.2,5.5,24.2C5.5,24.2,3.4,24.3,2.5,21.7C1.6,19.1,-1.9,14,1.3,12.5C1.3,12.5,2.8,11.9,3.5,13.5C4.3,15.1,4.9,18.4,5.1,18.7C5.4,19.1,6.4,18,6,11C6,11,4.7,5.8,9.5,4C14.3,2.1,20.6,2.3,22.5,.8C24.4,-0.7,31.6,1.5,33.1,0C33.1,0,35.8,1.4,36.2,5.9C36.6,10.3,36.8,18.4,37.7,19.1C38.7,19.7,38.5,15.2,39.2,13.6C39.9,12,42.6,11.3,42.9,13.9C43.2,16.5,41,21.9,40.3,22.9C39.5,23.8,38.1,25.3,37.2,24.3C37.2,24.3,36.4,30.2,32,35.4C27.5,40.7,23.8,41.6,22.1,41.7z" transform="translate(19.84,17.64)"/>
        <path id="shape3" fill="#e4e4e6" d="M82.9,43.3C83.6,28.6,81.2,20,81.2,20C79.5,12.7,73.1,10.1,73.1,10.1C73.1,10.1,72.9,10.1,70.2,8.9C67.5,7.7,56.7,3.4,56.7,3.4C55.8,.7,52.4,0,52.4,0C51.7,4.8,42.2,11,42.2,11C34,8.9,30.4,0,30.4,0C26.3,1.7,26.2,3.4,26.2,3.4C26.2,3.4,23.2,5.1,19.3,6.3C15.4,7.6,6.5,10.3,3.3,16.1C.2,21.9,0,43.3,0,43.3L82.9,43.3z" transform="translate(0,54.49)"/>
        <path id="shape4" fill="#f9f9f9" d="M22.2,20.1C33.5,16.6,30.6,3.4,30.6,3.4C29.6,.7,26.3,0,26.3,0C25.6,4.8,16.1,11,16.1,11C7.9,8.9,4.3,0,4.3,0C.2,1.2,0,3.4,0,3.4C0,3.4,-1,17.4,8.8,20C10.4,15,14.8,11.3,16.1,11.2C17.4,11.1,21.8,16.7,22.2,20.1z" transform="translate(26.03,54.49)"/>
        <path id="shape5" fill="#303030" d="M8.5,15L6,32.1L3.1,32.1L.3,15L3.3,9C3.2,9,0,5.7,0,4.1C0,2.5,4.1,0,4.1,0C4.1,0,8.2,2.7,8.3,4C8.4,5.1,5.9,8.3,5.4,8.9L8.5,15z" transform="translate(38.03,65.66)"/>
        <path id="shape6" fill="#eac3aa" d="M.3,.1C.3,.1,.5,.9,0,1.9C0,1.9,2.1,13.1,11.8,13.1C11.8,13.1,20.3,10.6,22,1.9C22,1.9,21.8,.7,21.8,0C21.8,0,11.9,9.7,.3,.1z" transform="translate(30.36,52.6)"/>
    </g>
</svg>
