<svg width="84" height="88" viewBox="0 0 84 88" fill="none" xmlns="http://www.w3.org/2000/svg">
<path d="M14 0C10.692 0 8 2.692 8 6V26H0V38H8V56C8 73.644 22.356 88 40 88H44C61.644 88 76 73.644 76 56V38H84V26H76V6C76 2.692 73.308 0 70 0H14ZM20 24H64V40H20V24ZM4 30H8V34H4V30ZM76 30H80V34H76V30Z" fill="#3C87CD"/>
<path d="M42.275 73.25C40.6917 73.25 39.3333 73.0167 38.2 72.55C37.0667 72.0833 36.2083 71.475 35.625 70.725C35.0583 69.9583 34.7583 69.125 34.725 68.225C34.725 68.0917 34.775 67.975 34.875 67.875C34.9917 67.7583 35.125 67.7 35.275 67.7H38.425C38.625 67.7 38.7833 67.7417 38.9 67.825C39.0333 67.8917 39.1667 68 39.3 68.15C39.5167 68.5833 39.8667 68.9417 40.35 69.225C40.8333 69.5083 41.475 69.65 42.275 69.65C43.225 69.65 43.95 69.5 44.45 69.2C44.95 68.9 45.2 68.4917 45.2 67.975C45.2 67.6083 45.0667 67.3083 44.8 67.075C44.55 66.8417 44.15 66.6333 43.6 66.45C43.05 66.2667 42.2333 66.0583 41.15 65.825C39.15 65.4083 37.65 64.8 36.65 64C35.6667 63.1833 35.175 62.025 35.175 60.525C35.175 59.5083 35.4583 58.6 36.025 57.8C36.5917 57 37.4 56.375 38.45 55.925C39.5 55.475 40.725 55.25 42.125 55.25C43.575 55.25 44.8333 55.5 45.9 56C46.9667 56.5 47.775 57.1333 48.325 57.9C48.8917 58.65 49.1917 59.3917 49.225 60.125C49.225 60.275 49.175 60.4 49.075 60.5C48.975 60.6 48.85 60.65 48.7 60.65H45.4C45.2 60.65 45.0333 60.6167 44.9 60.55C44.7833 60.4833 44.675 60.375 44.575 60.225C44.475 59.8417 44.2 59.5167 43.75 59.25C43.3167 58.9833 42.775 58.85 42.125 58.85C41.375 58.85 40.8 58.9833 40.4 59.25C40 59.5167 39.8 59.9083 39.8 60.425C39.8 60.775 39.9083 61.0667 40.125 61.3C40.3583 61.5333 40.725 61.75 41.225 61.95C41.7417 62.1333 42.475 62.325 43.425 62.525C44.975 62.8083 46.2083 63.1667 47.125 63.6C48.0583 64.0167 48.7417 64.5667 49.175 65.25C49.6083 65.9167 49.825 66.7583 49.825 67.775C49.825 68.8917 49.5 69.8667 48.85 70.7C48.2167 71.5167 47.325 72.15 46.175 72.6C45.0417 73.0333 43.7417 73.25 42.275 73.25Z" fill="white"/>
</svg>
