<svg width="138" height="159" viewBox="0 0 138 159" fill="none" xmlns="http://www.w3.org/2000/svg">
<circle cx="69" cy="69" r="69" fill="#C5E3FF"/>
<circle cx="69" cy="90" r="67.5" stroke="#5E5E60" stroke-width="3"/>
<path d="M97.2857 61V96.942L103.151 103.074C104.326 104.28 104.99 105.915 105 107.624C104.992 109.313 104.337 110.929 103.179 112.123C102.02 113.317 100.451 113.992 98.8131 114H39.1869C37.5485 113.992 35.9796 113.317 34.8211 112.123C33.6625 110.929 33.0081 109.313 33 107.624C33.0101 105.914 33.6745 104.277 34.8489 103.069L40.7143 96.9393V61H97.2857ZM92.1429 66.3H45.8571V95.45H92.1429V66.3ZM69 68.95L72.8571 92.8H69L65.1429 68.95H69ZM79.0646 74.25L83.4849 79.7302L84.4286 80.875L83.4849 82.0198L79.0646 87.5L76.272 85.2131L79.7743 80.875L76.2771 76.537L79.062 74.25H79.0646ZM58.9354 74.25L61.728 76.537L58.2257 80.875L61.7229 85.2131L58.9329 87.5L54.5126 82.0198L53.5714 80.875L54.5151 79.7302L58.9354 74.25ZM93.5906 100.75H44.412L38.4643 106.795C38.26 107.02 38.1453 107.316 38.1429 107.624C38.1354 107.767 38.1574 107.911 38.2072 108.045C38.2571 108.179 38.3337 108.3 38.4322 108.402C38.5306 108.503 38.6487 108.582 38.7787 108.634C38.9088 108.685 39.0478 108.708 39.1869 108.7H98.8131C98.9522 108.708 99.0912 108.685 99.2213 108.634C99.3513 108.582 99.4694 108.503 99.5678 108.402C99.6663 108.3 99.7429 108.179 99.7928 108.045C99.8426 107.911 99.8646 107.767 99.8571 107.624C99.8571 107.333 99.7363 107.004 99.5357 106.795L93.588 100.75H93.5906Z" fill="black"/>
</svg>
