<svg width="85" height="100" viewBox="0 0 85 100" fill="none" xmlns="http://www.w3.org/2000/svg">
<path d="M82.9212 19.0054C82.1549 18.134 81.0732 17.6382 79.9314 17.5931C71.1123 17.3678 59.9344 7.93269 52.5576 4.22176C47.9903 1.95312 44.9855 0.435698 42.7168 0.0450723C42.4915 0.0150242 42.2511 0 42.0257 0C41.8004 0 41.56 0.0150242 41.3346 0.0450723C39.066 0.450721 36.0612 1.95312 31.5089 4.23678C24.1171 7.93269 12.9542 17.3678 4.12009 17.5931C2.97826 17.6382 1.89653 18.134 1.13031 19.0054C0.349057 19.8768 -0.0415697 21.0337 0.00350336 22.2206C1.91156 60.7722 15.7337 84.6304 39.9975 98.4826C40.6285 98.8431 41.3196 99.0385 42.0257 99.0385C42.7319 99.0385 43.423 98.8431 44.054 98.4826C68.3178 84.6304 82.1399 60.7722 84.048 22.2206C84.093 21.0337 83.7024 19.8768 82.9212 19.0054Z" fill="#7B9095"/>
<path d="M41.944 55.24C40.424 55.24 39.12 55.016 38.032 54.568C36.944 54.12 36.12 53.536 35.56 52.816C35.016 52.08 34.728 51.28 34.696 50.416C34.696 50.288 34.744 50.176 34.84 50.08C34.952 49.968 35.08 49.912 35.224 49.912H38.248C38.44 49.912 38.592 49.952 38.704 50.032C38.832 50.096 38.96 50.2 39.088 50.344C39.296 50.76 39.632 51.104 40.096 51.376C40.56 51.648 41.176 51.784 41.944 51.784C42.856 51.784 43.552 51.64 44.032 51.352C44.512 51.064 44.752 50.672 44.752 50.176C44.752 49.824 44.624 49.536 44.368 49.312C44.128 49.088 43.744 48.888 43.216 48.712C42.688 48.536 41.904 48.336 40.864 48.112C38.944 47.712 37.504 47.128 36.544 46.36C35.6 45.576 35.128 44.464 35.128 43.024C35.128 42.048 35.4 41.176 35.944 40.408C36.488 39.64 37.264 39.04 38.272 38.608C39.28 38.176 40.456 37.96 41.8 37.96C43.192 37.96 44.4 38.2 45.424 38.68C46.448 39.16 47.224 39.768 47.752 40.504C48.296 41.224 48.584 41.936 48.616 42.64C48.616 42.784 48.568 42.904 48.472 43C48.376 43.096 48.256 43.144 48.112 43.144H44.944C44.752 43.144 44.592 43.112 44.464 43.048C44.352 42.984 44.248 42.88 44.152 42.736C44.056 42.368 43.792 42.056 43.36 41.8C42.944 41.544 42.424 41.416 41.8 41.416C41.08 41.416 40.528 41.544 40.144 41.8C39.76 42.056 39.568 42.432 39.568 42.928C39.568 43.264 39.672 43.544 39.88 43.768C40.104 43.992 40.456 44.2 40.936 44.392C41.432 44.568 42.136 44.752 43.048 44.944C44.536 45.216 45.72 45.56 46.6 45.976C47.496 46.376 48.152 46.904 48.568 47.56C48.984 48.2 49.192 49.008 49.192 49.984C49.192 51.056 48.88 51.992 48.256 52.792C47.648 53.576 46.792 54.184 45.688 54.616C44.6 55.032 43.352 55.24 41.944 55.24Z" fill="white"/>
</svg>
