<svg height="63" viewBox="0 0 77 63" xmlns="http://www.w3.org/2000/svg" xmlns:xlink="http://www.w3.org/1999/xlink" width="77">
    <defs/>
    <g transform="translate(1,1)">
        <g>
            <path d="M0,0L75,0L75,61L0,61L0,0z" id="shape1" stroke="#ffffff" fill="#ffffff"/>
        </g>
        <g transform="translate(9.5,7.5)">
            <path d="M0,8.6C0,3.8,3.8,0,8.5,0C13.2,0,17,3.8,17,8.6C17,13.3,13.2,17.1,8.5,17.1C3.8,17.1,0,13.3,0,8.6zM9.4,6.8L1.6,6.8L1.6,10.3L9.4,10.3L7.2,12.4L9.4,14.6L15.4,8.6L9.4,2.5L7.2,4.7L9.4,6.8z" transform="translate(31.92,28.89)" id="shape2" stroke="#3e8893" fill="#3e8893"/>
            <path d="M0,37.6C.9,29.7,2.7,24.6,9,23.3C9.7,23.2,10.3,23.1,11,23.1C12.8,24.6,15.3,25.5,18,25.5C20.7,25.5,23.2,24.6,25,23.1C25.7,23.1,26.3,23.2,27,23.3C30.1,24,32.2,25.5,33.5,27.9C30.6,30.1,28.7,33.5,28.7,37.4C28.7,37.6,28.7,37.8,28.7,37.9L0,37.9C0,37.8,0,37.7,0,37.6zM28.4,20.5C32.3,21.2,34.7,23.3,36.3,26.4C37.6,25.9,39,25.7,40.4,25.7C44,25.7,47.1,27.3,49.3,29.8L56,29.8C56,29.7,56,29.6,56,29.5C55.2,22.7,53.7,18.3,48.2,17.2C47.7,17.1,47.1,17,46.6,17C45,18.3,42.9,19.1,40.5,19.1C38.2,19.1,36.1,18.3,34.5,17C33.9,17,33.4,17.1,32.8,17.2C30.5,17.7,28.9,18.7,27.7,20.3C28,20.4,28.2,20.4,28.4,20.5zM18,21.6C22.3,21.6,25.7,17.5,25.7,12.5C25.7,7.4,22.3,3.3,18,3.3C13.8,3.3,10.3,7.4,10.3,12.5C10.3,17.5,13.8,21.6,18,21.6zM40.5,15.7C44.2,15.7,47.1,12.2,47.1,7.9C47.1,3.5,44.2,0,40.5,0C36.9,0,33.9,3.5,33.9,7.9C33.9,12.2,36.9,15.7,40.5,15.7z" id="shape3" stroke="#595757" fill="#595757"/>
        </g>
    </g>
</svg>
