<svg width="56" height="56" xmlns="http://www.w3.org/2000/svg" viewBox="0 0 56 56" xmlns:xlink="http://www.w3.org/1999/xlink">
    <defs/>
    <g transform="translate(1,1)">
        <path fill="#9b9b9b" id="shape1" stroke="#afafaf" d="M23.2,0L19.7,6.5L13.1,3.5L12.4,10.8L5.2,10.7L7.3,17.6L.6,20.2L5.2,25.8L0,30.9L6.4,34.3L3.5,40.9L10.7,41.6L10.6,48.8L17.6,46.7L20.2,53.4L25.8,48.8L30.8,54L34.3,47.6L40.9,50.5L41.6,43.3L48.8,43.4L46.7,36.4L53.4,33.8L48.8,28.2L54,23.2L47.6,19.8L50.5,13.2L43.3,12.5L43.4,5.2L36.4,7.3L33.8,.6L28.2,5.2L23.2,0z"/>
        <path fill="#ffffff" transform="translate(15.47,14.42)" id="shape2" stroke="#afafaf" d="M0,11.2C0,11.2,0,11.3,0,11.3C.1,11.4,.1,11.4,.1,11.4C.3,11.7,.4,11.9,.5,12.2C.6,12.4,.7,12.7,.8,13C1,13.5,1.1,14,1.2,14.6C1.3,15.2,1.4,15.8,1.4,16.3L1.8,24.5C1.9,24.9,2.1,25.2,2.5,25.2C2.7,25.2,3,25,3.2,24.8C3.5,24.6,3.7,24.3,4,24C4.2,23.7,4.5,23.4,4.7,23.1C4.9,22.8,5.1,22.5,5.3,22.3C5.5,22.1,5.8,21.7,6.2,21.3C6.6,20.9,6.9,20.6,7.3,20.2C7.7,19.8,8,19.5,8.3,19.2C8.6,18.9,8.7,18.8,8.7,18.7L15,13.1C15.1,13,15.3,12.9,15.3,12.9C15.4,12.8,15.5,12.7,15.7,12.5C15.9,12.5,16.1,12.3,16.3,12.1C16.6,11.9,16.8,11.7,17.1,11.6C17.4,11.4,17.6,11.2,17.8,11.1C18,10.9,18.1,10.8,18.2,10.8C18.3,10.7,18.5,10.6,18.8,10.4C19.2,10.2,19.5,10,19.8,9.8C20.2,9.6,20.5,9.5,20.9,9.3C21.2,9.1,21.4,9,21.5,8.9C21.6,8.9,21.7,8.9,21.8,8.8C22,8.8,22.1,8.7,22.1,8.7C22.1,8.7,22.1,8.6,22.1,8.5C22.1,8.4,22,8.4,22,8.3C21.9,7.8,21.7,7.3,21.6,6.8C21.5,6.3,21.5,5.8,21.5,5.2C21.5,4.2,21.7,3.1,22.1,2.2C22.2,1.9,22.4,1.6,22.7,1.3C22.9,.9,23.1,.6,23.1,.3C23.1,.2,23,.1,22.8,0C22.6,0,22.5,0,22.4,0C22,0,21.5,.1,21.1,.3C20.7,.5,20.3,.8,19.9,1.1C19.5,1.4,19.1,1.7,18.7,2C18.4,2.3,18,2.6,17.7,2.8C17.7,2.9,17.7,2.9,17.6,2.9C17.6,3,17.5,3,17.5,3C17.4,3.1,17.3,3.2,17.1,3.4C16.9,3.5,16.7,3.7,16.4,3.9C16.2,4.1,16,4.3,15.8,4.5C15.6,4.7,15.5,4.8,15.4,4.9C13.7,6.6,12.1,8.3,10.7,10.1C9.2,11.9,7.9,13.8,6.6,15.8C6.5,15.8,6.5,15.9,6.4,16.1C6.3,16.3,6.3,16.4,6.2,16.4C6.2,16.5,6.1,16.5,6.1,16.7C6,16.8,5.9,17,5.8,17.1C5.6,17.3,5.5,17.4,5.5,17.6C5.4,17.7,5.3,17.8,5.3,17.8C5.3,17.9,5.2,18.1,5.1,18.3C5,18.5,4.9,18.8,4.7,19C4.6,19.3,4.5,19.5,4.3,19.8C4.2,20,4.1,20.1,4.1,20.2C4.1,20.2,4.1,20.3,4,20.4C3.9,20.5,3.9,20.6,3.9,20.6C3.9,20.6,3.9,20.5,3.9,20.5C3.9,20.4,3.8,20.4,3.8,20.3C3.8,19.7,3.9,19.1,4,18.5C4.1,17.9,4.1,17.3,4.1,16.7C4.1,15.5,4,14.3,3.8,13.2C3.6,12.1,3.2,11,2.5,9.9C2.5,9.9,2.4,9.9,2.3,9.9C2.3,9.9,2.2,9.9,2.1,9.9C2,10,1.9,10.1,1.7,10.2C1.5,10.3,1.3,10.4,1.1,10.5C.9,10.7,.7,10.8,.5,10.9C.3,11,.2,11.1,.1,11.1C0,11.1,0,11.2,0,11.2zM3.8,20.7C3.8,20.7,3.8,20.7,3.8,20.8C3.8,20.8,3.8,20.9,3.8,20.9C3.7,20.9,3.7,20.8,3.7,20.8C3.7,20.7,3.7,20.7,3.8,20.7z"/>
    </g>
</svg>
