<svg height="63" viewBox="0 0 77 63" xmlns="http://www.w3.org/2000/svg" xmlns:xlink="http://www.w3.org/1999/xlink" width="77">
    <defs/>
    <g transform="translate(1,1)">
        <path d="M0,0L75,0L75,61L0,61L0,0z" id="shape1" stroke="#ffffff" fill="#ffffff"/>
        <path d="M13.2,11.6C13.2,5.2,17.6,0,23,0C28.4,0,32.8,5.2,32.8,11.6C32.8,18,28.4,23.2,23,23.2C17.6,23.2,13.2,18,13.2,11.6zM0,43.6C1.1,33.6,3.5,27,11.5,25.4C12.4,25.3,13.2,25.2,14,25.1C16.4,27,19.5,28.2,23,28.2C26.5,28.2,29.6,27,32,25.1C32.8,25.2,33.6,25.3,34.5,25.4C42.5,27,44.9,33.6,46,43.6C46,43.7,46,43.9,46,44L0,44C0,43.9,0,43.7,0,43.6z" transform="translate(14.5,8.5)" id="shape2" stroke="#595757" fill="#595757"/>
    </g>
</svg>
