<svg width="155" height="153" viewBox="0 0 155 153" fill="none" xmlns="http://www.w3.org/2000/svg">
<circle cx="69" cy="69" r="69" fill="#C5E3FF"/>
<circle cx="86" cy="84" r="67.5" stroke="#5E5E60" stroke-width="3"/>
<path d="M59.3119 63.3928L66.3676 56.3447C67.2288 55.4836 68.3816 55 69.6006 55C70.8196 55 71.9723 55.4769 72.8336 56.3447L80.4325 63.9294C81.2938 64.7905 81.7774 65.9498 81.7774 67.1686C81.7774 68.3941 81.3004 69.5401 80.4325 70.4078L74.4965 76.3497C75.8487 79.5001 77.7917 82.3624 80.2205 84.7823C82.6519 87.2266 85.494 89.1542 88.6475 90.5188L94.5836 84.5769C95.4448 83.7158 96.5976 83.2322 97.8166 83.2322C98.4178 83.23 99.0135 83.3478 99.5687 83.5787C100.124 83.8096 100.627 84.149 101.05 84.5769L108.655 92.1616C109.516 93.0227 110 94.182 110 95.4008C110 96.6263 109.523 97.7723 108.655 98.64L101.606 105.688C100.135 107.159 98.1081 108 96.0278 108C95.5972 108 95.1798 107.967 94.7558 107.894C85.9843 106.45 77.279 101.78 70.2498 94.7583C63.2273 87.7234 58.5633 79.0192 57.1058 70.2422C56.6884 67.7515 57.5231 65.188 59.3119 63.3928ZM61.8029 69.4539C63.0948 77.2638 67.2951 85.0539 73.622 91.38C79.9489 97.706 87.7333 101.906 95.5442 103.197C96.5247 103.363 97.5317 103.032 98.2472 102.323L105.17 95.4008L97.8298 88.0546L89.893 96.0036L89.8334 96.0632L88.4024 95.5333C84.0635 93.9382 80.1233 91.4189 76.855 88.1499C73.5867 84.8809 71.0685 80.9403 69.4747 76.6014L68.9447 75.1706L76.9477 67.1752L69.6072 59.829L62.684 66.7513C61.9685 67.4667 61.6373 68.4736 61.8029 69.4539Z" fill="black"/>
</svg>
